<svg version="1.1" viewBox="0.0 0.0 648.0682414698163 252.08923884514437" fill="none" stroke="none" stroke-linecap="square" stroke-miterlimit="10" xmlns:xlink="http://www.w3.org/1999/xlink" xmlns="http://www.w3.org/2000/svg"><clipPath id="p.0"><path d="m0 0l648.06824 0l0 252.08923l-648.06824 0l0 -252.08923z" clip-rule="nonzero"/></clipPath><g clip-path="url(#p.0)"><path fill="#000000" fill-opacity="0.0" d="m0 0l648.06824 0l0 252.08923l-648.06824 0z" fill-rule="evenodd"/><path fill="#000000" fill-opacity="0.0" d="m261.5971 90.58793l102.4252 0l0 42.771645l-102.4252 0z" fill-rule="evenodd"/><path fill="#000000" d="m297.33707 113.69313q0 0.90625 -0.21875 1.703125q-0.21875 0.78125 -0.640625 1.359375q-0.421875 0.578125 -1.046875 0.90625q-0.625 0.328125 -1.421875 0.328125q-0.8125 0 -1.421875 -0.28125q-0.59375 -0.296875 -1.015625 -0.84375l-0.0625 0.96875l-1.328125 0l0 -12.0l1.4375 0l0 4.453125q0.421875 -0.515625 1.0 -0.78125q0.59375 -0.28125 1.375 -0.28125q0.8125 0 1.4375 0.328125q0.625 0.3125 1.046875 0.890625q0.421875 0.5625 0.640625 1.359375q0.21875 0.78125 0.21875 1.734375l0 0.15625zm-1.453125 -0.15625q0 -0.625 -0.125 -1.171875q-0.109375 -0.5625 -0.375 -0.984375q-0.265625 -0.4375 -0.703125 -0.6875q-0.421875 -0.25 -1.046875 -0.25q-0.375 0 -0.6875 0.109375q-0.3125 0.09375 -0.5625 0.265625q-0.25 0.171875 -0.4375 0.421875q-0.1875 0.234375 -0.328125 0.515625l0 3.6875q0.140625 0.28125 0.328125 0.53125q0.203125 0.234375 0.453125 0.421875q0.25 0.171875 0.5625 0.265625q0.3125 0.09375 0.6875 0.09375q0.59375 0 1.015625 -0.234375q0.421875 -0.25 0.6875 -0.671875q0.28125 -0.421875 0.40625 -0.96875q0.125 -0.5625 0.125 -1.1875l0 -0.15625zm9.3671875 3.125q-0.421875 0.625 -1.0625 0.984375q-0.625 0.34375 -1.453125 0.34375q-0.65625 0 -1.203125 -0.203125q-0.53125 -0.21875 -0.921875 -0.65625q-0.375 -0.4375 -0.59375 -1.109375q-0.203125 -0.671875 -0.203125 -1.625l0 -5.015625l1.453125 0l0 5.03125q0 0.6875 0.109375 1.140625q0.109375 0.453125 0.328125 0.734375q0.21875 0.265625 0.53125 0.375q0.3125 0.109375 0.734375 0.109375q0.875 0 1.421875 -0.359375q0.546875 -0.359375 0.8125 -0.96875l0 -6.0625l1.453125 0l0 8.453125l-1.3125 0l-0.09375 -1.171875zm4.3515625 -7.28125l4.3125 0l0 7.203125l2.765625 0l0 1.25l-7.078125 0l0 -1.25l2.875 0l0 -5.953125l-2.875 0l0 -1.25zm2.6875 -2.21875q0 -0.359375 0.203125 -0.609375q0.21875 -0.25 0.65625 -0.25q0.4375 0 0.65625 0.25q0.21875 0.25 0.21875 0.609375q0 0.34375 -0.21875 0.578125q-0.21875 0.234375 -0.65625 0.234375q-0.4375 0 -0.65625 -0.234375q-0.203125 -0.234375 -0.203125 -0.578125zm6.9140625 -1.328125l4.3125 0l0 10.75l2.765625 0l0 1.25l-7.078125 0l0 -1.25l2.875 0l0 -9.5l-2.875 0l0 -1.25zm9.1015625 7.703125q0 -0.953125 0.234375 -1.734375q0.234375 -0.796875 0.671875 -1.359375q0.453125 -0.578125 1.078125 -0.890625q0.625 -0.328125 1.390625 -0.328125q0.765625 0 1.328125 0.25q0.5625 0.25 0.984375 0.734375l0 -4.375l1.4375 0l0 12.0l-1.328125 0l-0.0625 -0.890625q-0.421875 0.515625 -1.015625 0.78125q-0.578125 0.265625 -1.359375 0.265625q-0.765625 0 -1.390625 -0.328125q-0.609375 -0.328125 -1.046875 -0.90625q-0.4375 -0.578125 -0.6875 -1.359375q-0.234375 -0.796875 -0.234375 -1.703125l0 -0.15625zm1.4375 0.15625q0 0.625 0.125 1.1875q0.140625 0.546875 0.421875 0.96875q0.28125 0.421875 0.703125 0.671875q0.4375 0.234375 1.03125 0.234375q0.375 0 0.671875 -0.078125q0.296875 -0.09375 0.53125 -0.25q0.25 -0.15625 0.4375 -0.375q0.1875 -0.234375 0.328125 -0.5l0 -3.921875q-0.28125 -0.515625 -0.765625 -0.84375q-0.46875 -0.34375 -1.1875 -0.34375q-0.609375 0 -1.046875 0.25q-0.421875 0.25 -0.703125 0.6875q-0.28125 0.421875 -0.421875 0.984375q-0.125 0.546875 -0.125 1.171875l0 0.15625z" fill-rule="nonzero"/><path fill="#000000" fill-opacity="0.0" d="m21.526247 6.2125983l133.25984 0l0 42.771656l-133.25984 0z" fill-rule="evenodd"/><path fill="#000000" d="m43.26172 28.960924q0 0.75 -0.1875 1.40625q-0.171875 0.65625 -0.53125 1.140625q-0.34375 0.46875 -0.859375 0.7499981q-0.515625 0.265625 -1.1875 0.265625q-0.671875 0 -1.171875 -0.234375q-0.5 -0.234375 -0.859375 -0.6874981l-0.046875 0.7968731l-1.109375 0l0 -9.999998l1.203125 0l0 3.71875q0.34375 -0.4375 0.828125 -0.65625q0.484375 -0.234375 1.140625 -0.234375q0.671875 0 1.1875 0.265625q0.53125 0.265625 0.875 0.75q0.359375 0.46875 0.53125 1.140625q0.1875 0.65625 0.1875 1.4375l0 0.140625zm-1.203125 -0.140625q0 -0.515625 -0.109375 -0.984375q-0.09375 -0.46875 -0.3125 -0.8125q-0.21875 -0.359375 -0.578125 -0.5625q-0.359375 -0.21875 -0.875 -0.21875q-0.3125 0 -0.578125 0.09375q-0.25 0.078125 -0.46875 0.234375q-0.203125 0.140625 -0.359375 0.34375q-0.15625 0.1875 -0.265625 0.421875l0 3.078125q0.109375 0.234375 0.265625 0.4375q0.171875 0.1875 0.375 0.34375q0.21875 0.15625 0.46875 0.234375q0.265625 0.078125 0.578125 0.078125q0.484375 0 0.84375 -0.203125q0.359375 -0.203125 0.578125 -0.546875q0.234375 -0.359375 0.328125 -0.8125q0.109375 -0.46875 0.109375 -0.984375l0 -0.140625zm7.810684 2.609375q-0.359375 0.515625 -0.890625 0.8124981q-0.515625 0.28125 -1.203125 0.28125q-0.5625 0 -1.015625 -0.171875q-0.4375 -0.171875 -0.765625 -0.5312481q-0.3125 -0.359375 -0.484375 -0.921875q-0.171875 -0.5625 -0.171875 -1.359375l0 -4.1875l1.203125 0l0 4.203125q0 0.578125 0.09375 0.953125q0.09375 0.375 0.265625 0.609375q0.1875 0.21875 0.453125 0.3125q0.265625 0.078125 0.609375 0.078125q0.734375 0 1.1875 -0.296875q0.453125 -0.296875 0.671875 -0.796875l0 -5.0625l1.203125 0l0 7.046873l-1.09375 0l-0.0625 -0.9687481zm3.6231842 -6.078125l3.59375 0l0 6.0l2.296875 0l0 1.0468731l-5.890625 0l0 -1.0468731l2.390625 0l0 -4.953125l-2.390625 0l0 -1.046875zm2.234375 -1.84375q0 -0.296875 0.171875 -0.5q0.1875 -0.203125 0.546875 -0.203125q0.359375 0 0.53125 0.203125q0.1875 0.203125 0.1875 0.5q0 0.296875 -0.1875 0.5q-0.171875 0.1875 -0.53125 0.1875q-0.359375 0 -0.546875 -0.1875q-0.171875 -0.203125 -0.171875 -0.5zm5.763809 -1.109375l3.59375 0l0 8.953125l2.296875 0l0 1.0468731l-5.890625 0l0 -1.0468731l2.390625 0l0 -7.90625l-2.390625 0l0 -1.046875zm7.576309 6.421875q0 -0.78125 0.1875 -1.4375q0.203125 -0.671875 0.5625 -1.140625q0.375 -0.484375 0.890625 -0.75q0.53125 -0.265625 1.171875 -0.265625q0.640625 0 1.109375 0.21875q0.46875 0.203125 0.8125 0.609375l0 -3.65625l1.203125 0l0 9.999998l-1.109375 0l-0.046875 -0.7343731q-0.34375 0.4218731 -0.84375 0.6406231q-0.484375 0.21875 -1.140625 0.21875q-0.625 0 -1.15625 -0.265625q-0.515625 -0.2812481 -0.875 -0.7499981q-0.359375 -0.484375 -0.5625 -1.140625q-0.203125 -0.65625 -0.203125 -1.40625l0 -0.140625zm1.203125 0.140625q0 0.515625 0.109375 0.984375q0.109375 0.453125 0.34375 0.8125q0.234375 0.34375 0.578125 0.546875q0.359375 0.203125 0.875 0.203125q0.296875 0 0.546875 -0.0625q0.25 -0.078125 0.453125 -0.203125q0.203125 -0.140625 0.359375 -0.328125q0.15625 -0.1875 0.265625 -0.421875l0 -3.265625q-0.234375 -0.421875 -0.640625 -0.703125q-0.390625 -0.28125 -0.984375 -0.28125q-0.5 0 -0.859375 0.21875q-0.359375 0.203125 -0.59375 0.5625q-0.234375 0.34375 -0.34375 0.8125q-0.109375 0.46875 -0.109375 0.984375l0 0.140625zm10.138809 3.562498q-0.75 0 -1.375 -0.25q-0.609375 -0.25 -1.0625 -0.7031231q-0.4375 -0.453125 -0.6875 -1.078125q-0.25 -0.625 -0.25 -1.375l0 -0.265625q0 -0.859375 0.265625 -1.53125q0.28125 -0.671875 0.734375 -1.125q0.453125 -0.46875 1.03125 -0.71875q0.578125 -0.25 1.1875 -0.25q0.75 0 1.3125 0.265625q0.578125 0.265625 0.953125 0.734375q0.375 0.453125 0.5625 1.09375q0.1875 0.625 0.1875 1.359375l0 0.546875l-5.03125 0q0.03125 0.484375 0.1875 0.90625q0.171875 0.421875 0.453125 0.734375q0.296875 0.3125 0.6875 0.5q0.40625 0.171875 0.90625 0.171875q0.640625 0 1.140625 -0.25q0.5 -0.265625 0.828125 -0.6875l0.734375 0.5625q-0.171875 0.265625 -0.4375 0.515625q-0.265625 0.25 -0.609375 0.4374981q-0.34375 0.1875 -0.78125 0.296875q-0.4375 0.109375 -0.9375 0.109375zm-0.15625 -6.312498q-0.375 0 -0.703125 0.140625q-0.3125 0.125 -0.578125 0.390625q-0.265625 0.25 -0.453125 0.625q-0.171875 0.375 -0.234375 0.859375l3.78125 0l0 -0.078125q-0.015625 -0.359375 -0.140625 -0.703125q-0.109375 -0.34375 -0.328125 -0.609375q-0.21875 -0.28125 -0.5625 -0.453125q-0.328125 -0.171875 -0.78125 -0.171875zm9.654434 -0.984375q0.171875 0 0.34375 0.015625q0.1875 0 0.34375 0.03125q0.171875 0.015625 0.3125 0.046875q0.140625 0.03125 0.234375 0.078125l-0.171875 1.171875q-0.34375 -0.078125 -0.65625 -0.109375q-0.3125 -0.03125 -0.65625 -0.03125q-0.859375 0 -1.390625 0.390625q-0.515625 0.375 -0.765625 1.0625l0 4.515623l-1.203125 0l0 -7.046873l1.140625 0l0.0625 1.125q0.4375 -0.578125 1.03125 -0.90625q0.609375 -0.34375 1.375 -0.34375zm11.574493 0.125l3.59375 0l0 6.0l2.296875 0l0 1.0468731l-5.890625 0l0 -1.0468731l2.390625 0l0 -4.953125l-2.390625 0l0 -1.046875zm2.234375 -1.84375q0 -0.296875 0.171875 -0.5q0.1875 -0.203125 0.546875 -0.203125q0.359375 0 0.53125 0.203125q0.1875 0.203125 0.1875 0.5q0 0.296875 -0.1875 0.5q-0.171875 0.1875 -0.53125 0.1875q-0.359375 0 -0.546875 -0.1875q-0.171875 -0.203125 -0.171875 -0.5zm6.123184 1.84375l0.03125 0.671875q0.21875 -0.375 0.5625 -0.578125q0.34375 -0.21875 0.84375 -0.21875q0.96875 0 1.296875 0.75q0.203125 -0.328125 0.546875 -0.53125q0.34375 -0.21875 0.828125 -0.21875q0.78125 0 1.1875 0.484375q0.421875 0.46875 0.421875 1.421875l0 5.265623l-1.140625 0l0 -5.265623q0 -0.890625 -0.8125 -0.890625q-0.21875 0 -0.375 0.0625q-0.15625 0.0625 -0.265625 0.171875q-0.09375 0.09375 -0.15625 0.234375q-0.0625 0.125 -0.078125 0.265625l0 5.421873l-1.15625 0l0 -5.281248q0 -0.421875 -0.1875 -0.640625q-0.1875 -0.234375 -0.59375 -0.234375q-0.375 0 -0.59375 0.15625q-0.203125 0.15625 -0.296875 0.390625l0 5.609373l-1.140625 0l0 -7.046873l1.078125 0zm12.076309 7.046873q-0.078125 -0.140625 -0.125 -0.34375q-0.03125 -0.2031231 -0.0625 -0.4218731q-0.171875 0.1875 -0.40625 0.34375q-0.21875 0.1562481 -0.5 0.2812481q-0.265625 0.125 -0.578125 0.1875q-0.296875 0.078125 -0.640625 0.078125q-0.5625 0 -1.015625 -0.15625q-0.453125 -0.15625 -0.765625 -0.4374981q-0.3125 -0.28125 -0.484375 -0.65625q-0.171875 -0.390625 -0.171875 -0.828125q0 -0.578125 0.234375 -1.015625q0.234375 -0.4375 0.65625 -0.71875q0.421875 -0.296875 1.015625 -0.4375q0.59375 -0.140625 1.328125 -0.140625l1.3125 0l0 -0.5625q0 -0.3125 -0.125 -0.5625q-0.109375 -0.265625 -0.328125 -0.4375q-0.203125 -0.171875 -0.515625 -0.265625q-0.3125 -0.109375 -0.703125 -0.109375q-0.34375 0 -0.640625 0.09375q-0.28125 0.09375 -0.484375 0.25q-0.1875 0.140625 -0.296875 0.34375q-0.09375 0.203125 -0.09375 0.421875l-1.21875 0q0.015625 -0.375 0.203125 -0.75q0.1875 -0.375 0.546875 -0.671875q0.359375 -0.296875 0.875 -0.46875q0.53125 -0.1875 1.1875 -0.1875q0.59375 0 1.109375 0.15625q0.515625 0.140625 0.890625 0.4375q0.375 0.296875 0.578125 0.734375q0.21875 0.4375 0.21875 1.03125l0 3.28125q0 0.34375 0.0625 0.75q0.0625 0.3906231 0.1875 0.6718731l0 0.109375l-1.25 0zm-2.140625 -0.9218731q0.359375 0 0.65625 -0.078125q0.3125 -0.09375 0.5625 -0.25q0.25 -0.15625 0.421875 -0.34375q0.1875 -0.1875 0.296875 -0.390625l0 -1.4375l-1.125 0q-1.046875 0 -1.640625 0.3125q-0.578125 0.3125 -0.578125 0.984375q0 0.265625 0.078125 0.484375q0.09375 0.21875 0.265625 0.390625q0.1875 0.15625 0.453125 0.25q0.265625 0.078125 0.609375 0.078125zm5.279434 -2.65625q0 -0.78125 0.1875 -1.4375q0.203125 -0.671875 0.5625 -1.140625q0.375 -0.484375 0.890625 -0.75q0.515625 -0.265625 1.171875 -0.265625q0.65625 0 1.140625 0.234375q0.5 0.234375 0.84375 0.65625l0.0625 -0.765625l1.09375 0l0 6.890623q0 0.703125 -0.21875 1.234375q-0.21875 0.546875 -0.625 0.921875q-0.390625 0.375 -0.9375 0.5625q-0.546875 0.203125 -1.203125 0.203125q-0.28125 0 -0.640625 -0.0625q-0.34375 -0.046875 -0.703125 -0.1875q-0.359375 -0.140625 -0.703125 -0.375q-0.328125 -0.234375 -0.5625 -0.578125l0.625 -0.734375q0.21875 0.265625 0.453125 0.453125q0.234375 0.1875 0.46875 0.296875q0.25 0.109375 0.484375 0.15625q0.25 0.0625 0.484375 0.0625q0.421875 0 0.765625 -0.125q0.359375 -0.125 0.59375 -0.375q0.25 -0.234375 0.375 -0.59375q0.140625 -0.34375 0.140625 -0.796875l0 -0.6093731q-0.359375 0.4062481 -0.84375 0.6249981q-0.46875 0.203125 -1.109375 0.203125q-0.640625 0 -1.15625 -0.265625q-0.515625 -0.2812481 -0.890625 -0.7499981q-0.359375 -0.484375 -0.5625 -1.140625q-0.1875 -0.65625 -0.1875 -1.40625l0 -0.140625zm1.203125 0.140625q0 0.515625 0.109375 0.984375q0.109375 0.453125 0.34375 0.8125q0.234375 0.34375 0.578125 0.546875q0.359375 0.203125 0.875 0.203125q0.3125 0 0.5625 -0.078125q0.25 -0.078125 0.4375 -0.203125q0.203125 -0.140625 0.359375 -0.328125q0.15625 -0.1875 0.28125 -0.421875l0 -3.21875q-0.125 -0.234375 -0.28125 -0.40625q-0.15625 -0.1875 -0.359375 -0.3125q-0.203125 -0.140625 -0.453125 -0.21875q-0.234375 -0.078125 -0.546875 -0.078125q-0.5 0 -0.859375 0.21875q-0.359375 0.203125 -0.59375 0.5625q-0.234375 0.34375 -0.34375 0.8125q-0.109375 0.46875 -0.109375 0.984375l0 0.140625zm10.138809 3.562498q-0.75 0 -1.375 -0.25q-0.609375 -0.25 -1.0625 -0.7031231q-0.4375 -0.453125 -0.6875 -1.078125q-0.25 -0.625 -0.25 -1.375l0 -0.265625q0 -0.859375 0.265625 -1.53125q0.28125 -0.671875 0.734375 -1.125q0.453125 -0.46875 1.03125 -0.71875q0.578125 -0.25 1.1875 -0.25q0.75 0 1.3125 0.265625q0.578125 0.265625 0.953125 0.734375q0.375 0.453125 0.5625 1.09375q0.1875 0.625 0.1875 1.359375l0 0.546875l-5.03125 0q0.03125 0.484375 0.1875 0.90625q0.171875 0.421875 0.453125 0.734375q0.296875 0.3125 0.6875 0.5q0.40625 0.171875 0.90625 0.171875q0.640625 0 1.140625 -0.25q0.5 -0.265625 0.828125 -0.6875l0.734375 0.5625q-0.171875 0.265625 -0.4375 0.515625q-0.265625 0.25 -0.609375 0.4374981q-0.34375 0.1875 -0.78125 0.296875q-0.4375 0.109375 -0.9375 0.109375zm-0.15625 -6.312498q-0.375 0 -0.703125 0.140625q-0.3125 0.125 -0.578125 0.390625q-0.265625 0.25 -0.453125 0.625q-0.171875 0.375 -0.234375 0.859375l3.78125 0l0 -0.078125q-0.015625 -0.359375 -0.140625 -0.703125q-0.109375 -0.34375 -0.328125 -0.609375q-0.21875 -0.28125 -0.5625 -0.453125q-0.328125 -0.171875 -0.78125 -0.171875z" fill-rule="nonzero"/><path fill="#cfe2f3" d="m25.164042 93.34646l125.98426 0l0 42.771645l-125.98426 0z" fill-rule="evenodd"/><path stroke="#000000" stroke-width="1.0" stroke-linejoin="round" stroke-linecap="butt" d="m25.164042 93.34646l125.98426 0l0 42.771645l-125.98426 0z" fill-rule="evenodd"/><path fill="#000000" d="m51.259907 116.09478q0 0.75 -0.1875 1.40625q-0.171875 0.65625 -0.53125 1.140625q-0.34375 0.46875 -0.859375 0.75q-0.515625 0.265625 -1.1875 0.265625q-0.671875 0 -1.171875 -0.234375q-0.5 -0.234375 -0.859375 -0.6875l-0.046875 0.796875l-1.109375 0l0 -10.0l1.203125 0l0 3.71875q0.34375 -0.4375 0.828125 -0.65625q0.484375 -0.234375 1.140625 -0.234375q0.671875 0 1.1875 0.265625q0.53125 0.265625 0.875 0.75q0.359375 0.46875 0.53125 1.140625q0.1875 0.65625 0.1875 1.4375l0 0.140625zm-1.203125 -0.140625q0 -0.515625 -0.109375 -0.984375q-0.09375 -0.46875 -0.3125 -0.8125q-0.21875 -0.359375 -0.578125 -0.5625q-0.359375 -0.21875 -0.875 -0.21875q-0.3125 0 -0.578125 0.09375q-0.25 0.078125 -0.46875 0.234375q-0.203125 0.140625 -0.359375 0.34375q-0.15625 0.1875 -0.265625 0.421875l0 3.078125q0.109375 0.234375 0.265625 0.4375q0.171875 0.1875 0.375 0.34375q0.21875 0.15625 0.46875 0.234375q0.265625 0.078125 0.578125 0.078125q0.484375 0 0.84375 -0.203125q0.359375 -0.203125 0.578125 -0.546875q0.234375 -0.359375 0.328125 -0.8125q0.109375 -0.46875 0.109375 -0.984375l0 -0.140625zm7.810684 2.609375q-0.359375 0.515625 -0.890625 0.8125q-0.515625 0.28125 -1.203125 0.28125q-0.5625 0 -1.015625 -0.171875q-0.4375 -0.171875 -0.765625 -0.53125q-0.3125 -0.359375 -0.484375 -0.921875q-0.171875 -0.5625 -0.171875 -1.359375l0 -4.1875l1.203125 0l0 4.203125q0 0.578125 0.09375 0.953125q0.09375 0.375 0.265625 0.609375q0.1875 0.21875 0.453125 0.3125q0.265625 0.078125 0.609375 0.078125q0.734375 0 1.1875 -0.296875q0.453125 -0.296875 0.671875 -0.796875l0 -5.0625l1.203125 0l0 7.046875l-1.09375 0l-0.0625 -0.96875zm3.6231842 -6.078125l3.5937462 0l0 6.0l2.296875 0l0 1.046875l-5.890621 0l0 -1.046875l2.390625 0l0 -4.953125l-2.390625 0l0 -1.046875zm2.234375 -1.84375q0 -0.296875 0.171875 -0.5q0.18749619 -0.203125 0.5468712 -0.203125q0.359375 0 0.53125 0.203125q0.1875 0.203125 0.1875 0.5q0 0.296875 -0.1875 0.5q-0.171875 0.1875 -0.53125 0.1875q-0.359375 0 -0.5468712 -0.1875q-0.171875 -0.203125 -0.171875 -0.5zm5.7638054 -1.109375l3.59375 0l0 8.953125l2.296875 0l0 1.046875l-5.890625 0l0 -1.046875l2.390625 0l0 -7.90625l-2.390625 0l0 -1.046875zm7.576309 6.421875q0 -0.78125 0.1875 -1.4375q0.203125 -0.671875 0.5625 -1.140625q0.375 -0.484375 0.890625 -0.75q0.53125 -0.265625 1.171875 -0.265625q0.640625 0 1.109375 0.21875q0.46875 0.203125 0.8125 0.609375l0 -3.65625l1.203125 0l0 10.0l-1.109375 0l-0.046875 -0.734375q-0.34375 0.421875 -0.84375 0.640625q-0.484375 0.21875 -1.140625 0.21875q-0.625 0 -1.15625 -0.265625q-0.515625 -0.28125 -0.875 -0.75q-0.359375 -0.484375 -0.5625 -1.140625q-0.203125 -0.65625 -0.203125 -1.40625l0 -0.140625zm1.203125 0.140625q0 0.515625 0.109375 0.984375q0.109375 0.453125 0.34375 0.8125q0.234375 0.34375 0.578125 0.546875q0.359375 0.203125 0.875 0.203125q0.296875 0 0.546875 -0.0625q0.25 -0.078125 0.453125 -0.203125q0.203125 -0.140625 0.359375 -0.328125q0.15625 -0.1875 0.265625 -0.421875l0 -3.265625q-0.234375 -0.421875 -0.640625 -0.703125q-0.390625 -0.28125 -0.984375 -0.28125q-0.5 0 -0.859375 0.21875q-0.359375 0.203125 -0.59375 0.5625q-0.234375 0.34375 -0.34375 0.8125q-0.109375 0.46875 -0.109375 0.984375l0 0.140625zm15.215118 -3.609375l3.59375 0l0 6.0l2.296875 0l0 1.046875l-5.890625 0l0 -1.046875l2.390625 0l0 -4.953125l-2.390625 0l0 -1.046875zm2.234375 -1.84375q0 -0.296875 0.171875 -0.5q0.1875 -0.203125 0.546875 -0.203125q0.359375 0 0.53125 0.203125q0.1875 0.203125 0.1875 0.5q0 0.296875 -0.1875 0.5q-0.171875 0.1875 -0.53125 0.1875q-0.359375 0 -0.546875 -0.1875q-0.171875 -0.203125 -0.171875 -0.5zm6.123184 1.84375l0.03125 0.671875q0.21875 -0.375 0.5625 -0.578125q0.34375 -0.21875 0.84375 -0.21875q0.96875 0 1.296875 0.75q0.203125 -0.328125 0.546875 -0.53125q0.34375 -0.21875 0.828125 -0.21875q0.78125 0 1.1875 0.484375q0.421875 0.46875 0.421875 1.421875l0 5.265625l-1.140625 0l0 -5.265625q0 -0.890625 -0.8125 -0.890625q-0.21875 0 -0.375 0.0625q-0.15625 0.0625 -0.265625 0.171875q-0.09375 0.09375 -0.15625 0.234375q-0.0625 0.125 -0.078125 0.265625l0 5.421875l-1.15625 0l0 -5.28125q0 -0.421875 -0.1875 -0.640625q-0.1875 -0.234375 -0.59375 -0.234375q-0.375 0 -0.59375 0.15625q-0.203125 0.15625 -0.296875 0.390625l0 5.609375l-1.140625 0l0 -7.046875l1.078125 0zm12.076309 7.046875q-0.078125 -0.140625 -0.125 -0.34375q-0.03125 -0.203125 -0.0625 -0.421875q-0.171875 0.1875 -0.40625 0.34375q-0.21875 0.15625 -0.5 0.28125q-0.265625 0.125 -0.578125 0.1875q-0.296875 0.078125 -0.640625 0.078125q-0.5625 0 -1.015625 -0.15625q-0.453125 -0.15625 -0.765625 -0.4375q-0.3125 -0.28125 -0.484375 -0.65625q-0.171875 -0.390625 -0.171875 -0.828125q0 -0.578125 0.234375 -1.015625q0.234375 -0.4375 0.65625 -0.71875q0.421875 -0.296875 1.015625 -0.4375q0.59375 -0.140625 1.328125 -0.140625l1.3125 0l0 -0.5625q0 -0.3125 -0.125 -0.5625q-0.109375 -0.265625 -0.328125 -0.4375q-0.203125 -0.171875 -0.515625 -0.265625q-0.3125 -0.109375 -0.703125 -0.109375q-0.34375 0 -0.640625 0.09375q-0.28125 0.09375 -0.484375 0.25q-0.1875 0.140625 -0.296875 0.34375q-0.09375 0.203125 -0.09375 0.421875l-1.21875 0q0.015625 -0.375 0.203125 -0.75q0.1875 -0.375 0.546875 -0.671875q0.359375 -0.296875 0.875 -0.46875q0.53125 -0.1875 1.1875 -0.1875q0.59375 0 1.109375 0.15625q0.515625 0.140625 0.890625 0.4375q0.375 0.296875 0.578125 0.734375q0.21875 0.4375 0.21875 1.03125l0 3.28125q0 0.34375 0.0625 0.75q0.0625 0.390625 0.1875 0.671875l0 0.109375l-1.25 0zm-2.140625 -0.921875q0.359375 0 0.65625 -0.078125q0.3125 -0.09375 0.5625 -0.25q0.25 -0.15625 0.421875 -0.34375q0.1875 -0.1875 0.296875 -0.390625l0 -1.4375l-1.125 0q-1.046875 0 -1.640625 0.3125q-0.578125 0.3125 -0.578125 0.984375q0 0.265625 0.078125 0.484375q0.09375 0.21875 0.265625 0.390625q0.1875 0.15625 0.453125 0.25q0.265625 0.078125 0.609375 0.078125zm5.279434 -2.65625q0 -0.78125 0.1875 -1.4375q0.203125 -0.671875 0.5625 -1.140625q0.375 -0.484375 0.890625 -0.75q0.515625 -0.265625 1.171875 -0.265625q0.65625 0 1.140625 0.234375q0.5 0.234375 0.84375 0.65625l0.0625 -0.765625l1.09375 0l0 6.890625q0 0.703125 -0.21875 1.234375q-0.21875 0.546875 -0.625 0.921875q-0.390625 0.375 -0.9375 0.5625q-0.546875 0.203125 -1.203125 0.203125q-0.28125 0 -0.640625 -0.0625q-0.34375 -0.046875 -0.703125 -0.1875q-0.359375 -0.140625 -0.703125 -0.375q-0.328125 -0.234375 -0.5625 -0.578125l0.625 -0.734375q0.21875 0.265625 0.453125 0.453125q0.234375 0.1875 0.46875 0.296875q0.25 0.109375 0.484375 0.15625q0.25 0.0625 0.484375 0.0625q0.421875 0 0.765625 -0.125q0.359375 -0.125 0.59375 -0.375q0.25 -0.234375 0.375 -0.59375q0.140625 -0.34375 0.140625 -0.796875l0 -0.609375q-0.359375 0.40625 -0.84375 0.625q-0.46875 0.203125 -1.109375 0.203125q-0.640625 0 -1.15625 -0.265625q-0.515625 -0.28125 -0.890625 -0.75q-0.359375 -0.484375 -0.5625 -1.140625q-0.1875 -0.65625 -0.1875 -1.40625l0 -0.140625zm1.203125 0.140625q0 0.515625 0.109375 0.984375q0.109375 0.453125 0.34375 0.8125q0.234375 0.34375 0.578125 0.546875q0.359375 0.203125 0.875 0.203125q0.3125 0 0.5625 -0.078125q0.25 -0.078125 0.4375 -0.203125q0.203125 -0.140625 0.359375 -0.328125q0.15625 -0.1875 0.28125 -0.421875l0 -3.21875q-0.125 -0.234375 -0.28125 -0.40625q-0.15625 -0.1875 -0.359375 -0.3125q-0.203125 -0.140625 -0.453125 -0.21875q-0.234375 -0.078125 -0.546875 -0.078125q-0.5 0 -0.859375 0.21875q-0.359375 0.203125 -0.59375 0.5625q-0.234375 0.34375 -0.34375 0.8125q-0.109375 0.46875 -0.109375 0.984375l0 0.140625zm10.138809 3.5625q-0.75 0 -1.375 -0.25q-0.609375 -0.25 -1.0625 -0.703125q-0.4375 -0.453125 -0.6875 -1.078125q-0.25 -0.625 -0.25 -1.375l0 -0.265625q0 -0.859375 0.265625 -1.53125q0.28125 -0.671875 0.734375 -1.125q0.453125 -0.46875 1.03125 -0.71875q0.578125 -0.25 1.1875 -0.25q0.75 0 1.3125 0.265625q0.578125 0.265625 0.953125 0.734375q0.375 0.453125 0.5625 1.09375q0.1875 0.625 0.1875 1.359375l0 0.546875l-5.03125 0q0.03125 0.484375 0.1875 0.90625q0.171875 0.421875 0.453125 0.734375q0.296875 0.3125 0.6875 0.5q0.40625 0.171875 0.90625 0.171875q0.640625 0 1.140625 -0.25q0.5 -0.265625 0.828125 -0.6875l0.734375 0.5625q-0.171875 0.265625 -0.4375 0.515625q-0.265625 0.25 -0.609375 0.4375q-0.34375 0.1875 -0.78125 0.296875q-0.4375 0.109375 -0.9375 0.109375zm-0.15625 -6.3125q-0.375 0 -0.703125 0.140625q-0.3125 0.125 -0.578125 0.390625q-0.265625 0.25 -0.453125 0.625q-0.171875 0.375 -0.234375 0.859375l3.78125 0l0 -0.078125q-0.015625 -0.359375 -0.140625 -0.703125q-0.109375 -0.34375 -0.328125 -0.609375q-0.21875 -0.28125 -0.5625 -0.453125q-0.328125 -0.171875 -0.78125 -0.171875z" fill-rule="nonzero"/><path fill="#fff2cc" d="m25.164042 52.996063l125.98426 0l0 21.385826l-125.98426 0z" fill-rule="evenodd"/><path stroke="#000000" stroke-width="1.0" stroke-linejoin="round" stroke-linecap="butt" d="m25.164042 52.996063l125.98426 0l0 21.385826l-125.98426 0z" fill-rule="evenodd"/><path fill="#000000" d="m51.259907 65.051476q0 0.75 -0.1875 1.40625q-0.171875 0.65625 -0.53125 1.140625q-0.34375 0.46875 -0.859375 0.75q-0.515625 0.265625 -1.1875 0.265625q-0.671875 0 -1.171875 -0.234375q-0.5 -0.234375 -0.859375 -0.6875l-0.046875 0.796875l-1.109375 0l0 -10.0l1.203125 0l0 3.71875q0.34375 -0.4375 0.828125 -0.65625q0.484375 -0.234375 1.140625 -0.234375q0.671875 0 1.1875 0.265625q0.53125 0.265625 0.875 0.75q0.359375 0.46875 0.53125 1.140625q0.1875 0.65625 0.1875 1.4375l0 0.140625zm-1.203125 -0.140625q0 -0.515625 -0.109375 -0.984375q-0.09375 -0.46875 -0.3125 -0.8125q-0.21875 -0.359375 -0.578125 -0.5625q-0.359375 -0.21875 -0.875 -0.21875q-0.3125 0 -0.578125 0.09375q-0.25 0.078125 -0.46875 0.234375q-0.203125 0.140625 -0.359375 0.34375q-0.15625 0.1875 -0.265625 0.421875l0 3.078125q0.109375 0.234375 0.265625 0.4375q0.171875 0.1875 0.375 0.34375q0.21875 0.15625 0.46875 0.234375q0.265625 0.078125 0.578125 0.078125q0.484375 0 0.84375 -0.203125q0.359375 -0.203125 0.578125 -0.546875q0.234375 -0.359375 0.328125 -0.8125q0.109375 -0.46875 0.109375 -0.984375l0 -0.140625zm7.810684 2.609375q-0.359375 0.515625 -0.890625 0.8125q-0.515625 0.28125 -1.203125 0.28125q-0.5625 0 -1.015625 -0.171875q-0.4375 -0.171875 -0.765625 -0.53125q-0.3125 -0.359375 -0.484375 -0.921875q-0.171875 -0.5625 -0.171875 -1.359375l0 -4.1875l1.203125 0l0 4.203125q0 0.578125 0.09375 0.953125q0.09375 0.375 0.265625 0.609375q0.1875 0.21875 0.453125 0.3125q0.265625 0.078125 0.609375 0.078125q0.734375 0 1.1875 -0.296875q0.453125 -0.296875 0.671875 -0.796875l0 -5.0625l1.203125 0l0 7.046875l-1.09375 0l-0.0625 -0.96875zm3.6231842 -6.078125l3.5937462 0l0 6.0l2.296875 0l0 1.046875l-5.890621 0l0 -1.046875l2.390625 0l0 -4.953125l-2.390625 0l0 -1.046875zm2.234375 -1.84375q0 -0.296875 0.171875 -0.5q0.18749619 -0.203125 0.5468712 -0.203125q0.359375 0 0.53125 0.203125q0.1875 0.203125 0.1875 0.5q0 0.296875 -0.1875 0.5q-0.171875 0.1875 -0.53125 0.1875q-0.359375 0 -0.5468712 -0.1875q-0.171875 -0.203125 -0.171875 -0.5zm5.7638054 -1.109375l3.59375 0l0 8.953125l2.296875 0l0 1.046875l-5.890625 0l0 -1.046875l2.390625 0l0 -7.90625l-2.390625 0l0 -1.046875zm7.576309 6.421875q0 -0.78125 0.1875 -1.4375q0.203125 -0.671875 0.5625 -1.140625q0.375 -0.484375 0.890625 -0.75q0.53125 -0.265625 1.171875 -0.265625q0.640625 0 1.109375 0.21875q0.46875 0.203125 0.8125 0.609375l0 -3.65625l1.203125 0l0 10.0l-1.109375 0l-0.046875 -0.734375q-0.34375 0.421875 -0.84375 0.640625q-0.484375 0.21875 -1.140625 0.21875q-0.625 0 -1.15625 -0.265625q-0.515625 -0.28125 -0.875 -0.75q-0.359375 -0.484375 -0.5625 -1.140625q-0.203125 -0.65625 -0.203125 -1.40625l0 -0.140625zm1.203125 0.140625q0 0.515625 0.109375 0.984375q0.109375 0.453125 0.34375 0.8125q0.234375 0.34375 0.578125 0.546875q0.359375 0.203125 0.875 0.203125q0.296875 0 0.546875 -0.0625q0.25 -0.078125 0.453125 -0.203125q0.203125 -0.140625 0.359375 -0.328125q0.15625 -0.1875 0.265625 -0.421875l0 -3.265625q-0.234375 -0.421875 -0.640625 -0.703125q-0.390625 -0.28125 -0.984375 -0.28125q-0.5 0 -0.859375 0.21875q-0.359375 0.203125 -0.59375 0.5625q-0.234375 0.34375 -0.34375 0.8125q-0.109375 0.46875 -0.109375 0.984375l0 0.140625zm12.966934 0q0 0.75 -0.1875 1.40625q-0.1875 0.65625 -0.546875 1.140625q-0.34375 0.46875 -0.859375 0.75q-0.515625 0.265625 -1.171875 0.265625q-0.65625 0 -1.140625 -0.203125q-0.484375 -0.203125 -0.84375 -0.59375l0 3.375l-1.203125 0l0 -9.75l1.09375 0l0.0625 0.765625q0.359375 -0.421875 0.84375 -0.65625q0.5 -0.234375 1.15625 -0.234375q0.6875 0 1.203125 0.265625q0.515625 0.265625 0.859375 0.75q0.359375 0.46875 0.546875 1.140625q0.1875 0.65625 0.1875 1.4375l0 0.140625zm-1.203125 -0.140625q0 -0.515625 -0.125 -0.984375q-0.109375 -0.46875 -0.34375 -0.8125q-0.234375 -0.359375 -0.609375 -0.5625q-0.359375 -0.21875 -0.859375 -0.21875q-0.59375 0 -0.984375 0.28125q-0.390625 0.265625 -0.625 0.6875l0 3.390625q0.234375 0.421875 0.625 0.6875q0.390625 0.25 0.984375 0.25q0.5 0 0.859375 -0.203125q0.375 -0.21875 0.609375 -0.5625q0.234375 -0.359375 0.34375 -0.828125q0.125 -0.46875 0.125 -0.984375l0 -0.140625zm7.888809 3.578125q-0.078125 -0.140625 -0.125 -0.34375q-0.03125 -0.203125 -0.0625 -0.421875q-0.171875 0.1875 -0.40625 0.34375q-0.21875 0.15625 -0.5 0.28125q-0.265625 0.125 -0.578125 0.1875q-0.296875 0.078125 -0.640625 0.078125q-0.5625 0 -1.015625 -0.15625q-0.453125 -0.15625 -0.765625 -0.4375q-0.3125 -0.28125 -0.484375 -0.65625q-0.171875 -0.390625 -0.171875 -0.828125q0 -0.578125 0.234375 -1.015625q0.234375 -0.4375 0.65625 -0.71875q0.421875 -0.296875 1.015625 -0.4375q0.59375 -0.140625 1.328125 -0.140625l1.3125 0l0 -0.5625q0 -0.3125 -0.125 -0.5625q-0.109375 -0.265625 -0.328125 -0.4375q-0.203125 -0.171875 -0.515625 -0.265625q-0.3125 -0.109375 -0.703125 -0.109375q-0.34375 0 -0.640625 0.09375q-0.28125 0.09375 -0.484375 0.25q-0.1875 0.140625 -0.296875 0.34375q-0.09375 0.203125 -0.09375 0.421875l-1.21875 0q0.015625 -0.375 0.203125 -0.75q0.1875 -0.375 0.546875 -0.671875q0.359375 -0.296875 0.875 -0.46875q0.53125 -0.1875 1.1875 -0.1875q0.59375 0 1.109375 0.15625q0.515625 0.140625 0.890625 0.4375q0.375 0.296875 0.578125 0.734375q0.21875 0.4375 0.21875 1.03125l0 3.28125q0 0.34375 0.0625 0.75q0.0625 0.390625 0.1875 0.671875l0 0.109375l-1.25 0zm-2.140625 -0.921875q0.359375 0 0.65625 -0.078125q0.3125 -0.09375 0.5625 -0.25q0.25 -0.15625 0.421875 -0.34375q0.1875 -0.1875 0.296875 -0.390625l0 -1.4375l-1.125 0q-1.046875 0 -1.640625 0.3125q-0.578125 0.3125 -0.578125 0.984375q0 0.265625 0.078125 0.484375q0.09375 0.21875 0.265625 0.390625q0.1875 0.15625 0.453125 0.25q0.265625 0.078125 0.609375 0.078125zm8.498184 0.078125q0.328125 0 0.640625 -0.09375q0.3125 -0.109375 0.546875 -0.296875q0.25 -0.1875 0.390625 -0.4375q0.140625 -0.25 0.15625 -0.546875l1.140625 0q-0.015625 0.46875 -0.25 0.90625q-0.234375 0.421875 -0.640625 0.75q-0.390625 0.3125 -0.90625 0.5q-0.515625 0.1875 -1.078125 0.1875q-0.796875 0 -1.390625 -0.28125q-0.59375 -0.28125 -1.0 -0.765625q-0.40625 -0.484375 -0.609375 -1.125q-0.1875 -0.640625 -0.1875 -1.34375l0 -0.265625q0 -0.703125 0.1875 -1.328125q0.203125 -0.640625 0.609375 -1.125q0.40625 -0.484375 1.0 -0.765625q0.59375 -0.296875 1.390625 -0.296875q0.625 0 1.15625 0.203125q0.53125 0.1875 0.90625 0.53125q0.375 0.34375 0.59375 0.8125q0.21875 0.46875 0.21875 1.0l-1.140625 0q-0.015625 -0.3125 -0.15625 -0.59375q-0.125 -0.28125 -0.359375 -0.5q-0.21875 -0.21875 -0.53125 -0.34375q-0.3125 -0.125 -0.6875 -0.125q-0.546875 0 -0.9375 0.234375q-0.375 0.21875 -0.609375 0.578125q-0.234375 0.359375 -0.34375 0.8125q-0.09375 0.453125 -0.09375 0.90625l0 0.265625q0 0.46875 0.09375 0.921875q0.109375 0.453125 0.34375 0.8125q0.234375 0.359375 0.609375 0.59375q0.375 0.21875 0.9375 0.21875zm7.107559 -2.4375l-0.875 0.84375l0 2.4375l-1.21875 0l0 -10.0l1.21875 0l0 6.125l0.78125 -0.84375l2.3125 -2.328125l1.46875 0l-2.859375 2.9375l3.296875 4.109375l-1.53125 0l-2.59375 -3.28125zm17.793243 3.28125l-1.203125 0l0 -7.9375l-2.46875 0.9375l0 -1.09375l3.578125 -1.375l0.09375 0l0 9.46875z" fill-rule="nonzero"/><path fill="#d9ead3" d="m25.164042 74.3832l125.98426 0l0 21.385826l-125.98426 0z" fill-rule="evenodd"/><path stroke="#000000" stroke-width="1.0" stroke-linejoin="round" stroke-linecap="butt" d="m25.164042 74.3832l125.98426 0l0 21.385826l-125.98426 0z" fill-rule="evenodd"/><path fill="#000000" d="m51.259907 86.438614q0 0.75 -0.1875 1.40625q-0.171875 0.65625 -0.53125 1.140625q-0.34375 0.46875 -0.859375 0.75q-0.515625 0.265625 -1.1875 0.265625q-0.671875 0 -1.171875 -0.234375q-0.5 -0.234375 -0.859375 -0.6875l-0.046875 0.796875l-1.109375 0l0 -10.0l1.203125 0l0 3.71875q0.34375 -0.4375 0.828125 -0.65625q0.484375 -0.234375 1.140625 -0.234375q0.671875 0 1.1875 0.265625q0.53125 0.265625 0.875 0.75q0.359375 0.46875 0.53125 1.140625q0.1875 0.65625 0.1875 1.4375l0 0.140625zm-1.203125 -0.140625q0 -0.515625 -0.109375 -0.984375q-0.09375 -0.46875 -0.3125 -0.8125q-0.21875 -0.359375 -0.578125 -0.5625q-0.359375 -0.21875 -0.875 -0.21875q-0.3125 0 -0.578125 0.09375q-0.25 0.078125 -0.46875 0.234375q-0.203125 0.140625 -0.359375 0.34375q-0.15625 0.1875 -0.265625 0.421875l0 3.078125q0.109375 0.234375 0.265625 0.4375q0.171875 0.1875 0.375 0.34375q0.21875 0.15625 0.46875 0.234375q0.265625 0.078125 0.578125 0.078125q0.484375 0 0.84375 -0.203125q0.359375 -0.203125 0.578125 -0.546875q0.234375 -0.359375 0.328125 -0.8125q0.109375 -0.46875 0.109375 -0.984375l0 -0.140625zm7.810684 2.609375q-0.359375 0.515625 -0.890625 0.8125q-0.515625 0.28125 -1.203125 0.28125q-0.5625 0 -1.015625 -0.171875q-0.4375 -0.171875 -0.765625 -0.53125q-0.3125 -0.359375 -0.484375 -0.921875q-0.171875 -0.5625 -0.171875 -1.359375l0 -4.1875l1.203125 0l0 4.203125q0 0.578125 0.09375 0.953125q0.09375 0.375 0.265625 0.609375q0.1875 0.21875 0.453125 0.3125q0.265625 0.078125 0.609375 0.078125q0.734375 0 1.1875 -0.296875q0.453125 -0.296875 0.671875 -0.796875l0 -5.0625l1.203125 0l0 7.046875l-1.09375 0l-0.0625 -0.96875zm3.6231842 -6.078125l3.5937462 0l0 6.0l2.296875 0l0 1.046875l-5.890621 0l0 -1.046875l2.390625 0l0 -4.953125l-2.390625 0l0 -1.046875zm2.234375 -1.84375q0 -0.296875 0.171875 -0.5q0.18749619 -0.203125 0.5468712 -0.203125q0.359375 0 0.53125 0.203125q0.1875 0.203125 0.1875 0.5q0 0.296875 -0.1875 0.5q-0.171875 0.1875 -0.53125 0.1875q-0.359375 0 -0.5468712 -0.1875q-0.171875 -0.203125 -0.171875 -0.5zm5.7638054 -1.109375l3.59375 0l0 8.953125l2.296875 0l0 1.046875l-5.890625 0l0 -1.046875l2.390625 0l0 -7.90625l-2.390625 0l0 -1.046875zm7.576309 6.421875q0 -0.78125 0.1875 -1.4375q0.203125 -0.671875 0.5625 -1.140625q0.375 -0.484375 0.890625 -0.75q0.53125 -0.265625 1.171875 -0.265625q0.640625 0 1.109375 0.21875q0.46875 0.203125 0.8125 0.609375l0 -3.65625l1.203125 0l0 10.0l-1.109375 0l-0.046875 -0.734375q-0.34375 0.421875 -0.84375 0.640625q-0.484375 0.21875 -1.140625 0.21875q-0.625 0 -1.15625 -0.265625q-0.515625 -0.28125 -0.875 -0.75q-0.359375 -0.484375 -0.5625 -1.140625q-0.203125 -0.65625 -0.203125 -1.40625l0 -0.140625zm1.203125 0.140625q0 0.515625 0.109375 0.984375q0.109375 0.453125 0.34375 0.8125q0.234375 0.34375 0.578125 0.546875q0.359375 0.203125 0.875 0.203125q0.296875 0 0.546875 -0.0625q0.25 -0.078125 0.453125 -0.203125q0.203125 -0.140625 0.359375 -0.328125q0.15625 -0.1875 0.265625 -0.421875l0 -3.265625q-0.234375 -0.421875 -0.640625 -0.703125q-0.390625 -0.28125 -0.984375 -0.28125q-0.5 0 -0.859375 0.21875q-0.359375 0.203125 -0.59375 0.5625q-0.234375 0.34375 -0.34375 0.8125q-0.109375 0.46875 -0.109375 0.984375l0 0.140625zm12.966934 0q0 0.75 -0.1875 1.40625q-0.1875 0.65625 -0.546875 1.140625q-0.34375 0.46875 -0.859375 0.75q-0.515625 0.265625 -1.171875 0.265625q-0.65625 0 -1.140625 -0.203125q-0.484375 -0.203125 -0.84375 -0.59375l0 3.375l-1.203125 0l0 -9.75l1.09375 0l0.0625 0.765625q0.359375 -0.421875 0.84375 -0.65625q0.5 -0.234375 1.15625 -0.234375q0.6875 0 1.203125 0.265625q0.515625 0.265625 0.859375 0.75q0.359375 0.46875 0.546875 1.140625q0.1875 0.65625 0.1875 1.4375l0 0.140625zm-1.203125 -0.140625q0 -0.515625 -0.125 -0.984375q-0.109375 -0.46875 -0.34375 -0.8125q-0.234375 -0.359375 -0.609375 -0.5625q-0.359375 -0.21875 -0.859375 -0.21875q-0.59375 0 -0.984375 0.28125q-0.390625 0.265625 -0.625 0.6875l0 3.390625q0.234375 0.421875 0.625 0.6875q0.390625 0.25 0.984375 0.25q0.5 0 0.859375 -0.203125q0.375 -0.21875 0.609375 -0.5625q0.234375 -0.359375 0.34375 -0.828125q0.125 -0.46875 0.125 -0.984375l0 -0.140625zm7.888809 3.578125q-0.078125 -0.140625 -0.125 -0.34375q-0.03125 -0.203125 -0.0625 -0.421875q-0.171875 0.1875 -0.40625 0.34375q-0.21875 0.15625 -0.5 0.28125q-0.265625 0.125 -0.578125 0.1875q-0.296875 0.078125 -0.640625 0.078125q-0.5625 0 -1.015625 -0.15625q-0.453125 -0.15625 -0.765625 -0.4375q-0.3125 -0.28125 -0.484375 -0.65625q-0.171875 -0.390625 -0.171875 -0.828125q0 -0.578125 0.234375 -1.015625q0.234375 -0.4375 0.65625 -0.71875q0.421875 -0.296875 1.015625 -0.4375q0.59375 -0.140625 1.328125 -0.140625l1.3125 0l0 -0.5625q0 -0.3125 -0.125 -0.5625q-0.109375 -0.265625 -0.328125 -0.4375q-0.203125 -0.171875 -0.515625 -0.265625q-0.3125 -0.109375 -0.703125 -0.109375q-0.34375 0 -0.640625 0.09375q-0.28125 0.09375 -0.484375 0.25q-0.1875 0.140625 -0.296875 0.34375q-0.09375 0.203125 -0.09375 0.421875l-1.21875 0q0.015625 -0.375 0.203125 -0.75q0.1875 -0.375 0.546875 -0.671875q0.359375 -0.296875 0.875 -0.46875q0.53125 -0.1875 1.1875 -0.1875q0.59375 0 1.109375 0.15625q0.515625 0.140625 0.890625 0.4375q0.375 0.296875 0.578125 0.734375q0.21875 0.4375 0.21875 1.03125l0 3.28125q0 0.34375 0.0625 0.75q0.0625 0.390625 0.1875 0.671875l0 0.109375l-1.25 0zm-2.140625 -0.921875q0.359375 0 0.65625 -0.078125q0.3125 -0.09375 0.5625 -0.25q0.25 -0.15625 0.421875 -0.34375q0.1875 -0.1875 0.296875 -0.390625l0 -1.4375l-1.125 0q-1.046875 0 -1.640625 0.3125q-0.578125 0.3125 -0.578125 0.984375q0 0.265625 0.078125 0.484375q0.09375 0.21875 0.265625 0.390625q0.1875 0.15625 0.453125 0.25q0.265625 0.078125 0.609375 0.078125zm8.498184 0.078125q0.328125 0 0.640625 -0.09375q0.3125 -0.109375 0.546875 -0.296875q0.25 -0.1875 0.390625 -0.4375q0.140625 -0.25 0.15625 -0.546875l1.140625 0q-0.015625 0.46875 -0.25 0.90625q-0.234375 0.421875 -0.640625 0.75q-0.390625 0.3125 -0.90625 0.5q-0.515625 0.1875 -1.078125 0.1875q-0.796875 0 -1.390625 -0.28125q-0.59375 -0.28125 -1.0 -0.765625q-0.40625 -0.484375 -0.609375 -1.125q-0.1875 -0.640625 -0.1875 -1.34375l0 -0.265625q0 -0.703125 0.1875 -1.328125q0.203125 -0.640625 0.609375 -1.125q0.40625 -0.484375 1.0 -0.765625q0.59375 -0.296875 1.390625 -0.296875q0.625 0 1.15625 0.203125q0.53125 0.1875 0.90625 0.53125q0.375 0.34375 0.59375 0.8125q0.21875 0.46875 0.21875 1.0l-1.140625 0q-0.015625 -0.3125 -0.15625 -0.59375q-0.125 -0.28125 -0.359375 -0.5q-0.21875 -0.21875 -0.53125 -0.34375q-0.3125 -0.125 -0.6875 -0.125q-0.546875 0 -0.9375 0.234375q-0.375 0.21875 -0.609375 0.578125q-0.234375 0.359375 -0.34375 0.8125q-0.09375 0.453125 -0.09375 0.90625l0 0.265625q0 0.46875 0.09375 0.921875q0.109375 0.453125 0.34375 0.8125q0.234375 0.359375 0.609375 0.59375q0.375 0.21875 0.9375 0.21875zm7.107559 -2.4375l-0.875 0.84375l0 2.4375l-1.21875 0l0 -10.0l1.21875 0l0 6.125l0.78125 -0.84375l2.3125 -2.328125l1.46875 0l-2.859375 2.9375l3.296875 4.109375l-1.53125 0l-2.59375 -3.28125zm19.699493 3.28125l-6.203125 0l0 -0.859375l3.109375 -3.453125q0.40625 -0.46875 0.6875 -0.828125q0.28125 -0.359375 0.453125 -0.65625q0.171875 -0.296875 0.234375 -0.5625q0.078125 -0.28125 0.078125 -0.5625q0 -0.359375 -0.125 -0.65625q-0.109375 -0.3125 -0.328125 -0.53125q-0.203125 -0.234375 -0.515625 -0.359375q-0.3125 -0.140625 -0.703125 -0.140625q-0.46875 0 -0.828125 0.140625q-0.34375 0.125 -0.578125 0.375q-0.234375 0.25 -0.34375 0.609375q-0.109375 0.359375 -0.109375 0.796875l-1.21875 0q0 -0.59375 0.203125 -1.125q0.21875 -0.53125 0.609375 -0.921875q0.390625 -0.40625 0.953125 -0.640625q0.578125 -0.234375 1.3125 -0.234375q0.671875 0 1.203125 0.203125q0.546875 0.203125 0.90625 0.5625q0.375 0.34375 0.578125 0.828125q0.203125 0.46875 0.203125 1.046875q0 0.421875 -0.15625 0.828125q-0.140625 0.40625 -0.390625 0.8125q-0.234375 0.40625 -0.5625 0.8125q-0.3125 0.390625 -0.671875 0.78125l-2.546875 2.75l4.75 0l0 0.984375z" fill-rule="nonzero"/><path fill="#000000" fill-opacity="0.0" d="m261.5971 111.973755l-93.5748 0" fill-rule="evenodd"/><path stroke="#000000" stroke-width="1.0" stroke-linejoin="round" stroke-linecap="butt" d="m255.5971 111.973755l-87.5748 0" fill-rule="evenodd"/><path fill="#000000" stroke="#000000" stroke-width="1.0" stroke-linecap="butt" d="m255.5971 113.62549l4.5381165 -1.6517334l-4.5381165 -1.6517334z" fill-rule="evenodd"/><path fill="#000000" fill-opacity="0.0" d="m487.3399 -3.0E-4l133.25983 0l0 59.653545l-133.25983 0z" fill-rule="evenodd"/><path fill="#000000" d="m523.7436 34.62647q-0.078125 -0.140625 -0.125 -0.34375q-0.03125 -0.203125 -0.0625 -0.421875q-0.171875 0.1875 -0.40625 0.34375q-0.21875 0.15625 -0.5 0.28125q-0.265625 0.125 -0.578125 0.1875q-0.296875 0.078125 -0.640625 0.078125q-0.5625 0 -1.015625 -0.15625q-0.453125 -0.15625 -0.765625 -0.4375q-0.3125 -0.28125 -0.484375 -0.65625q-0.171875 -0.390625 -0.171875 -0.828125q0 -0.578125 0.234375 -1.0156231q0.234375 -0.4375 0.65625 -0.71875q0.421875 -0.296875 1.015625 -0.4375q0.59375 -0.140625 1.328125 -0.140625l1.3125 0l0 -0.5625q0 -0.3125 -0.125 -0.5625q-0.109375 -0.265625 -0.328125 -0.4375q-0.203125 -0.171875 -0.515625 -0.265625q-0.3125 -0.109375 -0.703125 -0.109375q-0.34375 0 -0.640625 0.09375q-0.28125 0.09375 -0.484375 0.25q-0.1875 0.140625 -0.296875 0.34375q-0.09375 0.203125 -0.09375 0.421875l-1.21875 0q0.015625 -0.375 0.203125 -0.75q0.1875 -0.375 0.546875 -0.671875q0.359375 -0.296875 0.875 -0.46875q0.53125 -0.1875 1.1875 -0.1875q0.59375 0 1.109375 0.15625q0.515625 0.140625 0.890625 0.4375q0.375 0.296875 0.578125 0.734375q0.21875 0.4375 0.21875 1.03125l0 3.281248q0 0.34375 0.0625 0.75q0.0625 0.390625 0.1875 0.671875l0 0.109375l-1.25 0zm-2.140625 -0.921875q0.359375 0 0.65625 -0.078125q0.3125 -0.09375 0.5625 -0.25q0.25 -0.15625 0.421875 -0.34375q0.1875 -0.1875 0.296875 -0.390625l0 -1.4374981l-1.125 0q-1.046875 0 -1.640625 0.3125q-0.578125 0.3125 -0.578125 0.9843731q0 0.265625 0.078125 0.484375q0.09375 0.21875 0.265625 0.390625q0.1875 0.15625 0.453125 0.25q0.265625 0.078125 0.609375 0.078125zm11.451355 -2.515623q0 0.75 -0.1875 1.4062481q-0.1875 0.65625 -0.546875 1.140625q-0.34375 0.46875 -0.859375 0.75q-0.515625 0.265625 -1.171875 0.265625q-0.65625 0 -1.140625 -0.203125q-0.484375 -0.203125 -0.84375 -0.59375l0 3.375l-1.203125 0l0 -9.749998l1.09375 0l0.0625 0.765625q0.359375 -0.421875 0.84375 -0.65625q0.5 -0.234375 1.15625 -0.234375q0.6875 0 1.203125 0.265625q0.515625 0.265625 0.859375 0.75q0.359375 0.46875 0.546875 1.140625q0.1875 0.65625 0.1875 1.4375l0 0.140625zm-1.203125 -0.140625q0 -0.515625 -0.125 -0.984375q-0.109375 -0.46875 -0.34375 -0.8125q-0.234375 -0.359375 -0.609375 -0.5625q-0.359375 -0.21875 -0.859375 -0.21875q-0.59375 0 -0.984375 0.28125q-0.390625 0.265625 -0.625 0.6875l0 3.390623q0.234375 0.421875 0.625 0.6875q0.390625 0.25 0.984375 0.25q0.5 0 0.859375 -0.203125q0.375 -0.21875 0.609375 -0.5625q0.234375 -0.359375 0.34375 -0.828125q0.125 -0.4687481 0.125 -0.9843731l0 -0.140625zm9.201294 0.140625q0 0.75 -0.1875 1.4062481q-0.1875 0.65625 -0.546875 1.140625q-0.34375 0.46875 -0.859375 0.75q-0.515625 0.265625 -1.171875 0.265625q-0.65625 0 -1.140625 -0.203125q-0.484375 -0.203125 -0.84375 -0.59375l0 3.375l-1.203125 0l0 -9.749998l1.09375 0l0.0625 0.765625q0.359375 -0.421875 0.84375 -0.65625q0.5 -0.234375 1.15625 -0.234375q0.6875 0 1.203125 0.265625q0.515625 0.265625 0.859375 0.75q0.359375 0.46875 0.546875 1.140625q0.1875 0.65625 0.1875 1.4375l0 0.140625zm-1.203125 -0.140625q0 -0.515625 -0.125 -0.984375q-0.109375 -0.46875 -0.34375 -0.8125q-0.234375 -0.359375 -0.609375 -0.5625q-0.359375 -0.21875 -0.859375 -0.21875q-0.59375 0 -0.984375 0.28125q-0.390625 0.265625 -0.625 0.6875l0 3.390623q0.234375 0.421875 0.625 0.6875q0.390625 0.25 0.984375 0.25q0.5 0 0.859375 -0.203125q0.375 -0.21875 0.609375 -0.5625q0.234375 -0.359375 0.34375 -0.828125q0.125 -0.4687481 0.125 -0.9843731l0 -0.140625zm11.449463 -3.46875l3.59375 0l0 5.999998l2.296875 0l0 1.046875l-5.890625 0l0 -1.046875l2.390625 0l0 -4.953123l-2.390625 0l0 -1.046875zm2.234375 -1.84375q0 -0.296875 0.171875 -0.5q0.1875 -0.203125 0.546875 -0.203125q0.359375 0 0.53125 0.203125q0.1875 0.203125 0.1875 0.5q0 0.296875 -0.1875 0.5q-0.171875 0.1875 -0.53125 0.1875q-0.359375 0 -0.546875 -0.1875q-0.171875 -0.203125 -0.171875 -0.5zm6.12323 1.84375l0.03125 0.671875q0.21875 -0.375 0.5625 -0.578125q0.34375 -0.21875 0.84375 -0.21875q0.96875 0 1.296875 0.75q0.203125 -0.328125 0.546875 -0.53125q0.34375 -0.21875 0.828125 -0.21875q0.78125 0 1.1875 0.484375q0.421875 0.46875 0.421875 1.421875l0 5.265623l-1.140625 0l0 -5.265623q0 -0.890625 -0.8125 -0.890625q-0.21875 0 -0.375 0.0625q-0.15625 0.0625 -0.265625 0.171875q-0.09375 0.09375 -0.15625 0.234375q-0.0625 0.125 -0.078125 0.265625l0 5.421873l-1.15625 0l0 -5.281248q0 -0.421875 -0.1875 -0.640625q-0.1875 -0.234375 -0.59375 -0.234375q-0.375 0 -0.59375 0.15625q-0.203125 0.15625 -0.296875 0.390625l0 5.609373l-1.140625 0l0 -7.046873l1.078125 0zm12.076294 7.046873q-0.078125 -0.140625 -0.125 -0.34375q-0.03125 -0.203125 -0.0625 -0.421875q-0.171875 0.1875 -0.40625 0.34375q-0.21875 0.15625 -0.5 0.28125q-0.265625 0.125 -0.578125 0.1875q-0.296875 0.078125 -0.640625 0.078125q-0.5625 0 -1.015625 -0.15625q-0.453125 -0.15625 -0.765625 -0.4375q-0.3125 -0.28125 -0.484375 -0.65625q-0.171875 -0.390625 -0.171875 -0.828125q0 -0.578125 0.234375 -1.0156231q0.234375 -0.4375 0.65625 -0.71875q0.421875 -0.296875 1.015625 -0.4375q0.59375 -0.140625 1.328125 -0.140625l1.3125 0l0 -0.5625q0 -0.3125 -0.125 -0.5625q-0.109375 -0.265625 -0.328125 -0.4375q-0.203125 -0.171875 -0.515625 -0.265625q-0.3125 -0.109375 -0.703125 -0.109375q-0.34375 0 -0.640625 0.09375q-0.28125 0.09375 -0.484375 0.25q-0.1875 0.140625 -0.296875 0.34375q-0.09375 0.203125 -0.09375 0.421875l-1.21875 0q0.015625 -0.375 0.203125 -0.75q0.1875 -0.375 0.546875 -0.671875q0.359375 -0.296875 0.875 -0.46875q0.53125 -0.1875 1.1875 -0.1875q0.59375 0 1.109375 0.15625q0.515625 0.140625 0.890625 0.4375q0.375 0.296875 0.578125 0.734375q0.21875 0.4375 0.21875 1.03125l0 3.281248q0 0.34375 0.0625 0.75q0.0625 0.390625 0.1875 0.671875l0 0.109375l-1.25 0zm-2.140625 -0.921875q0.359375 0 0.65625 -0.078125q0.3125 -0.09375 0.5625 -0.25q0.25 -0.15625 0.421875 -0.34375q0.1875 -0.1875 0.296875 -0.390625l0 -1.4374981l-1.125 0q-1.046875 0 -1.640625 0.3125q-0.578125 0.3125 -0.578125 0.9843731q0 0.265625 0.078125 0.484375q0.09375 0.21875 0.265625 0.390625q0.1875 0.15625 0.453125 0.25q0.265625 0.078125 0.609375 0.078125zm5.279419 -2.656248q0 -0.78125 0.1875 -1.4375q0.203125 -0.671875 0.5625 -1.140625q0.375 -0.484375 0.890625 -0.75q0.515625 -0.265625 1.171875 -0.265625q0.65625 0 1.140625 0.234375q0.5 0.234375 0.84375 0.65625l0.0625 -0.765625l1.09375 0l0 6.890623q0 0.703125 -0.21875 1.234375q-0.21875 0.546875 -0.625 0.921875q-0.390625 0.375 -0.9375 0.5625q-0.546875 0.203125 -1.203125 0.203125q-0.28125 0 -0.640625 -0.0625q-0.34375 -0.046875 -0.703125 -0.1875q-0.359375 -0.140625 -0.703125 -0.375q-0.328125 -0.234375 -0.5625 -0.578125l0.625 -0.734375q0.21875 0.265625 0.453125 0.453125q0.234375 0.1875 0.46875 0.296875q0.25 0.109375 0.484375 0.15625q0.25 0.0625 0.484375 0.0625q0.421875 0 0.765625 -0.125q0.359375 -0.125 0.59375 -0.375q0.25 -0.234375 0.375 -0.59375q0.140625 -0.34375 0.140625 -0.796875l0 -0.609375q-0.359375 0.40625 -0.84375 0.625q-0.46875 0.203125 -1.109375 0.203125q-0.640625 0 -1.15625 -0.265625q-0.515625 -0.28125 -0.890625 -0.75q-0.359375 -0.484375 -0.5625 -1.140625q-0.1875 -0.6562481 -0.1875 -1.4062481l0 -0.140625zm1.203125 0.140625q0 0.515625 0.109375 0.9843731q0.109375 0.453125 0.34375 0.8125q0.234375 0.34375 0.578125 0.546875q0.359375 0.203125 0.875 0.203125q0.3125 0 0.5625 -0.078125q0.25 -0.078125 0.4375 -0.203125q0.203125 -0.140625 0.359375 -0.328125q0.15625 -0.1875 0.28125 -0.421875l0 -3.218748q-0.125 -0.234375 -0.28125 -0.40625q-0.15625 -0.1875 -0.359375 -0.3125q-0.203125 -0.140625 -0.453125 -0.21875q-0.234375 -0.078125 -0.546875 -0.078125q-0.5 0 -0.859375 0.21875q-0.359375 0.203125 -0.59375 0.5625q-0.234375 0.34375 -0.34375 0.8125q-0.109375 0.46875 -0.109375 0.984375l0 0.140625zm10.138794 3.562498q-0.75 0 -1.375 -0.25q-0.609375 -0.25 -1.0625 -0.703125q-0.4375 -0.453125 -0.6875 -1.078125q-0.25 -0.625 -0.25 -1.3749981l0 -0.265625q0 -0.859375 0.265625 -1.53125q0.28125 -0.671875 0.734375 -1.125q0.453125 -0.46875 1.03125 -0.71875q0.578125 -0.25 1.1875 -0.25q0.75 0 1.3125 0.265625q0.578125 0.265625 0.953125 0.734375q0.375 0.453125 0.5625 1.09375q0.1875 0.625 0.1875 1.359375l0 0.546875l-5.03125 0q0.03125 0.484375 0.1875 0.9062481q0.171875 0.421875 0.453125 0.734375q0.296875 0.3125 0.6875 0.5q0.40625 0.171875 0.90625 0.171875q0.640625 0 1.140625 -0.25q0.5 -0.265625 0.828125 -0.6875l0.734375 0.5625q-0.171875 0.265625 -0.4375 0.515625q-0.265625 0.25 -0.609375 0.4375q-0.34375 0.1875 -0.78125 0.296875q-0.4375 0.109375 -0.9375 0.109375zm-0.15625 -6.312498q-0.375 0 -0.703125 0.140625q-0.3125 0.125 -0.578125 0.390625q-0.265625 0.25 -0.453125 0.625q-0.171875 0.375 -0.234375 0.859375l3.78125 0l0 -0.078125q-0.015625 -0.359375 -0.140625 -0.703125q-0.109375 -0.34375 -0.328125 -0.609375q-0.21875 -0.28125 -0.5625 -0.453125q-0.328125 -0.171875 -0.78125 -0.171875z" fill-rule="nonzero"/><path fill="#cfe2f3" d="m490.9777 178.88846l125.98422 0l0 42.771652l-125.98422 0z" fill-rule="evenodd"/><path stroke="#000000" stroke-width="1.0" stroke-linejoin="round" stroke-linecap="butt" d="m490.9777 178.88846l125.98422 0l0 42.771652l-125.98422 0z" fill-rule="evenodd"/><path fill="#000000" d="m523.72797 197.9024q0.171875 0 0.34375 0.015625q0.1875 0 0.34375 0.03125q0.171875 0.015625 0.3125 0.046875q0.140625 0.03125 0.234375 0.078125l-0.171875 1.171875q-0.34375 -0.078125 -0.65625 -0.109375q-0.3125 -0.03125 -0.65625 -0.03125q-0.859375 0 -1.390625 0.390625q-0.515625 0.375 -0.765625 1.0625l0 4.515625l-1.203125 0l0 -7.046875l1.140625 0l0.0625 1.125q0.4375 -0.578125 1.03125 -0.90625q0.609375 -0.34375 1.375 -0.34375zm7.951355 6.203125q-0.359375 0.515625 -0.890625 0.8125q-0.515625 0.28125 -1.203125 0.28125q-0.5625 0 -1.015625 -0.171875q-0.4375 -0.171875 -0.765625 -0.53125q-0.3125 -0.359375 -0.484375 -0.921875q-0.171875 -0.5625 -0.171875 -1.359375l0 -4.1875l1.203125 0l0 4.203125q0 0.578125 0.09375 0.953125q0.09375 0.375 0.265625 0.609375q0.1875 0.21875 0.453125 0.3125q0.265625 0.078125 0.609375 0.078125q0.734375 0 1.1875 -0.296875q0.453125 -0.296875 0.671875 -0.796875l0 -5.0625l1.203125 0l0 7.046875l-1.09375 0l-0.0625 -0.96875zm4.513794 -6.078125l0.078125 1.046875q0.390625 -0.546875 0.9375 -0.859375q0.5625 -0.3125 1.25 -0.3125q0.5625 0 1.015625 0.15625q0.453125 0.15625 0.765625 0.484375q0.328125 0.328125 0.5 0.84375q0.171875 0.515625 0.171875 1.21875l0 4.46875l-1.203125 0l0 -4.4375q0 -0.46875 -0.109375 -0.796875q-0.109375 -0.328125 -0.3125 -0.53125q-0.203125 -0.203125 -0.5 -0.296875q-0.296875 -0.09375 -0.6875 -0.09375q-0.59375 0 -1.0625 0.3125q-0.453125 0.296875 -0.71875 0.796875l0 5.046875l-1.21875 0l0 -7.046875l1.09375 0zm15.105713 0l3.59375 0l0 6.0l2.296875 0l0 1.046875l-5.890625 0l0 -1.046875l2.390625 0l0 -4.953125l-2.390625 0l0 -1.046875zm2.234375 -1.84375q0 -0.296875 0.171875 -0.5q0.1875 -0.203125 0.546875 -0.203125q0.359375 0 0.53125 0.203125q0.1875 0.203125 0.1875 0.5q0 0.296875 -0.1875 0.5q-0.171875 0.1875 -0.53125 0.1875q-0.359375 0 -0.546875 -0.1875q-0.171875 -0.203125 -0.171875 -0.5zm6.12323 1.84375l0.03125 0.671875q0.21875 -0.375 0.5625 -0.578125q0.34375 -0.21875 0.84375 -0.21875q0.96875 0 1.296875 0.75q0.203125 -0.328125 0.546875 -0.53125q0.34375 -0.21875 0.828125 -0.21875q0.78125 0 1.1875 0.484375q0.421875 0.46875 0.421875 1.421875l0 5.265625l-1.140625 0l0 -5.265625q0 -0.890625 -0.8125 -0.890625q-0.21875 0 -0.375 0.0625q-0.15625 0.0625 -0.265625 0.171875q-0.09375 0.09375 -0.15625 0.234375q-0.0625 0.125 -0.078125 0.265625l0 5.421875l-1.15625 0l0 -5.28125q0 -0.421875 -0.1875 -0.640625q-0.1875 -0.234375 -0.59375 -0.234375q-0.375 0 -0.59375 0.15625q-0.203125 0.15625 -0.296875 0.390625l0 5.609375l-1.140625 0l0 -7.046875l1.078125 0zm12.076294 7.046875q-0.078125 -0.140625 -0.125 -0.34375q-0.03125 -0.203125 -0.0625 -0.421875q-0.171875 0.1875 -0.40625 0.34375q-0.21875 0.15625 -0.5 0.28125q-0.265625 0.125 -0.578125 0.1875q-0.296875 0.078125 -0.640625 0.078125q-0.5625 0 -1.015625 -0.15625q-0.453125 -0.15625 -0.765625 -0.4375q-0.3125 -0.28125 -0.484375 -0.65625q-0.171875 -0.390625 -0.171875 -0.828125q0 -0.578125 0.234375 -1.015625q0.234375 -0.4375 0.65625 -0.71875q0.421875 -0.296875 1.015625 -0.4375q0.59375 -0.140625 1.328125 -0.140625l1.3125 0l0 -0.5625q0 -0.3125 -0.125 -0.5625q-0.109375 -0.265625 -0.328125 -0.4375q-0.203125 -0.171875 -0.515625 -0.265625q-0.3125 -0.109375 -0.703125 -0.109375q-0.34375 0 -0.640625 0.09375q-0.28125 0.09375 -0.484375 0.25q-0.1875 0.140625 -0.296875 0.34375q-0.09375 0.203125 -0.09375 0.421875l-1.21875 0q0.015625 -0.375 0.203125 -0.75q0.1875 -0.375 0.546875 -0.671875q0.359375 -0.296875 0.875 -0.46875q0.53125 -0.1875 1.1875 -0.1875q0.59375 0 1.109375 0.15625q0.515625 0.140625 0.890625 0.4375q0.375 0.296875 0.578125 0.734375q0.21875 0.4375 0.21875 1.03125l0 3.28125q0 0.34375 0.0625 0.75q0.0625 0.390625 0.1875 0.671875l0 0.109375l-1.25 0zm-2.140625 -0.921875q0.359375 0 0.65625 -0.078125q0.3125 -0.09375 0.5625 -0.25q0.25 -0.15625 0.421875 -0.34375q0.1875 -0.1875 0.296875 -0.390625l0 -1.4375l-1.125 0q-1.046875 0 -1.640625 0.3125q-0.578125 0.3125 -0.578125 0.984375q0 0.265625 0.078125 0.484375q0.09375 0.21875 0.265625 0.390625q0.1875 0.15625 0.453125 0.25q0.265625 0.078125 0.609375 0.078125zm5.279419 -2.65625q0 -0.78125 0.1875 -1.4375q0.203125 -0.671875 0.5625 -1.140625q0.375 -0.484375 0.890625 -0.75q0.515625 -0.265625 1.171875 -0.265625q0.65625 0 1.140625 0.234375q0.5 0.234375 0.84375 0.65625l0.0625 -0.765625l1.09375 0l0 6.890625q0 0.703125 -0.21875 1.234375q-0.21875 0.546875 -0.625 0.921875q-0.390625 0.375 -0.9375 0.5625q-0.546875 0.203125 -1.203125 0.203125q-0.28125 0 -0.640625 -0.0625q-0.34375 -0.046875 -0.703125 -0.1875q-0.359375 -0.140625 -0.703125 -0.375q-0.328125 -0.234375 -0.5625 -0.578125l0.625 -0.734375q0.21875 0.265625 0.453125 0.453125q0.234375 0.1875 0.46875 0.296875q0.25 0.109375 0.484375 0.15625q0.25 0.0625 0.484375 0.0625q0.421875 0 0.765625 -0.125q0.359375 -0.125 0.59375 -0.375q0.25 -0.234375 0.375 -0.59375q0.140625 -0.34375 0.140625 -0.796875l0 -0.609375q-0.359375 0.40625 -0.84375 0.625q-0.46875 0.203125 -1.109375 0.203125q-0.640625 0 -1.15625 -0.265625q-0.515625 -0.28125 -0.890625 -0.75q-0.359375 -0.484375 -0.5625 -1.140625q-0.1875 -0.65625 -0.1875 -1.40625l0 -0.140625zm1.203125 0.140625q0 0.515625 0.109375 0.984375q0.109375 0.453125 0.34375 0.8125q0.234375 0.34375 0.578125 0.546875q0.359375 0.203125 0.875 0.203125q0.3125 0 0.5625 -0.078125q0.25 -0.078125 0.4375 -0.203125q0.203125 -0.140625 0.359375 -0.328125q0.15625 -0.1875 0.28125 -0.421875l0 -3.21875q-0.125 -0.234375 -0.28125 -0.40625q-0.15625 -0.1875 -0.359375 -0.3125q-0.203125 -0.140625 -0.453125 -0.21875q-0.234375 -0.078125 -0.546875 -0.078125q-0.5 0 -0.859375 0.21875q-0.359375 0.203125 -0.59375 0.5625q-0.234375 0.34375 -0.34375 0.8125q-0.109375 0.46875 -0.109375 0.984375l0 0.140625zm10.138794 3.5625q-0.75 0 -1.375 -0.25q-0.609375 -0.25 -1.0625 -0.703125q-0.4375 -0.453125 -0.6875 -1.078125q-0.25 -0.625 -0.25 -1.375l0 -0.265625q0 -0.859375 0.265625 -1.53125q0.28125 -0.671875 0.734375 -1.125q0.453125 -0.46875 1.03125 -0.71875q0.578125 -0.25 1.1875 -0.25q0.75 0 1.3125 0.265625q0.578125 0.265625 0.953125 0.734375q0.375 0.453125 0.5625 1.09375q0.1875 0.625 0.1875 1.359375l0 0.546875l-5.03125 0q0.03125 0.484375 0.1875 0.90625q0.171875 0.421875 0.453125 0.734375q0.296875 0.3125 0.6875 0.5q0.40625 0.171875 0.90625 0.171875q0.640625 0 1.140625 -0.25q0.5 -0.265625 0.828125 -0.6875l0.734375 0.5625q-0.171875 0.265625 -0.4375 0.515625q-0.265625 0.25 -0.609375 0.4375q-0.34375 0.1875 -0.78125 0.296875q-0.4375 0.109375 -0.9375 0.109375zm-0.15625 -6.3125q-0.375 0 -0.703125 0.140625q-0.3125 0.125 -0.578125 0.390625q-0.265625 0.25 -0.453125 0.625q-0.171875 0.375 -0.234375 0.859375l3.78125 0l0 -0.078125q-0.015625 -0.359375 -0.140625 -0.703125q-0.109375 -0.34375 -0.328125 -0.609375q-0.21875 -0.28125 -0.5625 -0.453125q-0.328125 -0.171875 -0.78125 -0.171875z" fill-rule="nonzero"/><path fill="#fff2cc" d="m490.9777 52.298275l125.98422 0l0 42.77165l-125.98422 0z" fill-rule="evenodd"/><path stroke="#000000" stroke-width="1.0" stroke-linejoin="round" stroke-linecap="butt" d="m490.9777 52.298275l125.98422 0l0 42.77165l-125.98422 0z" fill-rule="evenodd"/><path fill="#000000" d="m507.10245 70.4841l0 -9.46875l2.8125 0q0.578125 0 1.140625 0.15625q0.5625 0.140625 1.0000305 0.453125q0.4375 0.296875 0.6875 0.78125q0.265625 0.46875 0.265625 1.125q-0.015625 0.375 -0.125 0.6875q-0.109375 0.296875 -0.3125 0.546875q-0.203125 0.234375 -0.46875 0.421875q-0.26565552 0.1875 -0.5625305 0.3125q0.375 0.109375 0.6875305 0.3125q0.328125 0.203125 0.546875 0.5q0.234375 0.28125 0.359375 0.65625q0.125 0.359375 0.125 0.78125q0 0.671875 -0.265625 1.1875q-0.25 0.5 -0.6875 0.84375q-0.43753052 0.328125 -1.0156555 0.515625q-0.5625 0.1875 -1.15625 0.1875l-3.03125 0zm1.203125 -4.4375l0 3.421875l1.859375 0q0.375 -0.015625 0.703125 -0.125q0.34375 -0.125 0.609375 -0.34375q0.265625 -0.21875 0.40625 -0.53125q0.15628052 -0.3125 0.15628052 -0.703125q0.015625 -0.40625 -0.12503052 -0.71875q-0.140625 -0.3125 -0.390625 -0.53125q-0.25 -0.21875 -0.578125 -0.328125q-0.328125 -0.125 -0.71875 -0.140625l-1.921875 0zm0 -1.0l1.6875 0q0.328125 0 0.65625 -0.09375q0.328125 -0.109375 0.578125 -0.296875q0.25 -0.203125 0.40625 -0.484375q0.15625 -0.28125 0.15625 -0.640625q0 -0.40625 -0.15625 -0.671875q-0.140625 -0.28125 -0.40625 -0.453125q-0.25 -0.1875 -0.59375 -0.265625q-0.328125 -0.09375 -0.6875 -0.109375l-1.640625 0l0 3.015625zm8.123199 1.640625l0 3.796875l-1.203125 0l0 -9.46875l3.0625 0q0.640625 0 1.203125 0.203125q0.578125 0.1875 1.0 0.546875q0.4375 0.34375 0.6875 0.875q0.25 0.53125 0.25 1.21875q0 0.671875 -0.25 1.203125q-0.25 0.515625 -0.6875 0.875q-0.421875 0.359375 -1.0 0.546875q-0.5625 0.1875 -1.203125 0.203125l-1.859375 0zm0 -1.0l1.859375 0q0.421875 0 0.765625 -0.125q0.359375 -0.125 0.609375 -0.359375q0.265625 -0.234375 0.40625 -0.5625q0.15625 -0.34375 0.15625 -0.78125q0 -0.421875 -0.15625 -0.765625q-0.140625 -0.34375 -0.40625 -0.578125q-0.25 -0.25 -0.609375 -0.375q-0.34375 -0.140625 -0.765625 -0.140625l-1.859375 0l0 3.6875zm10.576294 4.796875l-1.203125 0l0 -7.9375l-2.46875 0.9375l0 -1.09375l3.578125 -1.375l0.09375 0l0 9.46875zm9.357544 -3.65625l-4.96875 0l0 -0.984375l4.96875 0l0 0.984375zm8.6922 0.21875q0 0.75 -0.1875 1.40625q-0.1875 0.65625 -0.546875 1.140625q-0.34375 0.46875 -0.859375 0.75q-0.515625 0.265625 -1.171875 0.265625q-0.65625 0 -1.140625 -0.203125q-0.484375 -0.203125 -0.84375 -0.59375l0 3.375l-1.203125 0l0 -9.75l1.09375 0l0.0625 0.765625q0.359375 -0.421875 0.84375 -0.65625q0.5 -0.234375 1.15625 -0.234375q0.6875 0 1.203125 0.265625q0.515625 0.265625 0.859375 0.75q0.359375 0.46875 0.546875 1.140625q0.1875 0.65625 0.1875 1.4375l0 0.140625zm-1.203125 -0.140625q0 -0.515625 -0.125 -0.984375q-0.109375 -0.46875 -0.34375 -0.8125q-0.234375 -0.359375 -0.609375 -0.5625q-0.359375 -0.21875 -0.859375 -0.21875q-0.59375 0 -0.984375 0.28125q-0.390625 0.265625 -0.625 0.6875l0 3.390625q0.234375 0.421875 0.625 0.6875q0.390625 0.25 0.984375 0.25q0.5 0 0.859375 -0.203125q0.375 -0.21875 0.609375 -0.5625q0.234375 -0.359375 0.34375 -0.828125q0.125 -0.46875 0.125 -0.984375l0 -0.140625zm7.873169 -3.59375q0.171875 0 0.34375 0.015625q0.1875 0 0.34375 0.03125q0.171875 0.015625 0.3125 0.046875q0.140625 0.03125 0.234375 0.078125l-0.171875 1.171875q-0.34375 -0.078125 -0.65625 -0.109375q-0.3125 -0.03125 -0.65625 -0.03125q-0.859375 0 -1.390625 0.390625q-0.515625 0.375 -0.765625 1.0625l0 4.515625l-1.203125 0l0 -7.046875l1.140625 0l0.0625 1.125q0.4375 -0.578125 1.03125 -0.90625q0.609375 -0.34375 1.375 -0.34375zm3.045105 3.59375q0 -0.765625 0.21875 -1.421875q0.21875 -0.65625 0.625 -1.140625q0.421875 -0.484375 1.015625 -0.75q0.59375 -0.28125 1.328125 -0.28125q0.75 0 1.34375 0.28125q0.59375 0.265625 1.0 0.75q0.421875 0.484375 0.640625 1.140625q0.234375 0.65625 0.234375 1.421875l0 0.140625q0 0.75 -0.234375 1.40625q-0.21875 0.65625 -0.640625 1.140625q-0.40625 0.46875 -1.0 0.75q-0.578125 0.265625 -1.328125 0.265625q-0.75 0 -1.34375 -0.265625q-0.59375 -0.28125 -1.015625 -0.75q-0.40625 -0.484375 -0.625 -1.140625q-0.21875 -0.65625 -0.21875 -1.40625l0 -0.140625zm1.203125 0.140625q0 0.515625 0.125 0.984375q0.125 0.46875 0.375 0.828125q0.25 0.359375 0.625 0.578125q0.375 0.203125 0.875 0.203125q0.5 0 0.875 -0.203125q0.375 -0.21875 0.625 -0.578125q0.25 -0.359375 0.375 -0.828125q0.125 -0.46875 0.125 -0.984375l0 -0.140625q0 -0.515625 -0.140625 -0.984375q-0.125 -0.484375 -0.375 -0.84375q-0.25 -0.359375 -0.625 -0.5625q-0.375 -0.21875 -0.875 -0.21875q-0.5 0 -0.875 0.21875q-0.359375 0.203125 -0.609375 0.5625q-0.25 0.359375 -0.375 0.84375q-0.125 0.46875 -0.125 0.984375l0 0.140625zm9.888794 1.703125l0.109375 0.4375l0.125 -0.4375l1.96875 -5.3125l1.234375 0l-2.875 7.046875l-0.921875 0l-2.890625 -7.046875l1.234375 0l2.015625 5.3125zm5.435669 -5.3125l3.59375 0l0 6.0l2.296875 0l0 1.046875l-5.890625 0l0 -1.046875l2.390625 0l0 -4.953125l-2.390625 0l0 -1.046875zm2.234375 -1.84375q0 -0.296875 0.171875 -0.5q0.1875 -0.203125 0.546875 -0.203125q0.359375 0 0.53125 0.203125q0.1875 0.203125 0.1875 0.5q0 0.296875 -0.1875 0.5q-0.171875 0.1875 -0.53125 0.1875q-0.359375 0 -0.546875 -0.1875q-0.171875 -0.203125 -0.171875 -0.5zm5.341919 5.3125q0 -0.78125 0.1875 -1.4375q0.203125 -0.671875 0.5625 -1.140625q0.375 -0.484375 0.890625 -0.75q0.53125 -0.265625 1.171875 -0.265625q0.640625 0 1.109375 0.21875q0.46875 0.203125 0.8125 0.609375l0 -3.65625l1.203125 0l0 10.0l-1.109375 0l-0.046875 -0.734375q-0.34375 0.421875 -0.84375 0.640625q-0.484375 0.21875 -1.140625 0.21875q-0.625 0 -1.15625 -0.265625q-0.515625 -0.28125 -0.875 -0.75q-0.359375 -0.484375 -0.5625 -1.140625q-0.203125 -0.65625 -0.203125 -1.40625l0 -0.140625zm1.203125 0.140625q0 0.515625 0.109375 0.984375q0.109375 0.453125 0.34375 0.8125q0.234375 0.34375 0.578125 0.546875q0.359375 0.203125 0.875 0.203125q0.296875 0 0.546875 -0.0625q0.25 -0.078125 0.453125 -0.203125q0.203125 -0.140625 0.359375 -0.328125q0.15625 -0.1875 0.265625 -0.421875l0 -3.265625q-0.234375 -0.421875 -0.640625 -0.703125q-0.390625 -0.28125 -0.984375 -0.28125q-0.5 0 -0.859375 0.21875q-0.359375 0.203125 -0.59375 0.5625q-0.234375 0.34375 -0.34375 0.8125q-0.109375 0.46875 -0.109375 0.984375l0 0.140625zm10.138855 3.5625q-0.75 0 -1.375 -0.25q-0.609375 -0.25 -1.0625 -0.703125q-0.4375 -0.453125 -0.6875 -1.078125q-0.25 -0.625 -0.25 -1.375l0 -0.265625q0 -0.859375 0.265625 -1.53125q0.28125 -0.671875 0.734375 -1.125q0.453125 -0.46875 1.03125 -0.71875q0.578125 -0.25 1.1875 -0.25q0.75 0 1.3125 0.265625q0.578125 0.265625 0.953125 0.734375q0.375 0.453125 0.5625 1.09375q0.1875 0.625 0.1875 1.359375l0 0.546875l-5.03125 0q0.03125 0.484375 0.1875 0.90625q0.171875 0.421875 0.453125 0.734375q0.296875 0.3125 0.6875 0.5q0.40625 0.171875 0.90625 0.171875q0.640625 0 1.140625 -0.25q0.5 -0.265625 0.828125 -0.6875l0.734375 0.5625q-0.171875 0.265625 -0.4375 0.515625q-0.265625 0.25 -0.609375 0.4375q-0.34375 0.1875 -0.78125 0.296875q-0.4375 0.109375 -0.9375 0.109375zm-0.15625 -6.3125q-0.375 0 -0.703125 0.140625q-0.3125 0.125 -0.578125 0.390625q-0.265625 0.25 -0.453125 0.625q-0.171875 0.375 -0.234375 0.859375l3.78125 0l0 -0.078125q-0.015625 -0.359375 -0.140625 -0.703125q-0.109375 -0.34375 -0.328125 -0.609375q-0.21875 -0.28125 -0.5625 -0.453125q-0.328125 -0.171875 -0.78125 -0.171875zm4.810669 2.609375q0 -0.78125 0.1875 -1.4375q0.203125 -0.671875 0.5625 -1.140625q0.375 -0.484375 0.890625 -0.75q0.53125 -0.265625 1.171875 -0.265625q0.640625 0 1.109375 0.21875q0.46875 0.203125 0.8125 0.609375l0 -3.65625l1.203125 0l0 10.0l-1.109375 0l-0.046875 -0.734375q-0.34375 0.421875 -0.84375 0.640625q-0.484375 0.21875 -1.140625 0.21875q-0.625 0 -1.15625 -0.265625q-0.515625 -0.28125 -0.875 -0.75q-0.359375 -0.484375 -0.5625 -1.140625q-0.203125 -0.65625 -0.203125 -1.40625l0 -0.140625zm1.203125 0.140625q0 0.515625 0.109375 0.984375q0.109375 0.453125 0.34375 0.8125q0.234375 0.34375 0.578125 0.546875q0.359375 0.203125 0.875 0.203125q0.296875 0 0.546875 -0.0625q0.25 -0.078125 0.453125 -0.203125q0.203125 -0.140625 0.359375 -0.328125q0.15625 -0.1875 0.265625 -0.421875l0 -3.265625q-0.234375 -0.421875 -0.640625 -0.703125q-0.390625 -0.28125 -0.984375 -0.28125q-0.5 0 -0.859375 0.21875q-0.359375 0.203125 -0.59375 0.5625q-0.234375 0.34375 -0.34375 0.8125q-0.109375 0.46875 -0.109375 0.984375l0 0.140625z" fill-rule="nonzero"/><path fill="#000000" d="m531.3034 76.4841l3.59375 0l0 8.953125l2.296875 0l0 1.046875l-5.890625 0l0 -1.046875l2.390625 0l0 -7.90625l-2.390625 0l0 -1.046875zm12.435669 10.0q-0.078125 -0.140625 -0.125 -0.34375q-0.03125 -0.203125 -0.0625 -0.421875q-0.171875 0.1875 -0.40625 0.34375q-0.21875 0.15625 -0.5 0.28125q-0.265625 0.125 -0.578125 0.1875q-0.296875 0.078125 -0.640625 0.078125q-0.5625 0 -1.015625 -0.15625q-0.453125 -0.15625 -0.765625 -0.4375q-0.3125 -0.28125 -0.484375 -0.65625q-0.171875 -0.390625 -0.171875 -0.828125q0 -0.578125 0.234375 -1.015625q0.234375 -0.4375 0.65625 -0.71875q0.421875 -0.296875 1.015625 -0.4375q0.59375 -0.140625 1.328125 -0.140625l1.3125 0l0 -0.5625q0 -0.3125 -0.125 -0.5625q-0.109375 -0.265625 -0.328125 -0.4375q-0.203125 -0.171875 -0.515625 -0.265625q-0.3125 -0.109375 -0.703125 -0.109375q-0.34375 0 -0.640625 0.09375q-0.28125 0.09375 -0.484375 0.25q-0.1875 0.140625 -0.296875 0.34375q-0.09375 0.203125 -0.09375 0.421875l-1.21875 0q0.015625 -0.375 0.203125 -0.75q0.1875 -0.375 0.546875 -0.671875q0.359375 -0.296875 0.875 -0.46875q0.53125 -0.1875 1.1875 -0.1875q0.59375 0 1.109375 0.15625q0.515625 0.140625 0.890625 0.4375q0.375 0.296875 0.578125 0.734375q0.21875 0.4375 0.21875 1.03125l0 3.28125q0 0.34375 0.0625 0.75q0.0625 0.390625 0.1875 0.671875l0 0.109375l-1.25 0zm-2.140625 -0.921875q0.359375 0 0.65625 -0.078125q0.3125 -0.09375 0.5625 -0.25q0.25 -0.15625 0.421875 -0.34375q0.1875 -0.1875 0.296875 -0.390625l0 -1.4375l-1.125 0q-1.046875 0 -1.640625 0.3125q-0.578125 0.3125 -0.578125 0.984375q0 0.265625 0.078125 0.484375q0.09375 0.21875 0.265625 0.390625q0.1875 0.15625 0.453125 0.25q0.265625 0.078125 0.609375 0.078125zm8.091919 -1.578125l0.3125 0.859375l2.15625 -5.40625l1.34375 0l-3.578125 8.140625q-0.125 0.265625 -0.3125 0.5625q-0.1875 0.3125 -0.46875 0.578125q-0.265625 0.265625 -0.640625 0.4375q-0.359375 0.171875 -0.828125 0.171875q-0.09375 0 -0.203125 -0.015625q-0.09375 0 -0.203125 -0.015625q-0.09375 -0.015625 -0.1875 -0.046875q-0.09375 -0.015625 -0.15625 -0.03125l0.203125 -0.984375q0.046875 0 0.125 0q0.078125 0.015625 0.15625 0.015625q0.078125 0.015625 0.15625 0.015625q0.078125 0.015625 0.125 0.015625q0.25 0 0.453125 -0.140625q0.203125 -0.140625 0.359375 -0.328125q0.171875 -0.1875 0.28125 -0.390625q0.109375 -0.203125 0.1875 -0.328125l0.46875 -0.9375l-3.03125 -6.71875l1.359375 0l1.921875 4.546875zm8.529419 2.625q-0.75 0 -1.375 -0.25q-0.609375 -0.25 -1.0625 -0.703125q-0.4375 -0.453125 -0.6875 -1.078125q-0.25 -0.625 -0.25 -1.375l0 -0.265625q0 -0.859375 0.265625 -1.53125q0.28125 -0.671875 0.734375 -1.125q0.453125 -0.46875 1.03125 -0.71875q0.578125 -0.25 1.1875 -0.25q0.75 0 1.3125 0.265625q0.578125 0.265625 0.953125 0.734375q0.375 0.453125 0.5625 1.09375q0.1875 0.625 0.1875 1.359375l0 0.546875l-5.03125 0q0.03125 0.484375 0.1875 0.90625q0.171875 0.421875 0.453125 0.734375q0.296875 0.3125 0.6875 0.5q0.40625 0.171875 0.90625 0.171875q0.640625 0 1.140625 -0.25q0.5 -0.265625 0.828125 -0.6875l0.734375 0.5625q-0.171875 0.265625 -0.4375 0.515625q-0.265625 0.25 -0.609375 0.4375q-0.34375 0.1875 -0.78125 0.296875q-0.4375 0.109375 -0.9375 0.109375zm-0.15625 -6.3125q-0.375 0 -0.703125 0.140625q-0.3125 0.125 -0.578125 0.390625q-0.265625 0.25 -0.453125 0.625q-0.171875 0.375 -0.234375 0.859375l3.78125 0l0 -0.078125q-0.015625 -0.359375 -0.140625 -0.703125q-0.109375 -0.34375 -0.328125 -0.609375q-0.21875 -0.28125 -0.5625 -0.453125q-0.328125 -0.171875 -0.78125 -0.171875zm9.65448 -0.984375q0.171875 0 0.34375 0.015625q0.1875 0 0.34375 0.03125q0.171875 0.015625 0.3125 0.046875q0.140625 0.03125 0.234375 0.078125l-0.171875 1.171875q-0.34375 -0.078125 -0.65625 -0.109375q-0.3125 -0.03125 -0.65625 -0.03125q-0.859375 0 -1.390625 0.390625q-0.515625 0.375 -0.765625 1.0625l0 4.515625l-1.203125 0l0 -7.046875l1.140625 0l0.0625 1.125q0.4375 -0.578125 1.03125 -0.90625q0.609375 -0.34375 1.375 -0.34375zm8.060669 5.296875q0 -0.203125 -0.09375 -0.375q-0.078125 -0.171875 -0.28125 -0.3125q-0.203125 -0.15625 -0.53125 -0.265625q-0.328125 -0.125 -0.828125 -0.21875q-0.609375 -0.125 -1.109375 -0.296875q-0.484375 -0.1875 -0.84375 -0.421875q-0.359375 -0.25 -0.5625 -0.578125q-0.1875 -0.328125 -0.1875 -0.765625q0 -0.421875 0.203125 -0.796875q0.203125 -0.375 0.5625 -0.65625q0.375 -0.28125 0.875 -0.4375q0.5 -0.171875 1.109375 -0.171875q0.65625 0 1.171875 0.171875q0.515625 0.171875 0.875 0.46875q0.375 0.296875 0.5625 0.703125q0.203125 0.390625 0.203125 0.859375l-1.203125 0q0 -0.234375 -0.125 -0.453125q-0.109375 -0.21875 -0.3125 -0.375q-0.203125 -0.171875 -0.5 -0.28125q-0.296875 -0.109375 -0.671875 -0.109375q-0.390625 0 -0.6875 0.09375q-0.28125 0.078125 -0.46875 0.21875q-0.1875 0.140625 -0.296875 0.34375q-0.09375 0.1875 -0.09375 0.390625q0 0.203125 0.078125 0.375q0.078125 0.15625 0.265625 0.28125q0.203125 0.125 0.515625 0.234375q0.328125 0.109375 0.828125 0.203125q0.640625 0.140625 1.15625 0.328125q0.515625 0.171875 0.859375 0.421875q0.359375 0.25 0.546875 0.578125q0.1875 0.328125 0.1875 0.765625q0 0.46875 -0.21875 0.859375q-0.203125 0.375 -0.578125 0.65625q-0.375 0.265625 -0.90625 0.421875q-0.53125 0.140625 -1.15625 0.140625q-0.71875 0 -1.28125 -0.1875q-0.546875 -0.1875 -0.9375 -0.5q-0.390625 -0.328125 -0.59375 -0.734375q-0.203125 -0.421875 -0.203125 -0.875l1.203125 0q0.03125 0.375 0.203125 0.640625q0.171875 0.25 0.421875 0.40625q0.265625 0.15625 0.578125 0.21875q0.3125 0.0625 0.609375 0.0625q0.765625 0 1.203125 -0.28125q0.453125 -0.28125 0.453125 -0.75z" fill-rule="nonzero"/><path fill="#d9ead3" d="m490.9777 95.06909l125.98422 0l0 42.771652l-125.98422 0z" fill-rule="evenodd"/><path stroke="#000000" stroke-width="1.0" stroke-linejoin="round" stroke-linecap="butt" d="m490.9777 95.06909l125.98422 0l0 42.771652l-125.98422 0z" fill-rule="evenodd"/><path fill="#000000" d="m507.10245 113.25491l0 -9.46875l2.8125 0q0.578125 0 1.140625 0.15625q0.5625 0.140625 1.0000305 0.453125q0.4375 0.296875 0.6875 0.78125q0.265625 0.46875 0.265625 1.125q-0.015625 0.375 -0.125 0.6875q-0.109375 0.296875 -0.3125 0.546875q-0.203125 0.234375 -0.46875 0.421875q-0.26565552 0.1875 -0.5625305 0.3125q0.375 0.109375 0.6875305 0.3125q0.328125 0.203125 0.546875 0.5q0.234375 0.28125 0.359375 0.65625q0.125 0.359375 0.125 0.78125q0 0.671875 -0.265625 1.1875q-0.25 0.5 -0.6875 0.84375q-0.43753052 0.328125 -1.0156555 0.515625q-0.5625 0.1875 -1.15625 0.1875l-3.03125 0zm1.203125 -4.4375l0 3.421875l1.859375 0q0.375 -0.015625 0.703125 -0.125q0.34375 -0.125 0.609375 -0.34375q0.265625 -0.21875 0.40625 -0.53125q0.15628052 -0.3125 0.15628052 -0.703125q0.015625 -0.40625 -0.12503052 -0.71875q-0.140625 -0.3125 -0.390625 -0.53125q-0.25 -0.21875 -0.578125 -0.328125q-0.328125 -0.125 -0.71875 -0.140625l-1.921875 0zm0 -1.0l1.6875 0q0.328125 0 0.65625 -0.09375q0.328125 -0.109375 0.578125 -0.296875q0.25 -0.203125 0.40625 -0.484375q0.15625 -0.28125 0.15625 -0.640625q0 -0.40625 -0.15625 -0.671875q-0.140625 -0.28125 -0.40625 -0.453125q-0.25 -0.1875 -0.59375 -0.265625q-0.328125 -0.09375 -0.6875 -0.109375l-1.640625 0l0 3.015625zm8.123199 1.640625l0 3.796875l-1.203125 0l0 -9.46875l3.0625 0q0.640625 0 1.203125 0.203125q0.578125 0.1875 1.0 0.546875q0.4375 0.34375 0.6875 0.875q0.25 0.53125 0.25 1.21875q0 0.671875 -0.25 1.203125q-0.25 0.515625 -0.6875 0.875q-0.421875 0.359375 -1.0 0.546875q-0.5625 0.1875 -1.203125 0.203125l-1.859375 0zm0 -1.0l1.859375 0q0.421875 0 0.765625 -0.125q0.359375 -0.125 0.609375 -0.359375q0.265625 -0.234375 0.40625 -0.5625q0.15625 -0.34375 0.15625 -0.78125q0 -0.421875 -0.15625 -0.765625q-0.140625 -0.34375 -0.40625 -0.578125q-0.25 -0.25 -0.609375 -0.375q-0.34375 -0.140625 -0.765625 -0.140625l-1.859375 0l0 3.6875zm12.482544 4.796875l-6.203125 0l0 -0.859375l3.109375 -3.453125q0.40625 -0.46875 0.6875 -0.828125q0.28125 -0.359375 0.453125 -0.65625q0.171875 -0.296875 0.234375 -0.5625q0.078125 -0.28125 0.078125 -0.5625q0 -0.359375 -0.125 -0.65625q-0.109375 -0.3125 -0.328125 -0.53125q-0.203125 -0.234375 -0.515625 -0.359375q-0.3125 -0.140625 -0.703125 -0.140625q-0.46875 0 -0.828125 0.140625q-0.34375 0.125 -0.578125 0.375q-0.234375 0.25 -0.34375 0.609375q-0.109375 0.359375 -0.109375 0.796875l-1.21875 0q0 -0.59375 0.203125 -1.125q0.21875 -0.53125 0.609375 -0.921875q0.390625 -0.40625 0.953125 -0.640625q0.578125 -0.234375 1.3125 -0.234375q0.671875 0 1.203125 0.203125q0.546875 0.203125 0.90625 0.5625q0.375 0.34375 0.578125 0.828125q0.203125 0.46875 0.203125 1.046875q0 0.421875 -0.15625 0.828125q-0.140625 0.40625 -0.390625 0.8125q-0.234375 0.40625 -0.5625 0.8125q-0.3125 0.390625 -0.671875 0.78125l-2.546875 2.75l4.75 0l0 0.984375zm7.451294 -3.65625l-4.96875 0l0 -0.984375l4.96875 0l0 0.984375zm8.6922 0.21875q0 0.75 -0.1875 1.40625q-0.1875 0.65625 -0.546875 1.140625q-0.34375 0.46875 -0.859375 0.75q-0.515625 0.265625 -1.171875 0.265625q-0.65625 0 -1.140625 -0.203125q-0.484375 -0.203125 -0.84375 -0.59375l0 3.375l-1.203125 0l0 -9.75l1.09375 0l0.0625 0.765625q0.359375 -0.421875 0.84375 -0.65625q0.5 -0.234375 1.15625 -0.234375q0.6875 0 1.203125 0.265625q0.515625 0.265625 0.859375 0.75q0.359375 0.46875 0.546875 1.140625q0.1875 0.65625 0.1875 1.4375l0 0.140625zm-1.203125 -0.140625q0 -0.515625 -0.125 -0.984375q-0.109375 -0.46875 -0.34375 -0.8125q-0.234375 -0.359375 -0.609375 -0.5625q-0.359375 -0.21875 -0.859375 -0.21875q-0.59375 0 -0.984375 0.28125q-0.390625 0.265625 -0.625 0.6875l0 3.390625q0.234375 0.421875 0.625 0.6875q0.390625 0.25 0.984375 0.25q0.5 0 0.859375 -0.203125q0.375 -0.21875 0.609375 -0.5625q0.234375 -0.359375 0.34375 -0.828125q0.125 -0.46875 0.125 -0.984375l0 -0.140625zm7.873169 -3.59375q0.171875 0 0.34375 0.015625q0.1875 0 0.34375 0.03125q0.171875 0.015625 0.3125 0.046875q0.140625 0.03125 0.234375 0.078125l-0.171875 1.171875q-0.34375 -0.078125 -0.65625 -0.109375q-0.3125 -0.03125 -0.65625 -0.03125q-0.859375 0 -1.390625 0.390625q-0.515625 0.375 -0.765625 1.0625l0 4.515625l-1.203125 0l0 -7.046875l1.140625 0l0.0625 1.125q0.4375 -0.578125 1.03125 -0.90625q0.609375 -0.34375 1.375 -0.34375zm3.045105 3.59375q0 -0.765625 0.21875 -1.421875q0.21875 -0.65625 0.625 -1.140625q0.421875 -0.484375 1.015625 -0.75q0.59375 -0.28125 1.328125 -0.28125q0.75 0 1.34375 0.28125q0.59375 0.265625 1.0 0.75q0.421875 0.484375 0.640625 1.140625q0.234375 0.65625 0.234375 1.421875l0 0.140625q0 0.75 -0.234375 1.40625q-0.21875 0.65625 -0.640625 1.140625q-0.40625 0.46875 -1.0 0.75q-0.578125 0.265625 -1.328125 0.265625q-0.75 0 -1.34375 -0.265625q-0.59375 -0.28125 -1.015625 -0.75q-0.40625 -0.484375 -0.625 -1.140625q-0.21875 -0.65625 -0.21875 -1.40625l0 -0.140625zm1.203125 0.140625q0 0.515625 0.125 0.984375q0.125 0.46875 0.375 0.828125q0.25 0.359375 0.625 0.578125q0.375 0.203125 0.875 0.203125q0.5 0 0.875 -0.203125q0.375 -0.21875 0.625 -0.578125q0.25 -0.359375 0.375 -0.828125q0.125 -0.46875 0.125 -0.984375l0 -0.140625q0 -0.515625 -0.140625 -0.984375q-0.125 -0.484375 -0.375 -0.84375q-0.25 -0.359375 -0.625 -0.5625q-0.375 -0.21875 -0.875 -0.21875q-0.5 0 -0.875 0.21875q-0.359375 0.203125 -0.609375 0.5625q-0.25 0.359375 -0.375 0.84375q-0.125 0.46875 -0.125 0.984375l0 0.140625zm9.888794 1.703125l0.109375 0.4375l0.125 -0.4375l1.96875 -5.3125l1.234375 0l-2.875 7.046875l-0.921875 0l-2.890625 -7.046875l1.234375 0l2.015625 5.3125zm5.435669 -5.3125l3.59375 0l0 6.0l2.296875 0l0 1.046875l-5.890625 0l0 -1.046875l2.390625 0l0 -4.953125l-2.390625 0l0 -1.046875zm2.234375 -1.84375q0 -0.296875 0.171875 -0.5q0.1875 -0.203125 0.546875 -0.203125q0.359375 0 0.53125 0.203125q0.1875 0.203125 0.1875 0.5q0 0.296875 -0.1875 0.5q-0.171875 0.1875 -0.53125 0.1875q-0.359375 0 -0.546875 -0.1875q-0.171875 -0.203125 -0.171875 -0.5zm5.341919 5.3125q0 -0.78125 0.1875 -1.4375q0.203125 -0.671875 0.5625 -1.140625q0.375 -0.484375 0.890625 -0.75q0.53125 -0.265625 1.171875 -0.265625q0.640625 0 1.109375 0.21875q0.46875 0.203125 0.8125 0.609375l0 -3.65625l1.203125 0l0 10.0l-1.109375 0l-0.046875 -0.734375q-0.34375 0.421875 -0.84375 0.640625q-0.484375 0.21875 -1.140625 0.21875q-0.625 0 -1.15625 -0.265625q-0.515625 -0.28125 -0.875 -0.75q-0.359375 -0.484375 -0.5625 -1.140625q-0.203125 -0.65625 -0.203125 -1.40625l0 -0.140625zm1.203125 0.140625q0 0.515625 0.109375 0.984375q0.109375 0.453125 0.34375 0.8125q0.234375 0.34375 0.578125 0.546875q0.359375 0.203125 0.875 0.203125q0.296875 0 0.546875 -0.0625q0.25 -0.078125 0.453125 -0.203125q0.203125 -0.140625 0.359375 -0.328125q0.15625 -0.1875 0.265625 -0.421875l0 -3.265625q-0.234375 -0.421875 -0.640625 -0.703125q-0.390625 -0.28125 -0.984375 -0.28125q-0.5 0 -0.859375 0.21875q-0.359375 0.203125 -0.59375 0.5625q-0.234375 0.34375 -0.34375 0.8125q-0.109375 0.46875 -0.109375 0.984375l0 0.140625zm10.138855 3.5625q-0.75 0 -1.375 -0.25q-0.609375 -0.25 -1.0625 -0.703125q-0.4375 -0.453125 -0.6875 -1.078125q-0.25 -0.625 -0.25 -1.375l0 -0.265625q0 -0.859375 0.265625 -1.53125q0.28125 -0.671875 0.734375 -1.125q0.453125 -0.46875 1.03125 -0.71875q0.578125 -0.25 1.1875 -0.25q0.75 0 1.3125 0.265625q0.578125 0.265625 0.953125 0.734375q0.375 0.453125 0.5625 1.09375q0.1875 0.625 0.1875 1.359375l0 0.546875l-5.03125 0q0.03125 0.484375 0.1875 0.90625q0.171875 0.421875 0.453125 0.734375q0.296875 0.3125 0.6875 0.5q0.40625 0.171875 0.90625 0.171875q0.640625 0 1.140625 -0.25q0.5 -0.265625 0.828125 -0.6875l0.734375 0.5625q-0.171875 0.265625 -0.4375 0.515625q-0.265625 0.25 -0.609375 0.4375q-0.34375 0.1875 -0.78125 0.296875q-0.4375 0.109375 -0.9375 0.109375zm-0.15625 -6.3125q-0.375 0 -0.703125 0.140625q-0.3125 0.125 -0.578125 0.390625q-0.265625 0.25 -0.453125 0.625q-0.171875 0.375 -0.234375 0.859375l3.78125 0l0 -0.078125q-0.015625 -0.359375 -0.140625 -0.703125q-0.109375 -0.34375 -0.328125 -0.609375q-0.21875 -0.28125 -0.5625 -0.453125q-0.328125 -0.171875 -0.78125 -0.171875zm4.810669 2.609375q0 -0.78125 0.1875 -1.4375q0.203125 -0.671875 0.5625 -1.140625q0.375 -0.484375 0.890625 -0.75q0.53125 -0.265625 1.171875 -0.265625q0.640625 0 1.109375 0.21875q0.46875 0.203125 0.8125 0.609375l0 -3.65625l1.203125 0l0 10.0l-1.109375 0l-0.046875 -0.734375q-0.34375 0.421875 -0.84375 0.640625q-0.484375 0.21875 -1.140625 0.21875q-0.625 0 -1.15625 -0.265625q-0.515625 -0.28125 -0.875 -0.75q-0.359375 -0.484375 -0.5625 -1.140625q-0.203125 -0.65625 -0.203125 -1.40625l0 -0.140625zm1.203125 0.140625q0 0.515625 0.109375 0.984375q0.109375 0.453125 0.34375 0.8125q0.234375 0.34375 0.578125 0.546875q0.359375 0.203125 0.875 0.203125q0.296875 0 0.546875 -0.0625q0.25 -0.078125 0.453125 -0.203125q0.203125 -0.140625 0.359375 -0.328125q0.15625 -0.1875 0.265625 -0.421875l0 -3.265625q-0.234375 -0.421875 -0.640625 -0.703125q-0.390625 -0.28125 -0.984375 -0.28125q-0.5 0 -0.859375 0.21875q-0.359375 0.203125 -0.59375 0.5625q-0.234375 0.34375 -0.34375 0.8125q-0.109375 0.46875 -0.109375 0.984375l0 0.140625z" fill-rule="nonzero"/><path fill="#000000" d="m531.3034 119.25491l3.59375 0l0 8.953125l2.296875 0l0 1.046875l-5.890625 0l0 -1.046875l2.390625 0l0 -7.90625l-2.390625 0l0 -1.046875zm12.435669 10.0q-0.078125 -0.140625 -0.125 -0.34375q-0.03125 -0.203125 -0.0625 -0.421875q-0.171875 0.1875 -0.40625 0.34375q-0.21875 0.15625 -0.5 0.28125q-0.265625 0.125 -0.578125 0.1875q-0.296875 0.078125 -0.640625 0.078125q-0.5625 0 -1.015625 -0.15625q-0.453125 -0.15625 -0.765625 -0.4375q-0.3125 -0.28125 -0.484375 -0.65625q-0.171875 -0.390625 -0.171875 -0.828125q0 -0.578125 0.234375 -1.015625q0.234375 -0.4375 0.65625 -0.71875q0.421875 -0.296875 1.015625 -0.4375q0.59375 -0.140625 1.328125 -0.140625l1.3125 0l0 -0.5625q0 -0.3125 -0.125 -0.5625q-0.109375 -0.265625 -0.328125 -0.4375q-0.203125 -0.171875 -0.515625 -0.265625q-0.3125 -0.109375 -0.703125 -0.109375q-0.34375 0 -0.640625 0.09375q-0.28125 0.09375 -0.484375 0.25q-0.1875 0.140625 -0.296875 0.34375q-0.09375 0.203125 -0.09375 0.421875l-1.21875 0q0.015625 -0.375 0.203125 -0.75q0.1875 -0.375 0.546875 -0.671875q0.359375 -0.296875 0.875 -0.46875q0.53125 -0.1875 1.1875 -0.1875q0.59375 0 1.109375 0.15625q0.515625 0.140625 0.890625 0.4375q0.375 0.296875 0.578125 0.734375q0.21875 0.4375 0.21875 1.03125l0 3.28125q0 0.34375 0.0625 0.75q0.0625 0.390625 0.1875 0.671875l0 0.109375l-1.25 0zm-2.140625 -0.921875q0.359375 0 0.65625 -0.078125q0.3125 -0.09375 0.5625 -0.25q0.25 -0.15625 0.421875 -0.34375q0.1875 -0.1875 0.296875 -0.390625l0 -1.4375l-1.125 0q-1.046875 0 -1.640625 0.3125q-0.578125 0.3125 -0.578125 0.984375q0 0.265625 0.078125 0.484375q0.09375 0.21875 0.265625 0.390625q0.1875 0.15625 0.453125 0.25q0.265625 0.078125 0.609375 0.078125zm8.091919 -1.578125l0.3125 0.859375l2.15625 -5.40625l1.34375 0l-3.578125 8.140625q-0.125 0.265625 -0.3125 0.5625q-0.1875 0.3125 -0.46875 0.578125q-0.265625 0.265625 -0.640625 0.4375q-0.359375 0.171875 -0.828125 0.171875q-0.09375 0 -0.203125 -0.015625q-0.09375 0 -0.203125 -0.015625q-0.09375 -0.015625 -0.1875 -0.046875q-0.09375 -0.015625 -0.15625 -0.03125l0.203125 -0.984375q0.046875 0 0.125 0q0.078125 0.015625 0.15625 0.015625q0.078125 0.015625 0.15625 0.015625q0.078125 0.015625 0.125 0.015625q0.25 0 0.453125 -0.140625q0.203125 -0.140625 0.359375 -0.328125q0.171875 -0.1875 0.28125 -0.390625q0.109375 -0.203125 0.1875 -0.328125l0.46875 -0.9375l-3.03125 -6.71875l1.359375 0l1.921875 4.546875zm8.529419 2.625q-0.75 0 -1.375 -0.25q-0.609375 -0.25 -1.0625 -0.703125q-0.4375 -0.453125 -0.6875 -1.078125q-0.25 -0.625 -0.25 -1.375l0 -0.265625q0 -0.859375 0.265625 -1.53125q0.28125 -0.671875 0.734375 -1.125q0.453125 -0.46875 1.03125 -0.71875q0.578125 -0.25 1.1875 -0.25q0.75 0 1.3125 0.265625q0.578125 0.265625 0.953125 0.734375q0.375 0.453125 0.5625 1.09375q0.1875 0.625 0.1875 1.359375l0 0.546875l-5.03125 0q0.03125 0.484375 0.1875 0.90625q0.171875 0.421875 0.453125 0.734375q0.296875 0.3125 0.6875 0.5q0.40625 0.171875 0.90625 0.171875q0.640625 0 1.140625 -0.25q0.5 -0.265625 0.828125 -0.6875l0.734375 0.5625q-0.171875 0.265625 -0.4375 0.515625q-0.265625 0.25 -0.609375 0.4375q-0.34375 0.1875 -0.78125 0.296875q-0.4375 0.109375 -0.9375 0.109375zm-0.15625 -6.3125q-0.375 0 -0.703125 0.140625q-0.3125 0.125 -0.578125 0.390625q-0.265625 0.25 -0.453125 0.625q-0.171875 0.375 -0.234375 0.859375l3.78125 0l0 -0.078125q-0.015625 -0.359375 -0.140625 -0.703125q-0.109375 -0.34375 -0.328125 -0.609375q-0.21875 -0.28125 -0.5625 -0.453125q-0.328125 -0.171875 -0.78125 -0.171875zm9.65448 -0.984375q0.171875 0 0.34375 0.015625q0.1875 0 0.34375 0.03125q0.171875 0.015625 0.3125 0.046875q0.140625 0.03125 0.234375 0.078125l-0.171875 1.171875q-0.34375 -0.078125 -0.65625 -0.109375q-0.3125 -0.03125 -0.65625 -0.03125q-0.859375 0 -1.390625 0.390625q-0.515625 0.375 -0.765625 1.0625l0 4.515625l-1.203125 0l0 -7.046875l1.140625 0l0.0625 1.125q0.4375 -0.578125 1.03125 -0.90625q0.609375 -0.34375 1.375 -0.34375zm8.060669 5.296875q0 -0.203125 -0.09375 -0.375q-0.078125 -0.171875 -0.28125 -0.3125q-0.203125 -0.15625 -0.53125 -0.265625q-0.328125 -0.125 -0.828125 -0.21875q-0.609375 -0.125 -1.109375 -0.296875q-0.484375 -0.1875 -0.84375 -0.421875q-0.359375 -0.25 -0.5625 -0.578125q-0.1875 -0.328125 -0.1875 -0.765625q0 -0.421875 0.203125 -0.796875q0.203125 -0.375 0.5625 -0.65625q0.375 -0.28125 0.875 -0.4375q0.5 -0.171875 1.109375 -0.171875q0.65625 0 1.171875 0.171875q0.515625 0.171875 0.875 0.46875q0.375 0.296875 0.5625 0.703125q0.203125 0.390625 0.203125 0.859375l-1.203125 0q0 -0.234375 -0.125 -0.453125q-0.109375 -0.21875 -0.3125 -0.375q-0.203125 -0.171875 -0.5 -0.28125q-0.296875 -0.109375 -0.671875 -0.109375q-0.390625 0 -0.6875 0.09375q-0.28125 0.078125 -0.46875 0.21875q-0.1875 0.140625 -0.296875 0.34375q-0.09375 0.1875 -0.09375 0.390625q0 0.203125 0.078125 0.375q0.078125 0.15625 0.265625 0.28125q0.203125 0.125 0.515625 0.234375q0.328125 0.109375 0.828125 0.203125q0.640625 0.140625 1.15625 0.328125q0.515625 0.171875 0.859375 0.421875q0.359375 0.25 0.546875 0.578125q0.1875 0.328125 0.1875 0.765625q0 0.46875 -0.21875 0.859375q-0.203125 0.375 -0.578125 0.65625q-0.375 0.265625 -0.90625 0.421875q-0.53125 0.140625 -1.15625 0.140625q-0.71875 0 -1.28125 -0.1875q-0.546875 -0.1875 -0.9375 -0.5q-0.390625 -0.328125 -0.59375 -0.734375q-0.203125 -0.421875 -0.203125 -0.875l1.203125 0q0.03125 0.375 0.203125 0.640625q0.171875 0.25 0.421875 0.40625q0.265625 0.15625 0.578125 0.21875q0.3125 0.0625 0.609375 0.0625q0.765625 0 1.203125 -0.28125q0.453125 -0.28125 0.453125 -0.75z" fill-rule="nonzero"/><path fill="#ead1dc" d="m490.9777 136.1181l125.98422 0l0 42.771667l-125.98422 0z" fill-rule="evenodd"/><path stroke="#000000" stroke-width="1.0" stroke-linejoin="round" stroke-linecap="butt" d="m490.9777 136.1181l125.98422 0l0 42.771667l-125.98422 0z" fill-rule="evenodd"/><path fill="#000000" d="m547.73816 162.30394q-0.078125 -0.140625 -0.125 -0.34375q-0.03125 -0.203125 -0.0625 -0.421875q-0.171875 0.1875 -0.40625 0.34375q-0.21875 0.15625 -0.5 0.28125q-0.265625 0.125 -0.578125 0.1875q-0.296875 0.078125 -0.640625 0.078125q-0.5625 0 -1.015625 -0.15625q-0.453125 -0.15625 -0.765625 -0.4375q-0.3125 -0.28125 -0.484375 -0.65625q-0.171875 -0.390625 -0.171875 -0.828125q0 -0.578125 0.234375 -1.015625q0.234375 -0.4375 0.65625 -0.71875q0.421875 -0.296875 1.015625 -0.4375q0.59375 -0.140625 1.328125 -0.140625l1.3125 0l0 -0.5625q0 -0.3125 -0.125 -0.5625q-0.109375 -0.265625 -0.328125 -0.4375q-0.203125 -0.171875 -0.515625 -0.265625q-0.3125 -0.109375 -0.703125 -0.109375q-0.34375 0 -0.640625 0.09375q-0.28125 0.09375 -0.484375 0.25q-0.1875 0.140625 -0.296875 0.34375q-0.09375 0.203125 -0.09375 0.421875l-1.21875 0q0.015625 -0.375 0.203125 -0.75q0.1875 -0.375 0.546875 -0.671875q0.359375 -0.296875 0.875 -0.46875q0.53125 -0.1875 1.1875 -0.1875q0.59375 0 1.109375 0.15625q0.515625 0.140625 0.890625 0.4375q0.375 0.296875 0.578125 0.734375q0.21875 0.4375 0.21875 1.03125l0 3.28125q0 0.34375 0.0625 0.75q0.0625 0.390625 0.1875 0.671875l0 0.109375l-1.25 0zm-2.140625 -0.921875q0.359375 0 0.65625 -0.078125q0.3125 -0.09375 0.5625 -0.25q0.25 -0.15625 0.421875 -0.34375q0.1875 -0.1875 0.296875 -0.390625l0 -1.4375l-1.125 0q-1.046875 0 -1.640625 0.3125q-0.578125 0.3125 -0.578125 0.984375q0 0.265625 0.078125 0.484375q0.09375 0.21875 0.265625 0.390625q0.1875 0.15625 0.453125 0.25q0.265625 0.078125 0.609375 0.078125zm11.451294 -2.515625q0 0.75 -0.1875 1.40625q-0.1875 0.65625 -0.546875 1.140625q-0.34375 0.46875 -0.859375 0.75q-0.515625 0.265625 -1.171875 0.265625q-0.65625 0 -1.140625 -0.203125q-0.484375 -0.203125 -0.84375 -0.59375l0 3.375l-1.203125 0l0 -9.75l1.09375 0l0.0625 0.765625q0.359375 -0.421875 0.84375 -0.65625q0.5 -0.234375 1.15625 -0.234375q0.6875 0 1.203125 0.265625q0.515625 0.265625 0.859375 0.75q0.359375 0.46875 0.546875 1.140625q0.1875 0.65625 0.1875 1.4375l0 0.140625zm-1.203125 -0.140625q0 -0.515625 -0.125 -0.984375q-0.109375 -0.46875 -0.34375 -0.8125q-0.234375 -0.359375 -0.609375 -0.5625q-0.359375 -0.21875 -0.859375 -0.21875q-0.59375 0 -0.984375 0.28125q-0.390625 0.265625 -0.625 0.6875l0 3.390625q0.234375 0.421875 0.625 0.6875q0.390625 0.25 0.984375 0.25q0.5 0 0.859375 -0.203125q0.375 -0.21875 0.609375 -0.5625q0.234375 -0.359375 0.34375 -0.828125q0.125 -0.46875 0.125 -0.984375l0 -0.140625zm9.201355 0.140625q0 0.75 -0.1875 1.40625q-0.1875 0.65625 -0.546875 1.140625q-0.34375 0.46875 -0.859375 0.75q-0.515625 0.265625 -1.171875 0.265625q-0.65625 0 -1.140625 -0.203125q-0.484375 -0.203125 -0.84375 -0.59375l0 3.375l-1.203125 0l0 -9.75l1.09375 0l0.0625 0.765625q0.359375 -0.421875 0.84375 -0.65625q0.5 -0.234375 1.15625 -0.234375q0.6875 0 1.203125 0.265625q0.515625 0.265625 0.859375 0.75q0.359375 0.46875 0.546875 1.140625q0.1875 0.65625 0.1875 1.4375l0 0.140625zm-1.203125 -0.140625q0 -0.515625 -0.125 -0.984375q-0.109375 -0.46875 -0.34375 -0.8125q-0.234375 -0.359375 -0.609375 -0.5625q-0.359375 -0.21875 -0.859375 -0.21875q-0.59375 0 -0.984375 0.28125q-0.390625 0.265625 -0.625 0.6875l0 3.390625q0.234375 0.421875 0.625 0.6875q0.390625 0.25 0.984375 0.25q0.5 0 0.859375 -0.203125q0.375 -0.21875 0.609375 -0.5625q0.234375 -0.359375 0.34375 -0.828125q0.125 -0.46875 0.125 -0.984375l0 -0.140625z" fill-rule="nonzero"/><path fill="#ead1dc" d="m25.164042 187.09448l125.98426 0l0 42.771652l-125.98426 0z" fill-rule="evenodd"/><path stroke="#000000" stroke-width="1.0" stroke-linejoin="round" stroke-linecap="butt" d="m25.164042 187.09448l125.98426 0l0 42.771652l-125.98426 0z" fill-rule="evenodd"/><path fill="#000000" d="m81.924515 213.28032q-0.078125 -0.140625 -0.125 -0.34375q-0.03125 -0.203125 -0.0625 -0.421875q-0.171875 0.1875 -0.40625 0.34375q-0.21875 0.15625 -0.5 0.28125q-0.265625 0.125 -0.578125 0.1875q-0.296875 0.078125 -0.640625 0.078125q-0.5625 0 -1.015625 -0.15625q-0.453125 -0.15625 -0.765625 -0.4375q-0.3125 -0.28125 -0.484375 -0.65625q-0.171875 -0.390625 -0.171875 -0.828125q0 -0.578125 0.234375 -1.015625q0.234375 -0.4375 0.65625 -0.71875q0.421875 -0.296875 1.015625 -0.4375q0.59375 -0.140625 1.328125 -0.140625l1.3125 0l0 -0.5625q0 -0.3125 -0.125 -0.5625q-0.109375 -0.265625 -0.328125 -0.4375q-0.203125 -0.171875 -0.515625 -0.265625q-0.3125 -0.109375 -0.703125 -0.109375q-0.34375 0 -0.640625 0.09375q-0.28125 0.09375 -0.484375 0.25q-0.1875 0.140625 -0.296875 0.34375q-0.09375 0.203125 -0.09375 0.421875l-1.21875 0q0.015625 -0.375 0.203125 -0.75q0.1875 -0.375 0.546875 -0.671875q0.359375 -0.296875 0.875 -0.46875q0.53125 -0.1875 1.1875 -0.1875q0.59375 0 1.109375 0.15625q0.515625 0.140625 0.890625 0.4375q0.375 0.296875 0.578125 0.734375q0.21875 0.4375 0.21875 1.03125l0 3.28125q0 0.34375 0.0625 0.75q0.0625 0.390625 0.1875 0.671875l0 0.109375l-1.25 0zm-2.140625 -0.921875q0.359375 0 0.65625 -0.078125q0.3125 -0.09375 0.5625 -0.25q0.25 -0.15625 0.421875 -0.34375q0.1875 -0.1875 0.296875 -0.390625l0 -1.4375l-1.125 0q-1.046875 0 -1.640625 0.3125q-0.578125 0.3125 -0.578125 0.984375q0 0.265625 0.078125 0.484375q0.09375 0.21875 0.265625 0.390625q0.1875 0.15625 0.453125 0.25q0.265625 0.078125 0.609375 0.078125zm11.451309 -2.515625q0 0.75 -0.1875 1.40625q-0.1875 0.65625 -0.546875 1.140625q-0.34375 0.46875 -0.859375 0.75q-0.515625 0.265625 -1.171875 0.265625q-0.65625 0 -1.140625 -0.203125q-0.484375 -0.203125 -0.84375 -0.59375l0 3.375l-1.203125 0l0 -9.75l1.09375 0l0.0625 0.765625q0.359375 -0.421875 0.84375 -0.65625q0.5 -0.234375 1.15625 -0.234375q0.6875 0 1.203125 0.265625q0.515625 0.265625 0.859375 0.75q0.359375 0.46875 0.546875 1.140625q0.1875 0.65625 0.1875 1.4375l0 0.140625zm-1.203125 -0.140625q0 -0.515625 -0.125 -0.984375q-0.109375 -0.46875 -0.34375 -0.8125q-0.234375 -0.359375 -0.609375 -0.5625q-0.359375 -0.21875 -0.859375 -0.21875q-0.59375 0 -0.984375 0.28125q-0.390625 0.265625 -0.625 0.6875l0 3.390625q0.234375 0.421875 0.625 0.6875q0.390625 0.25 0.984375 0.25q0.5 0 0.859375 -0.203125q0.375 -0.21875 0.609375 -0.5625q0.234375 -0.359375 0.34375 -0.828125q0.125 -0.46875 0.125 -0.984375l0 -0.140625zm9.201309 0.140625q0 0.75 -0.1875 1.40625q-0.1875 0.65625 -0.546875 1.140625q-0.34375 0.46875 -0.859375 0.75q-0.515625 0.265625 -1.171875 0.265625q-0.65625 0 -1.140625 -0.203125q-0.484375 -0.203125 -0.84375 -0.59375l0 3.375l-1.203125 0l0 -9.75l1.09375 0l0.0625 0.765625q0.359375 -0.421875 0.84375 -0.65625q0.5 -0.234375 1.15625 -0.234375q0.6875 0 1.203125 0.265625q0.515625 0.265625 0.859375 0.75q0.359375 0.46875 0.546875 1.140625q0.1875 0.65625 0.1875 1.4375l0 0.140625zm-1.203125 -0.140625q0 -0.515625 -0.125 -0.984375q-0.109375 -0.46875 -0.34375 -0.8125q-0.234375 -0.359375 -0.609375 -0.5625q-0.359375 -0.21875 -0.859375 -0.21875q-0.59375 0 -0.984375 0.28125q-0.390625 0.265625 -0.625 0.6875l0 3.390625q0.234375 0.421875 0.625 0.6875q0.390625 0.25 0.984375 0.25q0.5 0 0.859375 -0.203125q0.375 -0.21875 0.609375 -0.5625q0.234375 -0.359375 0.34375 -0.828125q0.125 -0.46875 0.125 -0.984375l0 -0.140625z" fill-rule="nonzero"/><path fill="#000000" fill-opacity="0.0" d="m364.0223 111.973755l100.06299 0" fill-rule="evenodd"/><path stroke="#000000" stroke-width="1.0" stroke-linejoin="round" stroke-linecap="butt" d="m364.0223 111.973755l94.06299 0" fill-rule="evenodd"/><path fill="#000000" stroke="#000000" stroke-width="1.0" stroke-linecap="butt" d="m458.0853 113.62549l4.5381165 -1.6517334l-4.5381165 -1.6517334z" fill-rule="evenodd"/><path fill="#000000" fill-opacity="0.0" d="m151.1483 208.48032l50.582672 0l0 -96.47244l50.582672 0" fill-rule="evenodd"/><path stroke="#000000" stroke-width="1.0" stroke-linejoin="round" stroke-linecap="butt" d="m151.1483 208.48032l50.582672 0l0 -96.47244l50.582672 0" fill-rule="evenodd"/></g></svg>