<svg version="1.1" viewBox="0.0 0.0 779.7375328083989 287.07086614173227" fill="none" stroke="none" stroke-linecap="square" stroke-miterlimit="10" xmlns:xlink="http://www.w3.org/1999/xlink" xmlns="http://www.w3.org/2000/svg"><clipPath id="p.0"><path d="m0 0l779.73755 0l0 287.07086l-779.73755 0l0 -287.07086z" clip-rule="nonzero"/></clipPath><g clip-path="url(#p.0)"><path fill="#000000" fill-opacity="0.0" d="m0 0l779.73755 0l0 287.07086l-779.73755 0z" fill-rule="evenodd"/><path fill="#000000" fill-opacity="0.0" d="m360.63254 112.490814l168.59842 0l0 42.771652l-168.59842 0z" fill-rule="evenodd"/><path fill="#000000" d="m382.68567 138.72101q0.390625 0 0.75 -0.125q0.375 -0.125 0.65625 -0.34375q0.296875 -0.234375 0.46875 -0.53125q0.1875 -0.296875 0.1875 -0.65625l1.375 0q-0.015625 0.5625 -0.296875 1.078125q-0.28125 0.515625 -0.765625 0.90625q-0.46875 0.375 -1.09375 0.609375q-0.609375 0.234375 -1.28125 0.234375q-0.96875 0 -1.6875 -0.34375q-0.71875 -0.34375 -1.203125 -0.921875q-0.46875 -0.59375 -0.71875 -1.34375q-0.234375 -0.765625 -0.234375 -1.609375l0 -0.328125q0 -0.84375 0.234375 -1.609375q0.25 -0.765625 0.71875 -1.34375q0.484375 -0.578125 1.203125 -0.921875q0.71875 -0.34375 1.6875 -0.34375q0.75 0 1.375 0.234375q0.625 0.234375 1.078125 0.65625q0.46875 0.40625 0.71875 0.96875q0.265625 0.5625 0.265625 1.203125l-1.375 0q0 -0.390625 -0.171875 -0.71875q-0.15625 -0.34375 -0.4375 -0.59375q-0.265625 -0.265625 -0.640625 -0.40625q-0.375 -0.15625 -0.8125 -0.15625q-0.671875 0 -1.140625 0.265625q-0.453125 0.265625 -0.734375 0.703125q-0.28125 0.4375 -0.40625 0.984375q-0.109375 0.53125 -0.109375 1.078125l0 0.328125q0 0.546875 0.109375 1.09375q0.125 0.546875 0.40625 0.984375q0.28125 0.421875 0.734375 0.703125q0.453125 0.265625 1.140625 0.265625zm11.5390625 -7.59375q0.203125 0 0.421875 0.015625q0.21875 0 0.40625 0.03125q0.203125 0.03125 0.375 0.078125q0.171875 0.03125 0.28125 0.078125l-0.203125 1.40625q-0.421875 -0.09375 -0.796875 -0.125q-0.375 -0.046875 -0.796875 -0.046875q-1.015625 0 -1.640625 0.46875q-0.625 0.453125 -0.921875 1.28125l0 5.421875l-1.453125 0l0 -8.453125l1.375 0l0.0625 1.34375q0.515625 -0.703125 1.234375 -1.09375q0.734375 -0.40625 1.65625 -0.40625zm7.7890625 8.765625q-0.890625 0 -1.640625 -0.296875q-0.734375 -0.3125 -1.265625 -0.859375q-0.53125 -0.546875 -0.828125 -1.296875q-0.296875 -0.75 -0.296875 -1.640625l0 -0.328125q0 -1.015625 0.328125 -1.828125q0.328125 -0.8125 0.859375 -1.359375q0.546875 -0.5625 1.234375 -0.859375q0.703125 -0.296875 1.421875 -0.296875q0.921875 0 1.59375 0.3125q0.6875 0.3125 1.140625 0.875q0.453125 0.5625 0.671875 1.328125q0.234375 0.75 0.234375 1.625l0 0.65625l-6.046875 0q0.03125 0.578125 0.21875 1.09375q0.203125 0.5 0.546875 0.875q0.359375 0.375 0.84375 0.59375q0.484375 0.21875 1.0625 0.21875q0.78125 0 1.375 -0.3125q0.609375 -0.3125 1.0 -0.828125l0.890625 0.6875q-0.21875 0.328125 -0.53125 0.625q-0.3125 0.28125 -0.734375 0.515625q-0.40625 0.21875 -0.9375 0.359375q-0.515625 0.140625 -1.140625 0.140625zm-0.1875 -7.578125q-0.4375 0 -0.828125 0.15625q-0.390625 0.15625 -0.703125 0.46875q-0.3125 0.3125 -0.53125 0.765625q-0.203125 0.4375 -0.296875 1.03125l4.546875 0l0 -0.109375q-0.015625 -0.421875 -0.15625 -0.828125q-0.140625 -0.421875 -0.40625 -0.75q-0.265625 -0.328125 -0.671875 -0.53125q-0.390625 -0.203125 -0.953125 -0.203125zm11.6171875 7.421875q-0.09375 -0.171875 -0.140625 -0.40625q-0.046875 -0.25 -0.078125 -0.515625q-0.21875 0.21875 -0.484375 0.421875q-0.265625 0.1875 -0.59375 0.34375q-0.328125 0.140625 -0.703125 0.21875q-0.359375 0.09375 -0.765625 0.09375q-0.671875 0 -1.21875 -0.1875q-0.546875 -0.203125 -0.921875 -0.53125q-0.375 -0.34375 -0.59375 -0.796875q-0.203125 -0.453125 -0.203125 -0.984375q0 -0.703125 0.28125 -1.21875q0.28125 -0.53125 0.78125 -0.875q0.515625 -0.34375 1.21875 -0.515625q0.71875 -0.171875 1.609375 -0.171875l1.578125 0l0 -0.671875q0 -0.375 -0.140625 -0.671875q-0.140625 -0.3125 -0.40625 -0.53125q-0.25 -0.21875 -0.625 -0.328125q-0.375 -0.125 -0.828125 -0.125q-0.4375 0 -0.78125 0.109375q-0.328125 0.109375 -0.5625 0.296875q-0.234375 0.171875 -0.375 0.421875q-0.125 0.25 -0.125 0.515625l-1.453125 0q0.015625 -0.46875 0.234375 -0.90625q0.234375 -0.453125 0.671875 -0.796875q0.4375 -0.359375 1.046875 -0.578125q0.625 -0.21875 1.421875 -0.21875q0.71875 0 1.328125 0.171875q0.625 0.171875 1.0625 0.53125q0.453125 0.359375 0.703125 0.890625q0.265625 0.53125 0.265625 1.234375l0 3.9375q0 0.421875 0.078125 0.890625q0.078125 0.46875 0.21875 0.828125l0 0.125l-1.5 0zm-2.5625 -1.109375q0.421875 0 0.78125 -0.109375q0.375 -0.109375 0.671875 -0.28125q0.3125 -0.1875 0.53125 -0.40625q0.21875 -0.234375 0.34375 -0.484375l0 -1.71875l-1.34375 0q-1.265625 0 -1.96875 0.375q-0.703125 0.375 -0.703125 1.1875q0 0.3125 0.09375 0.578125q0.109375 0.265625 0.3125 0.453125q0.21875 0.1875 0.53125 0.296875q0.328125 0.109375 0.75 0.109375zm10.0234375 -9.390625l0 2.046875l3.21875 0l0 1.109375l-3.21875 0l0 4.59375q0 0.5 0.125 0.828125q0.125 0.3125 0.34375 0.5q0.21875 0.1875 0.5 0.265625q0.296875 0.078125 0.609375 0.078125q0.234375 0 0.484375 -0.015625q0.25 -0.03125 0.484375 -0.0625q0.25 -0.046875 0.453125 -0.09375q0.203125 -0.046875 0.34375 -0.078125l0.203125 1.03125q-0.1875 0.109375 -0.453125 0.1875q-0.25 0.078125 -0.5625 0.140625q-0.296875 0.0625 -0.640625 0.09375q-0.328125 0.03125 -0.671875 0.03125q-0.5625 0 -1.046875 -0.15625q-0.484375 -0.171875 -0.84375 -0.515625q-0.359375 -0.34375 -0.578125 -0.890625q-0.203125 -0.5625 -0.203125 -1.34375l0 -4.59375l-2.21875 0l0 -1.109375l2.21875 0l0 -2.046875l1.453125 0zm9.9140625 10.65625q-0.890625 0 -1.640625 -0.296875q-0.734375 -0.3125 -1.265625 -0.859375q-0.53125 -0.546875 -0.828125 -1.296875q-0.296875 -0.75 -0.296875 -1.640625l0 -0.328125q0 -1.015625 0.328125 -1.828125q0.328125 -0.8125 0.859375 -1.359375q0.546875 -0.5625 1.234375 -0.859375q0.703125 -0.296875 1.421875 -0.296875q0.921875 0 1.59375 0.3125q0.6875 0.3125 1.140625 0.875q0.453125 0.5625 0.671875 1.328125q0.234375 0.75 0.234375 1.625l0 0.65625l-6.046875 0q0.03125 0.578125 0.21875 1.09375q0.203125 0.5 0.546875 0.875q0.359375 0.375 0.84375 0.59375q0.484375 0.21875 1.0625 0.21875q0.78125 0 1.375 -0.3125q0.609375 -0.3125 1.0 -0.828125l0.890625 0.6875q-0.21875 0.328125 -0.53125 0.625q-0.3125 0.28125 -0.734375 0.515625q-0.40625 0.21875 -0.9375 0.359375q-0.515625 0.140625 -1.140625 0.140625zm-0.1875 -7.578125q-0.4375 0 -0.828125 0.15625q-0.390625 0.15625 -0.703125 0.46875q-0.3125 0.3125 -0.53125 0.765625q-0.203125 0.4375 -0.296875 1.03125l4.546875 0l0 -0.109375q-0.015625 -0.421875 -0.15625 -0.828125q-0.140625 -0.421875 -0.40625 -0.75q-0.265625 -0.328125 -0.671875 -0.53125q-0.390625 -0.203125 -0.953125 -0.203125zm12.3828125 3.03125l-5.984375 0l0 -1.1875l5.984375 0l0 1.1875zm10.453125 0.25q0 0.90625 -0.21875 1.703125q-0.21875 0.78125 -0.640625 1.359375q-0.421875 0.578125 -1.046875 0.90625q-0.625 0.328125 -1.421875 0.328125q-0.8125 0 -1.421875 -0.28125q-0.59375 -0.296875 -1.015625 -0.84375l-0.0625 0.96875l-1.328125 0l0 -11.999992l1.4375 0l0 4.4531174q0.421875 -0.515625 1.0 -0.78125q0.59375 -0.28125 1.375 -0.28125q0.8125 0 1.4375 0.328125q0.625 0.3125 1.046875 0.890625q0.421875 0.5625 0.640625 1.359375q0.21875 0.78125 0.21875 1.734375l0 0.15625zm-1.453125 -0.15625q0 -0.625 -0.125 -1.171875q-0.109375 -0.5625 -0.375 -0.984375q-0.265625 -0.4375 -0.703125 -0.6875q-0.421875 -0.25 -1.046875 -0.25q-0.375 0 -0.6875 0.109375q-0.3125 0.09375 -0.5625 0.265625q-0.25 0.171875 -0.4375 0.421875q-0.1875 0.234375 -0.328125 0.515625l0 3.6875q0.140625 0.28125 0.328125 0.53125q0.203125 0.234375 0.453125 0.421875q0.25 0.171875 0.5625 0.265625q0.3125 0.09375 0.6875 0.09375q0.59375 0 1.015625 -0.234375q0.421875 -0.25 0.6875 -0.671875q0.28125 -0.421875 0.40625 -0.96875q0.125 -0.5625 0.125 -1.1875l0 -0.15625zm9.3671875 3.125q-0.421875 0.625 -1.0625 0.984375q-0.625 0.34375 -1.453125 0.34375q-0.65625 0 -1.203125 -0.203125q-0.53125 -0.21875 -0.921875 -0.65625q-0.375 -0.4375 -0.59375 -1.109375q-0.203125 -0.671875 -0.203125 -1.625l0 -5.015625l1.453125 0l0 5.03125q0 0.6875 0.109375 1.140625q0.109375 0.453125 0.328125 0.734375q0.21875 0.265625 0.53125 0.375q0.3125 0.109375 0.734375 0.109375q0.875 0 1.421875 -0.359375q0.546875 -0.359375 0.8125 -0.96875l0 -6.0625l1.453125 0l0 8.453125l-1.3125 0l-0.09375 -1.171875zm4.3515625 -7.28125l4.3125 0l0 7.203125l2.765625 0l0 1.25l-7.078125 0l0 -1.25l2.875 0l0 -5.953125l-2.875 0l0 -1.25zm2.6875 -2.21875q0 -0.359375 0.203125 -0.609375q0.21875 -0.25 0.65625 -0.25q0.4375 0 0.65625 0.25q0.21875 0.25 0.21875 0.609375q0 0.34375 -0.21875 0.578125q-0.21875 0.234375 -0.65625 0.234375q-0.4375 0 -0.65625 -0.234375q-0.203125 -0.234375 -0.203125 -0.578125zm6.9140625 -1.3281174l4.3125 0l0 10.749992l2.765625 0l0 1.25l-7.078125 0l0 -1.25l2.875 0l0 -9.5l-2.875 0l0 -1.2499924zm9.1015625 7.7031174q0 -0.953125 0.234375 -1.734375q0.234375 -0.796875 0.671875 -1.359375q0.453125 -0.578125 1.078125 -0.890625q0.625 -0.328125 1.390625 -0.328125q0.765625 0 1.328125 0.25q0.5625 0.25 0.984375 0.734375l0 -4.3749924l1.4375 0l0 11.999992l-1.328125 0l-0.0625 -0.890625q-0.421875 0.515625 -1.015625 0.78125q-0.578125 0.265625 -1.359375 0.265625q-0.765625 0 -1.390625 -0.328125q-0.609375 -0.328125 -1.046875 -0.90625q-0.4375 -0.578125 -0.6875 -1.359375q-0.234375 -0.796875 -0.234375 -1.703125l0 -0.15625zm1.4375 0.15625q0 0.625 0.125 1.1875q0.140625 0.546875 0.421875 0.96875q0.28125 0.421875 0.703125 0.671875q0.4375 0.234375 1.03125 0.234375q0.375 0 0.671875 -0.078125q0.296875 -0.09375 0.53125 -0.25q0.25 -0.15625 0.4375 -0.375q0.1875 -0.234375 0.328125 -0.5l0 -3.921875q-0.28125 -0.515625 -0.765625 -0.84375q-0.46875 -0.34375 -1.1875 -0.34375q-0.609375 0 -1.046875 0.25q-0.421875 0.25 -0.703125 0.6875q-0.28125 0.421875 -0.421875 0.984375q-0.125 0.546875 -0.125 1.171875l0 0.15625zm12.1640625 4.296875q-0.890625 0 -1.640625 -0.296875q-0.734375 -0.3125 -1.265625 -0.859375q-0.53125 -0.546875 -0.828125 -1.296875q-0.296875 -0.75 -0.296875 -1.640625l0 -0.328125q0 -1.015625 0.328125 -1.828125q0.328125 -0.8125 0.859375 -1.359375q0.546875 -0.5625 1.234375 -0.859375q0.703125 -0.296875 1.421875 -0.296875q0.921875 0 1.59375 0.3125q0.6875 0.3125 1.140625 0.875q0.453125 0.5625 0.671875 1.328125q0.234375 0.75 0.234375 1.625l0 0.65625l-6.046875 0q0.03125 0.578125 0.21875 1.09375q0.203125 0.5 0.546875 0.875q0.359375 0.375 0.84375 0.59375q0.484375 0.21875 1.0625 0.21875q0.78125 0 1.375 -0.3125q0.609375 -0.3125 1.0 -0.828125l0.890625 0.6875q-0.21875 0.328125 -0.53125 0.625q-0.3125 0.28125 -0.734375 0.515625q-0.40625 0.21875 -0.9375 0.359375q-0.515625 0.140625 -1.140625 0.140625zm-0.1875 -7.578125q-0.4375 0 -0.828125 0.15625q-0.390625 0.15625 -0.703125 0.46875q-0.3125 0.3125 -0.53125 0.765625q-0.203125 0.4375 -0.296875 1.03125l4.546875 0l0 -0.109375q-0.015625 -0.421875 -0.15625 -0.828125q-0.140625 -0.421875 -0.40625 -0.75q-0.265625 -0.328125 -0.671875 -0.53125q-0.390625 -0.203125 -0.953125 -0.203125zm11.6015625 -1.1875q0.203125 0 0.421875 0.015625q0.21875 0 0.40625 0.03125q0.203125 0.03125 0.375 0.078125q0.171875 0.03125 0.28125 0.078125l-0.203125 1.40625q-0.421875 -0.09375 -0.796875 -0.125q-0.375 -0.046875 -0.796875 -0.046875q-1.015625 0 -1.640625 0.46875q-0.625 0.453125 -0.921875 1.28125l0 5.421875l-1.453125 0l0 -8.453125l1.375 0l0.0625 1.34375q0.515625 -0.703125 1.234375 -1.09375q0.734375 -0.40625 1.65625 -0.40625z" fill-rule="nonzero"/><path fill="#000000" fill-opacity="0.0" d="m189.60892 133.87665l61.322845 0l0 42.771652l-61.322845 0z" fill-rule="evenodd"/><path fill="#000000" d="m207.75334 158.18747q0 -0.203125 -0.09375 -0.375q-0.078125 -0.171875 -0.28125 -0.3125q-0.203125 -0.15625 -0.53125 -0.265625q-0.328125 -0.125 -0.828125 -0.21875q-0.609375 -0.125 -1.109375 -0.296875q-0.484375 -0.1875 -0.84375 -0.421875q-0.359375 -0.25 -0.5625 -0.578125q-0.1875 -0.328125 -0.1875 -0.765625q0 -0.421875 0.203125 -0.796875q0.203125 -0.375 0.5625 -0.65625q0.375 -0.28125 0.875 -0.4375q0.5 -0.171875 1.109375 -0.171875q0.65625 0 1.171875 0.171875q0.515625 0.171875 0.875 0.46875q0.375 0.296875 0.5625 0.703125q0.203125 0.390625 0.203125 0.859375l-1.203125 0q0 -0.234375 -0.125 -0.453125q-0.109375 -0.21875 -0.3125 -0.375q-0.203125 -0.171875 -0.5 -0.28125q-0.296875 -0.109375 -0.671875 -0.109375q-0.390625 0 -0.6875 0.09375q-0.28125 0.078125 -0.46875 0.21875q-0.1875 0.140625 -0.296875 0.34375q-0.09375 0.1875 -0.09375 0.390625q0 0.203125 0.078125 0.375q0.078125 0.15625 0.265625 0.28125q0.203125 0.125 0.515625 0.234375q0.328125 0.109375 0.828125 0.203125q0.640625 0.140625 1.15625 0.328125q0.515625 0.171875 0.859375 0.421875q0.359375 0.25 0.546875 0.578125q0.1875 0.328125 0.1875 0.765625q0 0.46875 -0.21875 0.859375q-0.203125 0.375 -0.578125 0.65625q-0.375 0.265625 -0.90625 0.421875q-0.53125 0.140625 -1.15625 0.140625q-0.71875 0 -1.28125 -0.1875q-0.546875 -0.1875 -0.9375 -0.5q-0.390625 -0.328125 -0.59375 -0.734375q-0.203125 -0.421875 -0.203125 -0.875l1.203125 0q0.03125 0.375 0.203125 0.640625q0.171875 0.25 0.421875 0.40625q0.265625 0.15625 0.578125 0.21875q0.3125 0.0625 0.609375 0.0625q0.765625 0 1.203125 -0.28125q0.453125 -0.28125 0.453125 -0.75zm6.170059 -6.875l0 1.703125l2.6875 0l0 0.9375l-2.6875 0l0 3.828125q0 0.40625 0.09375 0.671875q0.109375 0.265625 0.296875 0.4375q0.1875 0.15625 0.421875 0.21875q0.234375 0.0625 0.5 0.0625q0.203125 0 0.40625 -0.015625q0.203125 -0.03125 0.40625 -0.0625q0.203125 -0.03125 0.375 -0.0625q0.171875 -0.046875 0.28125 -0.0625l0.171875 0.84375q-0.15625 0.09375 -0.375 0.171875q-0.203125 0.0625 -0.46875 0.109375q-0.25 0.046875 -0.53125 0.0625q-0.28125 0.03125 -0.5625 0.03125q-0.46875 0 -0.875 -0.125q-0.40625 -0.140625 -0.703125 -0.421875q-0.296875 -0.296875 -0.484375 -0.75q-0.171875 -0.46875 -0.171875 -1.109375l0 -3.828125l-1.84375 0l0 -0.9375l1.84375 0l0 -1.703125l1.21875 0zm9.779434 8.75q-0.078125 -0.140625 -0.125 -0.34375q-0.03125 -0.203125 -0.0625 -0.421875q-0.171875 0.1875 -0.40625 0.34375q-0.21875 0.15625 -0.5 0.28125q-0.265625 0.125 -0.578125 0.1875q-0.296875 0.078125 -0.640625 0.078125q-0.5625 0 -1.015625 -0.15625q-0.453125 -0.15625 -0.765625 -0.4375q-0.3125 -0.28125 -0.484375 -0.65625q-0.171875 -0.390625 -0.171875 -0.828125q0 -0.578125 0.234375 -1.015625q0.234375 -0.4375 0.65625 -0.71875q0.421875 -0.296875 1.015625 -0.4375q0.59375 -0.140625 1.328125 -0.140625l1.3125 0l0 -0.5625q0 -0.3125 -0.125 -0.5625q-0.109375 -0.265625 -0.328125 -0.4375q-0.203125 -0.171875 -0.515625 -0.265625q-0.3125 -0.109375 -0.703125 -0.109375q-0.34375 0 -0.640625 0.09375q-0.28125 0.09375 -0.484375 0.25q-0.1875 0.140625 -0.296875 0.34375q-0.09375 0.203125 -0.09375 0.421875l-1.21875 0q0.015625 -0.375 0.203125 -0.75q0.1875 -0.375 0.546875 -0.671875q0.359375 -0.296875 0.875 -0.46875q0.53125 -0.1875 1.1875 -0.1875q0.59375 0 1.109375 0.15625q0.515625 0.140625 0.890625 0.4375q0.375 0.296875 0.578125 0.734375q0.21875 0.4375 0.21875 1.03125l0 3.28125q0 0.34375 0.0625 0.75q0.0625 0.390625 0.1875 0.671875l0 0.109375l-1.25 0zm-2.140625 -0.921875q0.359375 0 0.65625 -0.078125q0.3125 -0.09375 0.5625 -0.25q0.25 -0.15625 0.421875 -0.34375q0.1875 -0.1875 0.296875 -0.390625l0 -1.4375l-1.125 0q-1.046875 0 -1.640625 0.3125q-0.578125 0.3125 -0.578125 0.984375q0 0.265625 0.078125 0.484375q0.09375 0.21875 0.265625 0.390625q0.1875 0.15625 0.453125 0.25q0.265625 0.078125 0.609375 0.078125zm8.498184 0.078125q0.328125 0 0.640625 -0.09375q0.3125 -0.109375 0.546875 -0.296875q0.25 -0.1875 0.390625 -0.4375q0.140625 -0.25 0.15625 -0.546875l1.140625 0q-0.015625 0.46875 -0.25 0.90625q-0.234375 0.421875 -0.640625 0.75q-0.390625 0.3125 -0.90625 0.5q-0.515625 0.1875 -1.078125 0.1875q-0.796875 0 -1.390625 -0.28125q-0.59375 -0.28125 -1.0 -0.765625q-0.40625 -0.484375 -0.609375 -1.125q-0.1875 -0.640625 -0.1875 -1.34375l0 -0.265625q0 -0.703125 0.1875 -1.328125q0.203125 -0.640625 0.609375 -1.125q0.40625 -0.484375 1.0 -0.765625q0.59375 -0.296875 1.390625 -0.296875q0.625 0 1.15625 0.203125q0.53125 0.1875 0.90625 0.53125q0.375 0.34375 0.59375 0.8125q0.21875 0.46875 0.21875 1.0l-1.140625 0q-0.015625 -0.3125 -0.15625 -0.59375q-0.125 -0.28125 -0.359375 -0.5q-0.21875 -0.21875 -0.53125 -0.34375q-0.3125 -0.125 -0.6875 -0.125q-0.546875 0 -0.9375 0.234375q-0.375 0.21875 -0.609375 0.578125q-0.234375 0.359375 -0.34375 0.8125q-0.09375 0.453125 -0.09375 0.90625l0 0.265625q0 0.46875 0.09375 0.921875q0.109375 0.453125 0.34375 0.8125q0.234375 0.359375 0.609375 0.59375q0.375 0.21875 0.9375 0.21875zm7.107559 -2.4375l-0.875 0.84375l0 2.4375l-1.21875 0l0 -10.0l1.21875 0l0 6.125l0.78125 -0.84375l2.3125 -2.328125l1.46875 0l-2.859375 2.9375l3.296875 4.109375l-1.53125 0l-2.59375 -3.28125z" fill-rule="nonzero"/><path fill="#000000" fill-opacity="0.0" d="m277.95538 110.05039l27.800201 0l0 23.811028l54.876953 0" fill-rule="evenodd"/><path stroke="#000000" stroke-width="1.0" stroke-linejoin="round" stroke-linecap="butt" d="m277.95538 110.05039l27.800201 0l0 23.811028l48.876953 0" fill-rule="evenodd"/><path fill="#000000" stroke="#000000" stroke-width="1.0" stroke-linecap="butt" d="m354.63254 135.51315l4.5381165 -1.6517334l-4.5381165 -1.6517334z" fill-rule="evenodd"/><path fill="#cfe2f3" d="m77.81628 215.57217l125.984245 0l0 42.771667l-125.984245 0z" fill-rule="evenodd"/><path stroke="#000000" stroke-width="1.0" stroke-linejoin="round" stroke-linecap="butt" d="m77.81628 215.57217l125.984245 0l0 42.771667l-125.984245 0z" fill-rule="evenodd"/><path fill="#000000" d="m103.91214 238.32051q0 0.75 -0.1875 1.40625q-0.171875 0.65625 -0.53125 1.140625q-0.34375 0.46875 -0.859375 0.75q-0.515625 0.265625 -1.1875 0.265625q-0.671875 0 -1.171875 -0.234375q-0.5 -0.234375 -0.859375 -0.6875l-0.046875 0.796875l-1.109375 0l0 -10.0l1.203125 0l0 3.71875q0.34375 -0.4375 0.828125 -0.65625q0.484375 -0.234375 1.140625 -0.234375q0.671875 0 1.1875 0.265625q0.53125 0.265625 0.875 0.75q0.359375 0.46875 0.53125 1.140625q0.1875 0.65625 0.1875 1.4375l0 0.140625zm-1.203125 -0.140625q0 -0.515625 -0.109375 -0.984375q-0.09375 -0.46875 -0.3125 -0.8125q-0.21875 -0.359375 -0.578125 -0.5625q-0.359375 -0.21875 -0.875 -0.21875q-0.3125 0 -0.578125 0.09375q-0.25 0.078125 -0.46875 0.234375q-0.203125 0.140625 -0.359375 0.34375q-0.15625 0.1875 -0.265625 0.421875l0 3.078125q0.109375 0.234375 0.265625 0.4375q0.171875 0.1875 0.375 0.34375q0.21875 0.15625 0.46875 0.234375q0.265625 0.078125 0.578125 0.078125q0.484375 0 0.84375 -0.203125q0.359375 -0.203125 0.578125 -0.546875q0.234375 -0.359375 0.328125 -0.8125q0.109375 -0.46875 0.109375 -0.984375l0 -0.140625zm7.810684 2.609375q-0.359375 0.515625 -0.890625 0.8125q-0.515625 0.28125 -1.203125 0.28125q-0.5625 0 -1.015625 -0.171875q-0.4375 -0.171875 -0.765625 -0.53125q-0.3125 -0.359375 -0.484375 -0.921875q-0.171875 -0.5625 -0.171875 -1.359375l0 -4.1875l1.203125 0l0 4.203125q0 0.578125 0.09375 0.953125q0.09375 0.375 0.265625 0.609375q0.1875 0.21875 0.453125 0.3125q0.265625 0.078125 0.609375 0.078125q0.734375 0 1.1875 -0.296875q0.453125 -0.296875 0.671875 -0.796875l0 -5.0625l1.203125 0l0 7.046875l-1.09375 0l-0.0625 -0.96875zm3.6231842 -6.078125l3.59375 0l0 6.0l2.296875 0l0 1.046875l-5.890625 0l0 -1.046875l2.390625 0l0 -4.953125l-2.390625 0l0 -1.046875zm2.234375 -1.84375q0 -0.296875 0.171875 -0.5q0.1875 -0.203125 0.546875 -0.203125q0.359375 0 0.53125 0.203125q0.1875 0.203125 0.1875 0.5q0 0.296875 -0.1875 0.5q-0.171875 0.1875 -0.53125 0.1875q-0.359375 0 -0.546875 -0.1875q-0.171875 -0.203125 -0.171875 -0.5zm5.763809 -1.109375l3.59375 0l0 8.953125l2.296875 0l0 1.046875l-5.890625 0l0 -1.046875l2.390625 0l0 -7.90625l-2.390625 0l0 -1.046875zm7.576309 6.421875q0 -0.78125 0.1875 -1.4375q0.203125 -0.671875 0.5625 -1.140625q0.375 -0.484375 0.890625 -0.75q0.53125 -0.265625 1.171875 -0.265625q0.640625 0 1.109375 0.21875q0.46875 0.203125 0.8125 0.609375l0 -3.65625l1.203125 0l0 10.0l-1.109375 0l-0.046875 -0.734375q-0.34375 0.421875 -0.84375 0.640625q-0.484375 0.21875 -1.140625 0.21875q-0.625 0 -1.15625 -0.265625q-0.515625 -0.28125 -0.875 -0.75q-0.359375 -0.484375 -0.5625 -1.140625q-0.203125 -0.65625 -0.203125 -1.40625l0 -0.140625zm1.203125 0.140625q0 0.515625 0.109375 0.984375q0.109375 0.453125 0.34375 0.8125q0.234375 0.34375 0.578125 0.546875q0.359375 0.203125 0.875 0.203125q0.296875 0 0.546875 -0.0625q0.25 -0.078125 0.453125 -0.203125q0.203125 -0.140625 0.359375 -0.328125q0.15625 -0.1875 0.265625 -0.421875l0 -3.265625q-0.234375 -0.421875 -0.640625 -0.703125q-0.390625 -0.28125 -0.984375 -0.28125q-0.5 0 -0.859375 0.21875q-0.359375 0.203125 -0.59375 0.5625q-0.234375 0.34375 -0.34375 0.8125q-0.109375 0.46875 -0.109375 0.984375l0 0.140625zm15.215118 -3.609375l3.59375 0l0 6.0l2.296875 0l0 1.046875l-5.890625 0l0 -1.046875l2.390625 0l0 -4.953125l-2.390625 0l0 -1.046875zm2.234375 -1.84375q0 -0.296875 0.171875 -0.5q0.1875 -0.203125 0.546875 -0.203125q0.359375 0 0.53125 0.203125q0.1875 0.203125 0.1875 0.5q0 0.296875 -0.1875 0.5q-0.171875 0.1875 -0.53125 0.1875q-0.359375 0 -0.546875 -0.1875q-0.171875 -0.203125 -0.171875 -0.5zm6.123184 1.84375l0.03125 0.671875q0.21875 -0.375 0.5625 -0.578125q0.34375 -0.21875 0.84375 -0.21875q0.96875 0 1.296875 0.75q0.203125 -0.328125 0.546875 -0.53125q0.34375 -0.21875 0.828125 -0.21875q0.78125 0 1.1875 0.484375q0.421875 0.46875 0.421875 1.421875l0 5.265625l-1.140625 0l0 -5.265625q0 -0.890625 -0.8125 -0.890625q-0.21875 0 -0.375 0.0625q-0.15625 0.0625 -0.265625 0.171875q-0.09375 0.09375 -0.15625 0.234375q-0.0625 0.125 -0.078125 0.265625l0 5.421875l-1.15625 0l0 -5.28125q0 -0.421875 -0.1875 -0.640625q-0.1875 -0.234375 -0.59375 -0.234375q-0.375 0 -0.59375 0.15625q-0.203125 0.15625 -0.296875 0.390625l0 5.609375l-1.140625 0l0 -7.046875l1.078125 0zm12.076309 7.046875q-0.078125 -0.140625 -0.125 -0.34375q-0.03125 -0.203125 -0.0625 -0.421875q-0.171875 0.1875 -0.40625 0.34375q-0.21875 0.15625 -0.5 0.28125q-0.265625 0.125 -0.578125 0.1875q-0.296875 0.078125 -0.640625 0.078125q-0.5625 0 -1.015625 -0.15625q-0.453125 -0.15625 -0.765625 -0.4375q-0.3125 -0.28125 -0.484375 -0.65625q-0.171875 -0.390625 -0.171875 -0.828125q0 -0.578125 0.234375 -1.015625q0.234375 -0.4375 0.65625 -0.71875q0.421875 -0.296875 1.015625 -0.4375q0.59375 -0.140625 1.328125 -0.140625l1.3125 0l0 -0.5625q0 -0.3125 -0.125 -0.5625q-0.109375 -0.265625 -0.328125 -0.4375q-0.203125 -0.171875 -0.515625 -0.265625q-0.3125 -0.109375 -0.703125 -0.109375q-0.34375 0 -0.640625 0.09375q-0.28125 0.09375 -0.484375 0.25q-0.1875 0.140625 -0.296875 0.34375q-0.09375 0.203125 -0.09375 0.421875l-1.21875 0q0.015625 -0.375 0.203125 -0.75q0.1875 -0.375 0.546875 -0.671875q0.359375 -0.296875 0.875 -0.46875q0.53125 -0.1875 1.1875 -0.1875q0.59375 0 1.109375 0.15625q0.515625 0.140625 0.890625 0.4375q0.375 0.296875 0.578125 0.734375q0.21875 0.4375 0.21875 1.03125l0 3.28125q0 0.34375 0.0625 0.75q0.0625 0.390625 0.1875 0.671875l0 0.109375l-1.25 0zm-2.140625 -0.921875q0.359375 0 0.65625 -0.078125q0.3125 -0.09375 0.5625 -0.25q0.25 -0.15625 0.421875 -0.34375q0.1875 -0.1875 0.296875 -0.390625l0 -1.4375l-1.125 0q-1.046875 0 -1.640625 0.3125q-0.578125 0.3125 -0.578125 0.984375q0 0.265625 0.078125 0.484375q0.09375 0.21875 0.265625 0.390625q0.1875 0.15625 0.453125 0.25q0.265625 0.078125 0.609375 0.078125zm5.279434 -2.65625q0 -0.78125 0.1875 -1.4375q0.203125 -0.671875 0.5625 -1.140625q0.375 -0.484375 0.890625 -0.75q0.515625 -0.265625 1.171875 -0.265625q0.65625 0 1.140625 0.234375q0.5 0.234375 0.84375 0.65625l0.0625 -0.765625l1.09375 0l0 6.890625q0 0.703125 -0.21875 1.234375q-0.21875 0.546875 -0.625 0.921875q-0.390625 0.375 -0.9375 0.5625q-0.546875 0.203125 -1.203125 0.203125q-0.28125 0 -0.640625 -0.0625q-0.34375 -0.046875 -0.703125 -0.1875q-0.359375 -0.140625 -0.703125 -0.375q-0.328125 -0.234375 -0.5625 -0.578125l0.625 -0.734375q0.21875 0.265625 0.453125 0.453125q0.234375 0.1875 0.46875 0.296875q0.25 0.109375 0.484375 0.15625q0.25 0.0625 0.484375 0.0625q0.421875 0 0.765625 -0.125q0.359375 -0.125 0.59375 -0.375q0.25 -0.234375 0.375 -0.59375q0.140625 -0.34375 0.140625 -0.796875l0 -0.609375q-0.359375 0.40625 -0.84375 0.625q-0.46875 0.203125 -1.109375 0.203125q-0.640625 0 -1.15625 -0.265625q-0.515625 -0.28125 -0.890625 -0.75q-0.359375 -0.484375 -0.5625 -1.140625q-0.1875 -0.65625 -0.1875 -1.40625l0 -0.140625zm1.203125 0.140625q0 0.515625 0.109375 0.984375q0.109375 0.453125 0.34375 0.8125q0.234375 0.34375 0.578125 0.546875q0.359375 0.203125 0.875 0.203125q0.3125 0 0.5625 -0.078125q0.25 -0.078125 0.4375 -0.203125q0.203125 -0.140625 0.359375 -0.328125q0.15625 -0.1875 0.28125 -0.421875l0 -3.21875q-0.125 -0.234375 -0.28125 -0.40625q-0.15625 -0.1875 -0.359375 -0.3125q-0.203125 -0.140625 -0.453125 -0.21875q-0.234375 -0.078125 -0.546875 -0.078125q-0.5 0 -0.859375 0.21875q-0.359375 0.203125 -0.59375 0.5625q-0.234375 0.34375 -0.34375 0.8125q-0.109375 0.46875 -0.109375 0.984375l0 0.140625zm10.138809 3.5625q-0.75 0 -1.375 -0.25q-0.609375 -0.25 -1.0625 -0.703125q-0.4375 -0.453125 -0.6875 -1.078125q-0.25 -0.625 -0.25 -1.375l0 -0.265625q0 -0.859375 0.265625 -1.53125q0.28125 -0.671875 0.734375 -1.125q0.453125 -0.46875 1.03125 -0.71875q0.578125 -0.25 1.1875 -0.25q0.75 0 1.3125 0.265625q0.578125 0.265625 0.953125 0.734375q0.375 0.453125 0.5625 1.09375q0.1875 0.625 0.1875 1.359375l0 0.546875l-5.03125 0q0.03125 0.484375 0.1875 0.90625q0.171875 0.421875 0.453125 0.734375q0.296875 0.3125 0.6875 0.5q0.40625 0.171875 0.90625 0.171875q0.640625 0 1.140625 -0.25q0.5 -0.265625 0.828125 -0.6875l0.734375 0.5625q-0.171875 0.265625 -0.4375 0.515625q-0.265625 0.25 -0.609375 0.4375q-0.34375 0.1875 -0.78125 0.296875q-0.4375 0.109375 -0.9375 0.109375zm-0.15625 -6.3125q-0.375 0 -0.703125 0.140625q-0.3125 0.125 -0.578125 0.390625q-0.265625 0.25 -0.453125 0.625q-0.171875 0.375 -0.234375 0.859375l3.78125 0l0 -0.078125q-0.015625 -0.359375 -0.140625 -0.703125q-0.109375 -0.34375 -0.328125 -0.609375q-0.21875 -0.28125 -0.5625 -0.453125q-0.328125 -0.171875 -0.78125 -0.171875z" fill-rule="nonzero"/><path fill="#cfe2f3" d="m236.74016 215.57217l125.98424 0l0 42.771667l-125.98424 0z" fill-rule="evenodd"/><path stroke="#000000" stroke-width="1.0" stroke-linejoin="round" stroke-linecap="butt" d="m236.74016 215.57217l125.98424 0l0 42.771667l-125.98424 0z" fill-rule="evenodd"/><path fill="#000000" d="m269.49045 234.58614q0.171875 0 0.34375 0.015625q0.1875 0 0.34375 0.03125q0.171875 0.015625 0.3125 0.046875q0.140625 0.03125 0.234375 0.078125l-0.171875 1.171875q-0.34375 -0.078125 -0.65625 -0.109375q-0.3125 -0.03125 -0.65625 -0.03125q-0.859375 0 -1.390625 0.390625q-0.515625 0.375 -0.765625 1.0625l0 4.515625l-1.203125 0l0 -7.046875l1.140625 0l0.0625 1.125q0.4375 -0.578125 1.03125 -0.90625q0.609375 -0.34375 1.375 -0.34375zm7.9513245 6.203125q-0.359375 0.515625 -0.890625 0.8125q-0.515625 0.28125 -1.203125 0.28125q-0.5625 0 -1.015625 -0.171875q-0.4375 -0.171875 -0.765625 -0.53125q-0.3125 -0.359375 -0.484375 -0.921875q-0.171875 -0.5625 -0.171875 -1.359375l0 -4.1875l1.203125 0l0 4.203125q0 0.578125 0.09375 0.953125q0.09375 0.375 0.265625 0.609375q0.1875 0.21875 0.453125 0.3125q0.265625 0.078125 0.609375 0.078125q0.734375 0 1.1875 -0.296875q0.453125 -0.296875 0.671875 -0.796875l0 -5.0625l1.203125 0l0 7.046875l-1.09375 0l-0.0625 -0.96875zm4.513794 -6.078125l0.078125 1.046875q0.390625 -0.546875 0.9375 -0.859375q0.5625 -0.3125 1.25 -0.3125q0.5625 0 1.015625 0.15625q0.453125 0.15625 0.765625 0.484375q0.328125 0.328125 0.5 0.84375q0.171875 0.515625 0.171875 1.21875l0 4.46875l-1.203125 0l0 -4.4375q0 -0.46875 -0.109375 -0.796875q-0.109375 -0.328125 -0.3125 -0.53125q-0.203125 -0.203125 -0.5 -0.296875q-0.296875 -0.09375 -0.6875 -0.09375q-0.59375 0 -1.0625 0.3125q-0.453125 0.296875 -0.71875 0.796875l0 5.046875l-1.21875 0l0 -7.046875l1.09375 0zm15.105743 0l3.59375 0l0 6.0l2.296875 0l0 1.046875l-5.890625 0l0 -1.046875l2.390625 0l0 -4.953125l-2.390625 0l0 -1.046875zm2.234375 -1.84375q0 -0.296875 0.171875 -0.5q0.1875 -0.203125 0.546875 -0.203125q0.359375 0 0.53125 0.203125q0.1875 0.203125 0.1875 0.5q0 0.296875 -0.1875 0.5q-0.171875 0.1875 -0.53125 0.1875q-0.359375 0 -0.546875 -0.1875q-0.171875 -0.203125 -0.171875 -0.5zm6.1231995 1.84375l0.03125 0.671875q0.21875 -0.375 0.5625 -0.578125q0.34375 -0.21875 0.84375 -0.21875q0.96875 0 1.296875 0.75q0.203125 -0.328125 0.546875 -0.53125q0.34375 -0.21875 0.828125 -0.21875q0.78125 0 1.1875 0.484375q0.421875 0.46875 0.421875 1.421875l0 5.265625l-1.140625 0l0 -5.265625q0 -0.890625 -0.8125 -0.890625q-0.21875 0 -0.375 0.0625q-0.15625 0.0625 -0.265625 0.171875q-0.09375 0.09375 -0.15625 0.234375q-0.0625 0.125 -0.078125 0.265625l0 5.421875l-1.15625 0l0 -5.28125q0 -0.421875 -0.1875 -0.640625q-0.1875 -0.234375 -0.59375 -0.234375q-0.375 0 -0.59375 0.15625q-0.203125 0.15625 -0.296875 0.390625l0 5.609375l-1.140625 0l0 -7.046875l1.078125 0zm12.076294 7.046875q-0.078125 -0.140625 -0.125 -0.34375q-0.03125 -0.203125 -0.0625 -0.421875q-0.171875 0.1875 -0.40625 0.34375q-0.21875 0.15625 -0.5 0.28125q-0.265625 0.125 -0.578125 0.1875q-0.296875 0.078125 -0.640625 0.078125q-0.5625 0 -1.015625 -0.15625q-0.453125 -0.15625 -0.765625 -0.4375q-0.3125 -0.28125 -0.484375 -0.65625q-0.171875 -0.390625 -0.171875 -0.828125q0 -0.578125 0.234375 -1.015625q0.234375 -0.4375 0.65625 -0.71875q0.421875 -0.296875 1.015625 -0.4375q0.59375 -0.140625 1.328125 -0.140625l1.3125 0l0 -0.5625q0 -0.3125 -0.125 -0.5625q-0.109375 -0.265625 -0.328125 -0.4375q-0.203125 -0.171875 -0.515625 -0.265625q-0.3125 -0.109375 -0.703125 -0.109375q-0.34375 0 -0.640625 0.09375q-0.28125 0.09375 -0.484375 0.25q-0.1875 0.140625 -0.296875 0.34375q-0.09375 0.203125 -0.09375 0.421875l-1.21875 0q0.015625 -0.375 0.203125 -0.75q0.1875 -0.375 0.546875 -0.671875q0.359375 -0.296875 0.875 -0.46875q0.53125 -0.1875 1.1875 -0.1875q0.59375 0 1.109375 0.15625q0.515625 0.140625 0.890625 0.4375q0.375 0.296875 0.578125 0.734375q0.21875 0.4375 0.21875 1.03125l0 3.28125q0 0.34375 0.0625 0.75q0.0625 0.390625 0.1875 0.671875l0 0.109375l-1.25 0zm-2.140625 -0.921875q0.359375 0 0.65625 -0.078125q0.3125 -0.09375 0.5625 -0.25q0.25 -0.15625 0.421875 -0.34375q0.1875 -0.1875 0.296875 -0.390625l0 -1.4375l-1.125 0q-1.046875 0 -1.640625 0.3125q-0.578125 0.3125 -0.578125 0.984375q0 0.265625 0.078125 0.484375q0.09375 0.21875 0.265625 0.390625q0.1875 0.15625 0.453125 0.25q0.265625 0.078125 0.609375 0.078125zm5.2794495 -2.65625q0 -0.78125 0.1875 -1.4375q0.203125 -0.671875 0.5625 -1.140625q0.375 -0.484375 0.890625 -0.75q0.515625 -0.265625 1.171875 -0.265625q0.65625 0 1.140625 0.234375q0.5 0.234375 0.84375 0.65625l0.0625 -0.765625l1.09375 0l0 6.890625q0 0.703125 -0.21875 1.234375q-0.21875 0.546875 -0.625 0.921875q-0.390625 0.375 -0.9375 0.5625q-0.546875 0.203125 -1.203125 0.203125q-0.28125 0 -0.640625 -0.0625q-0.34375 -0.046875 -0.703125 -0.1875q-0.359375 -0.140625 -0.703125 -0.375q-0.328125 -0.234375 -0.5625 -0.578125l0.625 -0.734375q0.21875 0.265625 0.453125 0.453125q0.234375 0.1875 0.46875 0.296875q0.25 0.109375 0.484375 0.15625q0.25 0.0625 0.484375 0.0625q0.421875 0 0.765625 -0.125q0.359375 -0.125 0.59375 -0.375q0.25 -0.234375 0.375 -0.59375q0.140625 -0.34375 0.140625 -0.796875l0 -0.609375q-0.359375 0.40625 -0.84375 0.625q-0.46875 0.203125 -1.109375 0.203125q-0.640625 0 -1.15625 -0.265625q-0.515625 -0.28125 -0.890625 -0.75q-0.359375 -0.484375 -0.5625 -1.140625q-0.1875 -0.65625 -0.1875 -1.40625l0 -0.140625zm1.203125 0.140625q0 0.515625 0.109375 0.984375q0.109375 0.453125 0.34375 0.8125q0.234375 0.34375 0.578125 0.546875q0.359375 0.203125 0.875 0.203125q0.3125 0 0.5625 -0.078125q0.25 -0.078125 0.4375 -0.203125q0.203125 -0.140625 0.359375 -0.328125q0.15625 -0.1875 0.28125 -0.421875l0 -3.21875q-0.125 -0.234375 -0.28125 -0.40625q-0.15625 -0.1875 -0.359375 -0.3125q-0.203125 -0.140625 -0.453125 -0.21875q-0.234375 -0.078125 -0.546875 -0.078125q-0.5 0 -0.859375 0.21875q-0.359375 0.203125 -0.59375 0.5625q-0.234375 0.34375 -0.34375 0.8125q-0.109375 0.46875 -0.109375 0.984375l0 0.140625zm10.138794 3.5625q-0.75 0 -1.375 -0.25q-0.609375 -0.25 -1.0625 -0.703125q-0.4375 -0.453125 -0.6875 -1.078125q-0.25 -0.625 -0.25 -1.375l0 -0.265625q0 -0.859375 0.265625 -1.53125q0.28125 -0.671875 0.734375 -1.125q0.453125 -0.46875 1.03125 -0.71875q0.578125 -0.25 1.1875 -0.25q0.75 0 1.3125 0.265625q0.578125 0.265625 0.953125 0.734375q0.375 0.453125 0.5625 1.09375q0.1875 0.625 0.1875 1.359375l0 0.546875l-5.03125 0q0.03125 0.484375 0.1875 0.90625q0.171875 0.421875 0.453125 0.734375q0.296875 0.3125 0.6875 0.5q0.40625 0.171875 0.90625 0.171875q0.640625 0 1.140625 -0.25q0.5 -0.265625 0.828125 -0.6875l0.734375 0.5625q-0.171875 0.265625 -0.4375 0.515625q-0.265625 0.25 -0.609375 0.4375q-0.34375 0.1875 -0.78125 0.296875q-0.4375 0.109375 -0.9375 0.109375zm-0.15625 -6.3125q-0.375 0 -0.703125 0.140625q-0.3125 0.125 -0.578125 0.390625q-0.265625 0.25 -0.453125 0.625q-0.171875 0.375 -0.234375 0.859375l3.78125 0l0 -0.078125q-0.015625 -0.359375 -0.140625 -0.703125q-0.109375 -0.34375 -0.328125 -0.609375q-0.21875 -0.28125 -0.5625 -0.453125q-0.328125 -0.171875 -0.78125 -0.171875z" fill-rule="nonzero"/><path fill="#000000" fill-opacity="0.0" d="m134.75853 205.08792l0 0c0 -10.471664 5.4147644 -18.960617 12.094223 -18.960617l61.323364 0c6.6794586 0 12.094223 -8.488968 12.094223 -18.960632l0 0c0 10.471664 5.4147644 18.960632 12.094223 18.960632l61.323364 0c6.6794434 0 12.094238 8.488953 12.094238 18.960617z" fill-rule="evenodd"/><path fill="#000000" fill-opacity="0.0" d="m134.75853 205.08792l0 0c0 -10.471664 5.4147644 -18.960617 12.094223 -18.960617l61.323364 0c6.6794586 0 12.094223 -8.488968 12.094223 -18.960632l0 0c0 10.471664 5.4147644 18.960632 12.094223 18.960632l61.323364 0c6.6794434 0 12.094238 8.488953 12.094238 18.960617" fill-rule="evenodd"/><path stroke="#000000" stroke-width="1.0" stroke-linejoin="round" stroke-linecap="butt" d="m134.75853 205.08792l0 0c0 -10.471664 5.4147644 -18.960617 12.094223 -18.960617l61.323364 0c6.6794586 0 12.094223 -8.488968 12.094223 -18.960632l0 0c0 10.471664 5.4147644 18.960632 12.094223 18.960632l61.323364 0c6.6794434 0 12.094238 8.488953 12.094238 18.960617" fill-rule="evenodd"/><path fill="#000000" fill-opacity="0.0" d="m250.93176 155.26247l54.823944 0l0 -21.354324l51.380768 0" fill-rule="evenodd"/><path stroke="#000000" stroke-width="1.0" stroke-linejoin="round" stroke-linecap="butt" d="m250.93176 155.26247l54.823944 0l0 -21.354324l51.380768 0" fill-rule="evenodd"/><path fill="#000000" fill-opacity="0.0" d="m619.45404 68.92388l133.25989 0l0 42.77166l-133.25989 0z" fill-rule="evenodd"/><path fill="#000000" d="m641.1895 91.67221q0 0.75 -0.1875 1.40625q-0.171875 0.65625 -0.53125 1.140625q-0.34375 0.46875 -0.859375 0.75q-0.515625 0.265625 -1.1875 0.265625q-0.671875 0 -1.171875 -0.234375q-0.5 -0.234375 -0.859375 -0.6875l-0.046875 0.796875l-1.109375 0l0 -10.0l1.203125 0l0 3.71875q0.34375 -0.4375 0.828125 -0.65625q0.484375 -0.234375 1.140625 -0.234375q0.671875 0 1.1875 0.265625q0.53125 0.265625 0.875 0.75q0.359375 0.46875 0.53125 1.140625q0.1875 0.65625 0.1875 1.4375l0 0.140625zm-1.203125 -0.140625q0 -0.515625 -0.109375 -0.984375q-0.09375 -0.46875 -0.3125 -0.8125q-0.21875 -0.359375 -0.578125 -0.5625q-0.359375 -0.21875 -0.875 -0.21875q-0.3125 0 -0.578125 0.09375q-0.25 0.078125 -0.46875 0.234375q-0.203125 0.140625 -0.359375 0.34375q-0.15625 0.1875 -0.265625 0.421875l0 3.078125q0.109375 0.234375 0.265625 0.4375q0.171875 0.1875 0.375 0.34375q0.21875 0.15625 0.46875 0.234375q0.265625 0.078125 0.578125 0.078125q0.484375 0 0.84375 -0.203125q0.359375 -0.203125 0.578125 -0.546875q0.234375 -0.359375 0.328125 -0.8125q0.109375 -0.46875 0.109375 -0.984375l0 -0.140625zm7.81073 2.609375q-0.359375 0.515625 -0.890625 0.8125q-0.515625 0.28125 -1.203125 0.28125q-0.5625 0 -1.015625 -0.171875q-0.4375 -0.171875 -0.765625 -0.53125q-0.3125 -0.359375 -0.484375 -0.921875q-0.171875 -0.5625 -0.171875 -1.359375l0 -4.1875l1.203125 0l0 4.203125q0 0.578125 0.09375 0.953125q0.09375 0.375 0.265625 0.609375q0.1875 0.21875 0.453125 0.3125q0.265625 0.078125 0.609375 0.078125q0.734375 0 1.1875 -0.296875q0.453125 -0.296875 0.671875 -0.796875l0 -5.0625l1.203125 0l0 7.046875l-1.09375 0l-0.0625 -0.96875zm3.623169 -6.078125l3.59375 0l0 6.0l2.296875 0l0 1.046875l-5.890625 0l0 -1.046875l2.390625 0l0 -4.953125l-2.390625 0l0 -1.046875zm2.234375 -1.84375q0 -0.296875 0.171875 -0.5q0.1875 -0.203125 0.546875 -0.203125q0.359375 0 0.53125 0.203125q0.1875 0.203125 0.1875 0.5q0 0.296875 -0.1875 0.5q-0.171875 0.1875 -0.53125 0.1875q-0.359375 0 -0.546875 -0.1875q-0.171875 -0.203125 -0.171875 -0.5zm5.763794 -1.109375l3.59375 0l0 8.953125l2.296875 0l0 1.046875l-5.890625 0l0 -1.046875l2.390625 0l0 -7.90625l-2.390625 0l0 -1.046875zm7.576294 6.421875q0 -0.78125 0.1875 -1.4375q0.203125 -0.671875 0.5625 -1.140625q0.375 -0.484375 0.890625 -0.75q0.53125 -0.265625 1.171875 -0.265625q0.640625 0 1.109375 0.21875q0.46875 0.203125 0.8125 0.609375l0 -3.65625l1.203125 0l0 10.0l-1.109375 0l-0.046875 -0.734375q-0.34375 0.421875 -0.84375 0.640625q-0.484375 0.21875 -1.140625 0.21875q-0.625 0 -1.15625 -0.265625q-0.515625 -0.28125 -0.875 -0.75q-0.359375 -0.484375 -0.5625 -1.140625q-0.203125 -0.65625 -0.203125 -1.40625l0 -0.140625zm1.203125 0.140625q0 0.515625 0.109375 0.984375q0.109375 0.453125 0.34375 0.8125q0.234375 0.34375 0.578125 0.546875q0.359375 0.203125 0.875 0.203125q0.296875 0 0.546875 -0.0625q0.25 -0.078125 0.453125 -0.203125q0.203125 -0.140625 0.359375 -0.328125q0.15625 -0.1875 0.265625 -0.421875l0 -3.265625q-0.234375 -0.421875 -0.640625 -0.703125q-0.390625 -0.28125 -0.984375 -0.28125q-0.5 0 -0.859375 0.21875q-0.359375 0.203125 -0.59375 0.5625q-0.234375 0.34375 -0.34375 0.8125q-0.109375 0.46875 -0.109375 0.984375l0 0.140625zm10.138855 3.5625q-0.75 0 -1.375 -0.25q-0.609375 -0.25 -1.0625 -0.703125q-0.4375 -0.453125 -0.6875 -1.078125q-0.25 -0.625 -0.25 -1.375l0 -0.265625q0 -0.859375 0.265625 -1.53125q0.28125 -0.671875 0.734375 -1.125q0.453125 -0.46875 1.03125 -0.71875q0.578125 -0.25 1.1875 -0.25q0.75 0 1.3125 0.265625q0.578125 0.265625 0.953125 0.734375q0.375 0.453125 0.5625 1.09375q0.1875 0.625 0.1875 1.359375l0 0.546875l-5.03125 0q0.03125 0.484375 0.1875 0.90625q0.171875 0.421875 0.453125 0.734375q0.296875 0.3125 0.6875 0.5q0.40625 0.171875 0.90625 0.171875q0.640625 0 1.140625 -0.25q0.5 -0.265625 0.828125 -0.6875l0.734375 0.5625q-0.171875 0.265625 -0.4375 0.515625q-0.265625 0.25 -0.609375 0.4375q-0.34375 0.1875 -0.78125 0.296875q-0.4375 0.109375 -0.9375 0.109375zm-0.15625 -6.3125q-0.375 0 -0.703125 0.140625q-0.3125 0.125 -0.578125 0.390625q-0.265625 0.25 -0.453125 0.625q-0.171875 0.375 -0.234375 0.859375l3.78125 0l0 -0.078125q-0.015625 -0.359375 -0.140625 -0.703125q-0.109375 -0.34375 -0.328125 -0.609375q-0.21875 -0.28125 -0.5625 -0.453125q-0.328125 -0.171875 -0.78125 -0.171875zm9.654419 -0.984375q0.171875 0 0.34375 0.015625q0.1875 0 0.34375 0.03125q0.171875 0.015625 0.3125 0.046875q0.140625 0.03125 0.234375 0.078125l-0.171875 1.171875q-0.34375 -0.078125 -0.65625 -0.109375q-0.3125 -0.03125 -0.65625 -0.03125q-0.859375 0 -1.390625 0.390625q-0.515625 0.375 -0.765625 1.0625l0 4.515625l-1.203125 0l0 -7.046875l1.140625 0l0.0625 1.125q0.4375 -0.578125 1.03125 -0.90625q0.609375 -0.34375 1.375 -0.34375zm11.574463 0.125l3.59375 0l0 6.0l2.296875 0l0 1.046875l-5.890625 0l0 -1.046875l2.390625 0l0 -4.953125l-2.390625 0l0 -1.046875zm2.234375 -1.84375q0 -0.296875 0.171875 -0.5q0.1875 -0.203125 0.546875 -0.203125q0.359375 0 0.53125 0.203125q0.1875 0.203125 0.1875 0.5q0 0.296875 -0.1875 0.5q-0.171875 0.1875 -0.53125 0.1875q-0.359375 0 -0.546875 -0.1875q-0.171875 -0.203125 -0.171875 -0.5zm6.12323 1.84375l0.03125 0.671875q0.21875 -0.375 0.5625 -0.578125q0.34375 -0.21875 0.84375 -0.21875q0.96875 0 1.296875 0.75q0.203125 -0.328125 0.546875 -0.53125q0.34375 -0.21875 0.828125 -0.21875q0.78125 0 1.1875 0.484375q0.421875 0.46875 0.421875 1.421875l0 5.265625l-1.140625 0l0 -5.265625q0 -0.890625 -0.8125 -0.890625q-0.21875 0 -0.375 0.0625q-0.15625 0.0625 -0.265625 0.171875q-0.09375 0.09375 -0.15625 0.234375q-0.0625 0.125 -0.078125 0.265625l0 5.421875l-1.15625 0l0 -5.28125q0 -0.421875 -0.1875 -0.640625q-0.1875 -0.234375 -0.59375 -0.234375q-0.375 0 -0.59375 0.15625q-0.203125 0.15625 -0.296875 0.390625l0 5.609375l-1.140625 0l0 -7.046875l1.078125 0zm12.076294 7.046875q-0.078125 -0.140625 -0.125 -0.34375q-0.03125 -0.203125 -0.0625 -0.421875q-0.171875 0.1875 -0.40625 0.34375q-0.21875 0.15625 -0.5 0.28125q-0.265625 0.125 -0.578125 0.1875q-0.296875 0.078125 -0.640625 0.078125q-0.5625 0 -1.015625 -0.15625q-0.453125 -0.15625 -0.765625 -0.4375q-0.3125 -0.28125 -0.484375 -0.65625q-0.171875 -0.390625 -0.171875 -0.828125q0 -0.578125 0.234375 -1.015625q0.234375 -0.4375 0.65625 -0.71875q0.421875 -0.296875 1.015625 -0.4375q0.59375 -0.140625 1.328125 -0.140625l1.3125 0l0 -0.5625q0 -0.3125 -0.125 -0.5625q-0.109375 -0.265625 -0.328125 -0.4375q-0.203125 -0.171875 -0.515625 -0.265625q-0.3125 -0.109375 -0.703125 -0.109375q-0.34375 0 -0.640625 0.09375q-0.28125 0.09375 -0.484375 0.25q-0.1875 0.140625 -0.296875 0.34375q-0.09375 0.203125 -0.09375 0.421875l-1.21875 0q0.015625 -0.375 0.203125 -0.75q0.1875 -0.375 0.546875 -0.671875q0.359375 -0.296875 0.875 -0.46875q0.53125 -0.1875 1.1875 -0.1875q0.59375 0 1.109375 0.15625q0.515625 0.140625 0.890625 0.4375q0.375 0.296875 0.578125 0.734375q0.21875 0.4375 0.21875 1.03125l0 3.28125q0 0.34375 0.0625 0.75q0.0625 0.390625 0.1875 0.671875l0 0.109375l-1.25 0zm-2.140625 -0.921875q0.359375 0 0.65625 -0.078125q0.3125 -0.09375 0.5625 -0.25q0.25 -0.15625 0.421875 -0.34375q0.1875 -0.1875 0.296875 -0.390625l0 -1.4375l-1.125 0q-1.046875 0 -1.640625 0.3125q-0.578125 0.3125 -0.578125 0.984375q0 0.265625 0.078125 0.484375q0.09375 0.21875 0.265625 0.390625q0.1875 0.15625 0.453125 0.25q0.265625 0.078125 0.609375 0.078125zm5.279419 -2.65625q0 -0.78125 0.1875 -1.4375q0.203125 -0.671875 0.5625 -1.140625q0.375 -0.484375 0.890625 -0.75q0.515625 -0.265625 1.171875 -0.265625q0.65625 0 1.140625 0.234375q0.5 0.234375 0.84375 0.65625l0.0625 -0.765625l1.09375 0l0 6.890625q0 0.703125 -0.21875 1.234375q-0.21875 0.546875 -0.625 0.921875q-0.390625 0.375 -0.9375 0.5625q-0.546875 0.203125 -1.203125 0.203125q-0.28125 0 -0.640625 -0.0625q-0.34375 -0.046875 -0.703125 -0.1875q-0.359375 -0.140625 -0.703125 -0.375q-0.328125 -0.234375 -0.5625 -0.578125l0.625 -0.734375q0.21875 0.265625 0.453125 0.453125q0.234375 0.1875 0.46875 0.296875q0.25 0.109375 0.484375 0.15625q0.25 0.0625 0.484375 0.0625q0.421875 0 0.765625 -0.125q0.359375 -0.125 0.59375 -0.375q0.25 -0.234375 0.375 -0.59375q0.140625 -0.34375 0.140625 -0.796875l0 -0.609375q-0.359375 0.40625 -0.84375 0.625q-0.46875 0.203125 -1.109375 0.203125q-0.640625 0 -1.15625 -0.265625q-0.515625 -0.28125 -0.890625 -0.75q-0.359375 -0.484375 -0.5625 -1.140625q-0.1875 -0.65625 -0.1875 -1.40625l0 -0.140625zm1.203125 0.140625q0 0.515625 0.109375 0.984375q0.109375 0.453125 0.34375 0.8125q0.234375 0.34375 0.578125 0.546875q0.359375 0.203125 0.875 0.203125q0.3125 0 0.5625 -0.078125q0.25 -0.078125 0.4375 -0.203125q0.203125 -0.140625 0.359375 -0.328125q0.15625 -0.1875 0.28125 -0.421875l0 -3.21875q-0.125 -0.234375 -0.28125 -0.40625q-0.15625 -0.1875 -0.359375 -0.3125q-0.203125 -0.140625 -0.453125 -0.21875q-0.234375 -0.078125 -0.546875 -0.078125q-0.5 0 -0.859375 0.21875q-0.359375 0.203125 -0.59375 0.5625q-0.234375 0.34375 -0.34375 0.8125q-0.109375 0.46875 -0.109375 0.984375l0 0.140625zm10.138794 3.5625q-0.75 0 -1.375 -0.25q-0.609375 -0.25 -1.0625 -0.703125q-0.4375 -0.453125 -0.6875 -1.078125q-0.25 -0.625 -0.25 -1.375l0 -0.265625q0 -0.859375 0.265625 -1.53125q0.28125 -0.671875 0.734375 -1.125q0.453125 -0.46875 1.03125 -0.71875q0.578125 -0.25 1.1875 -0.25q0.75 0 1.3125 0.265625q0.578125 0.265625 0.953125 0.734375q0.375 0.453125 0.5625 1.09375q0.1875 0.625 0.1875 1.359375l0 0.546875l-5.03125 0q0.03125 0.484375 0.1875 0.90625q0.171875 0.421875 0.453125 0.734375q0.296875 0.3125 0.6875 0.5q0.40625 0.171875 0.90625 0.171875q0.640625 0 1.140625 -0.25q0.5 -0.265625 0.828125 -0.6875l0.734375 0.5625q-0.171875 0.265625 -0.4375 0.515625q-0.265625 0.25 -0.609375 0.4375q-0.34375 0.1875 -0.78125 0.296875q-0.4375 0.109375 -0.9375 0.109375zm-0.15625 -6.3125q-0.375 0 -0.703125 0.140625q-0.3125 0.125 -0.578125 0.390625q-0.265625 0.25 -0.453125 0.625q-0.171875 0.375 -0.234375 0.859375l3.78125 0l0 -0.078125q-0.015625 -0.359375 -0.140625 -0.703125q-0.109375 -0.34375 -0.328125 -0.609375q-0.21875 -0.28125 -0.5625 -0.453125q-0.328125 -0.171875 -0.78125 -0.171875z" fill-rule="nonzero"/><path fill="#cfe2f3" d="m623.09186 156.05774l125.98425 0l0 42.771652l-125.98425 0z" fill-rule="evenodd"/><path stroke="#000000" stroke-width="1.0" stroke-linejoin="round" stroke-linecap="butt" d="m623.09186 156.05774l125.98425 0l0 42.771652l-125.98425 0z" fill-rule="evenodd"/><path fill="#000000" d="m649.18774 178.80606q0 0.75 -0.1875 1.40625q-0.171875 0.65625 -0.53125 1.140625q-0.34375 0.46875 -0.859375 0.75q-0.515625 0.265625 -1.1875 0.265625q-0.671875 0 -1.171875 -0.234375q-0.5 -0.234375 -0.859375 -0.6875l-0.046875 0.796875l-1.109375 0l0 -10.0l1.203125 0l0 3.71875q0.34375 -0.4375 0.828125 -0.65625q0.484375 -0.234375 1.140625 -0.234375q0.671875 0 1.1875 0.265625q0.53125 0.265625 0.875 0.75q0.359375 0.46875 0.53125 1.140625q0.1875 0.65625 0.1875 1.4375l0 0.140625zm-1.203125 -0.140625q0 -0.515625 -0.109375 -0.984375q-0.09375 -0.46875 -0.3125 -0.8125q-0.21875 -0.359375 -0.578125 -0.5625q-0.359375 -0.21875 -0.875 -0.21875q-0.3125 0 -0.578125 0.09375q-0.25 0.078125 -0.46875 0.234375q-0.203125 0.140625 -0.359375 0.34375q-0.15625 0.1875 -0.265625 0.421875l0 3.078125q0.109375 0.234375 0.265625 0.4375q0.171875 0.1875 0.375 0.34375q0.21875 0.15625 0.46875 0.234375q0.265625 0.078125 0.578125 0.078125q0.484375 0 0.84375 -0.203125q0.359375 -0.203125 0.578125 -0.546875q0.234375 -0.359375 0.328125 -0.8125q0.109375 -0.46875 0.109375 -0.984375l0 -0.140625zm7.810669 2.609375q-0.359375 0.515625 -0.890625 0.8125q-0.515625 0.28125 -1.203125 0.28125q-0.5625 0 -1.015625 -0.171875q-0.4375 -0.171875 -0.765625 -0.53125q-0.3125 -0.359375 -0.484375 -0.921875q-0.171875 -0.5625 -0.171875 -1.359375l0 -4.1875l1.203125 0l0 4.203125q0 0.578125 0.09375 0.953125q0.09375 0.375 0.265625 0.609375q0.1875 0.21875 0.453125 0.3125q0.265625 0.078125 0.609375 0.078125q0.734375 0 1.1875 -0.296875q0.453125 -0.296875 0.671875 -0.796875l0 -5.0625l1.203125 0l0 7.046875l-1.09375 0l-0.0625 -0.96875zm3.623169 -6.078125l3.59375 0l0 6.0l2.296875 0l0 1.046875l-5.890625 0l0 -1.046875l2.390625 0l0 -4.953125l-2.390625 0l0 -1.046875zm2.234375 -1.84375q0 -0.296875 0.171875 -0.5q0.1875 -0.203125 0.546875 -0.203125q0.359375 0 0.53125 0.203125q0.1875 0.203125 0.1875 0.5q0 0.296875 -0.1875 0.5q-0.171875 0.1875 -0.53125 0.1875q-0.359375 0 -0.546875 -0.1875q-0.171875 -0.203125 -0.171875 -0.5zm5.763794 -1.109375l3.59375 0l0 8.953125l2.296875 0l0 1.046875l-5.890625 0l0 -1.046875l2.390625 0l0 -7.90625l-2.390625 0l0 -1.046875zm7.576355 6.421875q0 -0.78125 0.1875 -1.4375q0.203125 -0.671875 0.5625 -1.140625q0.375 -0.484375 0.890625 -0.75q0.53125 -0.265625 1.171875 -0.265625q0.640625 0 1.109375 0.21875q0.46875 0.203125 0.8125 0.609375l0 -3.65625l1.203125 0l0 10.0l-1.109375 0l-0.046875 -0.734375q-0.34375 0.421875 -0.84375 0.640625q-0.484375 0.21875 -1.140625 0.21875q-0.625 0 -1.15625 -0.265625q-0.515625 -0.28125 -0.875 -0.75q-0.359375 -0.484375 -0.5625 -1.140625q-0.203125 -0.65625 -0.203125 -1.40625l0 -0.140625zm1.203125 0.140625q0 0.515625 0.109375 0.984375q0.109375 0.453125 0.34375 0.8125q0.234375 0.34375 0.578125 0.546875q0.359375 0.203125 0.875 0.203125q0.296875 0 0.546875 -0.0625q0.25 -0.078125 0.453125 -0.203125q0.203125 -0.140625 0.359375 -0.328125q0.15625 -0.1875 0.265625 -0.421875l0 -3.265625q-0.234375 -0.421875 -0.640625 -0.703125q-0.390625 -0.28125 -0.984375 -0.28125q-0.5 0 -0.859375 0.21875q-0.359375 0.203125 -0.59375 0.5625q-0.234375 0.34375 -0.34375 0.8125q-0.109375 0.46875 -0.109375 0.984375l0 0.140625zm15.215088 -3.609375l3.59375 0l0 6.0l2.296875 0l0 1.046875l-5.890625 0l0 -1.046875l2.390625 0l0 -4.953125l-2.390625 0l0 -1.046875zm2.234375 -1.84375q0 -0.296875 0.171875 -0.5q0.1875 -0.203125 0.546875 -0.203125q0.359375 0 0.53125 0.203125q0.1875 0.203125 0.1875 0.5q0 0.296875 -0.1875 0.5q-0.171875 0.1875 -0.53125 0.1875q-0.359375 0 -0.546875 -0.1875q-0.171875 -0.203125 -0.171875 -0.5zm6.123169 1.84375l0.03125 0.671875q0.21875 -0.375 0.5625 -0.578125q0.34375 -0.21875 0.84375 -0.21875q0.96875 0 1.296875 0.75q0.203125 -0.328125 0.546875 -0.53125q0.34375 -0.21875 0.828125 -0.21875q0.78125 0 1.1875 0.484375q0.421875 0.46875 0.421875 1.421875l0 5.265625l-1.140625 0l0 -5.265625q0 -0.890625 -0.8125 -0.890625q-0.21875 0 -0.375 0.0625q-0.15625 0.0625 -0.265625 0.171875q-0.09375 0.09375 -0.15625 0.234375q-0.0625 0.125 -0.078125 0.265625l0 5.421875l-1.15625 0l0 -5.28125q0 -0.421875 -0.1875 -0.640625q-0.1875 -0.234375 -0.59375 -0.234375q-0.375 0 -0.59375 0.15625q-0.203125 0.15625 -0.296875 0.390625l0 5.609375l-1.140625 0l0 -7.046875l1.078125 0zm12.076355 7.046875q-0.078125 -0.140625 -0.125 -0.34375q-0.03125 -0.203125 -0.0625 -0.421875q-0.171875 0.1875 -0.40625 0.34375q-0.21875 0.15625 -0.5 0.28125q-0.265625 0.125 -0.578125 0.1875q-0.296875 0.078125 -0.640625 0.078125q-0.5625 0 -1.015625 -0.15625q-0.453125 -0.15625 -0.765625 -0.4375q-0.3125 -0.28125 -0.484375 -0.65625q-0.171875 -0.390625 -0.171875 -0.828125q0 -0.578125 0.234375 -1.015625q0.234375 -0.4375 0.65625 -0.71875q0.421875 -0.296875 1.015625 -0.4375q0.59375 -0.140625 1.328125 -0.140625l1.3125 0l0 -0.5625q0 -0.3125 -0.125 -0.5625q-0.109375 -0.265625 -0.328125 -0.4375q-0.203125 -0.171875 -0.515625 -0.265625q-0.3125 -0.109375 -0.703125 -0.109375q-0.34375 0 -0.640625 0.09375q-0.28125 0.09375 -0.484375 0.25q-0.1875 0.140625 -0.296875 0.34375q-0.09375 0.203125 -0.09375 0.421875l-1.21875 0q0.015625 -0.375 0.203125 -0.75q0.1875 -0.375 0.546875 -0.671875q0.359375 -0.296875 0.875 -0.46875q0.53125 -0.1875 1.1875 -0.1875q0.59375 0 1.109375 0.15625q0.515625 0.140625 0.890625 0.4375q0.375 0.296875 0.578125 0.734375q0.21875 0.4375 0.21875 1.03125l0 3.28125q0 0.34375 0.0625 0.75q0.0625 0.390625 0.1875 0.671875l0 0.109375l-1.25 0zm-2.140625 -0.921875q0.359375 0 0.65625 -0.078125q0.3125 -0.09375 0.5625 -0.25q0.25 -0.15625 0.421875 -0.34375q0.1875 -0.1875 0.296875 -0.390625l0 -1.4375l-1.125 0q-1.046875 0 -1.640625 0.3125q-0.578125 0.3125 -0.578125 0.984375q0 0.265625 0.078125 0.484375q0.09375 0.21875 0.265625 0.390625q0.1875 0.15625 0.453125 0.25q0.265625 0.078125 0.609375 0.078125zm5.279419 -2.65625q0 -0.78125 0.1875 -1.4375q0.203125 -0.671875 0.5625 -1.140625q0.375 -0.484375 0.890625 -0.75q0.515625 -0.265625 1.171875 -0.265625q0.65625 0 1.140625 0.234375q0.5 0.234375 0.84375 0.65625l0.0625 -0.765625l1.09375 0l0 6.890625q0 0.703125 -0.21875 1.234375q-0.21875 0.546875 -0.625 0.921875q-0.390625 0.375 -0.9375 0.5625q-0.546875 0.203125 -1.203125 0.203125q-0.28125 0 -0.640625 -0.0625q-0.34375 -0.046875 -0.703125 -0.1875q-0.359375 -0.140625 -0.703125 -0.375q-0.328125 -0.234375 -0.5625 -0.578125l0.625 -0.734375q0.21875 0.265625 0.453125 0.453125q0.234375 0.1875 0.46875 0.296875q0.25 0.109375 0.484375 0.15625q0.25 0.0625 0.484375 0.0625q0.421875 0 0.765625 -0.125q0.359375 -0.125 0.59375 -0.375q0.25 -0.234375 0.375 -0.59375q0.140625 -0.34375 0.140625 -0.796875l0 -0.609375q-0.359375 0.40625 -0.84375 0.625q-0.46875 0.203125 -1.109375 0.203125q-0.640625 0 -1.15625 -0.265625q-0.515625 -0.28125 -0.890625 -0.75q-0.359375 -0.484375 -0.5625 -1.140625q-0.1875 -0.65625 -0.1875 -1.40625l0 -0.140625zm1.203125 0.140625q0 0.515625 0.109375 0.984375q0.109375 0.453125 0.34375 0.8125q0.234375 0.34375 0.578125 0.546875q0.359375 0.203125 0.875 0.203125q0.3125 0 0.5625 -0.078125q0.25 -0.078125 0.4375 -0.203125q0.203125 -0.140625 0.359375 -0.328125q0.15625 -0.1875 0.28125 -0.421875l0 -3.21875q-0.125 -0.234375 -0.28125 -0.40625q-0.15625 -0.1875 -0.359375 -0.3125q-0.203125 -0.140625 -0.453125 -0.21875q-0.234375 -0.078125 -0.546875 -0.078125q-0.5 0 -0.859375 0.21875q-0.359375 0.203125 -0.59375 0.5625q-0.234375 0.34375 -0.34375 0.8125q-0.109375 0.46875 -0.109375 0.984375l0 0.140625zm10.138794 3.5625q-0.75 0 -1.375 -0.25q-0.609375 -0.25 -1.0625 -0.703125q-0.4375 -0.453125 -0.6875 -1.078125q-0.25 -0.625 -0.25 -1.375l0 -0.265625q0 -0.859375 0.265625 -1.53125q0.28125 -0.671875 0.734375 -1.125q0.453125 -0.46875 1.03125 -0.71875q0.578125 -0.25 1.1875 -0.25q0.75 0 1.3125 0.265625q0.578125 0.265625 0.953125 0.734375q0.375 0.453125 0.5625 1.09375q0.1875 0.625 0.1875 1.359375l0 0.546875l-5.03125 0q0.03125 0.484375 0.1875 0.90625q0.171875 0.421875 0.453125 0.734375q0.296875 0.3125 0.6875 0.5q0.40625 0.171875 0.90625 0.171875q0.640625 0 1.140625 -0.25q0.5 -0.265625 0.828125 -0.6875l0.734375 0.5625q-0.171875 0.265625 -0.4375 0.515625q-0.265625 0.25 -0.609375 0.4375q-0.34375 0.1875 -0.78125 0.296875q-0.4375 0.109375 -0.9375 0.109375zm-0.15625 -6.3125q-0.375 0 -0.703125 0.140625q-0.3125 0.125 -0.578125 0.390625q-0.265625 0.25 -0.453125 0.625q-0.171875 0.375 -0.234375 0.859375l3.78125 0l0 -0.078125q-0.015625 -0.359375 -0.140625 -0.703125q-0.109375 -0.34375 -0.328125 -0.609375q-0.21875 -0.28125 -0.5625 -0.453125q-0.328125 -0.171875 -0.78125 -0.171875z" fill-rule="nonzero"/><path fill="#fff2cc" d="m623.09186 115.70735l125.98425 0l0 21.385818l-125.98425 0z" fill-rule="evenodd"/><path stroke="#000000" stroke-width="1.0" stroke-linejoin="round" stroke-linecap="butt" d="m623.09186 115.70735l125.98425 0l0 21.385818l-125.98425 0z" fill-rule="evenodd"/><path fill="#000000" d="m649.18774 127.762764q0 0.7499924 -0.1875 1.4062424q-0.171875 0.65625 -0.53125 1.140625q-0.34375 0.46875 -0.859375 0.75q-0.515625 0.265625 -1.1875 0.265625q-0.671875 0 -1.171875 -0.234375q-0.5 -0.234375 -0.859375 -0.6875l-0.046875 0.796875l-1.109375 0l0 -9.999992l1.203125 0l0 3.71875q0.34375 -0.4375 0.828125 -0.65625q0.484375 -0.234375 1.140625 -0.234375q0.671875 0 1.1875 0.265625q0.53125 0.265625 0.875 0.75q0.359375 0.46875 0.53125 1.140625q0.1875 0.65625 0.1875 1.4375l0 0.140625zm-1.203125 -0.140625q0 -0.515625 -0.109375 -0.984375q-0.09375 -0.46875 -0.3125 -0.8125q-0.21875 -0.359375 -0.578125 -0.5625q-0.359375 -0.21875 -0.875 -0.21875q-0.3125 0 -0.578125 0.09375q-0.25 0.078125 -0.46875 0.234375q-0.203125 0.140625 -0.359375 0.34375q-0.15625 0.1875 -0.265625 0.421875l0 3.0781174q0.109375 0.234375 0.265625 0.4375q0.171875 0.1875 0.375 0.34375q0.21875 0.15625 0.46875 0.234375q0.265625 0.078125 0.578125 0.078125q0.484375 0 0.84375 -0.203125q0.359375 -0.203125 0.578125 -0.546875q0.234375 -0.359375 0.328125 -0.8125q0.109375 -0.46875 0.109375 -0.9843674l0 -0.140625zm7.810669 2.6093674q-0.359375 0.515625 -0.890625 0.8125q-0.515625 0.28125 -1.203125 0.28125q-0.5625 0 -1.015625 -0.171875q-0.4375 -0.171875 -0.765625 -0.53125q-0.3125 -0.359375 -0.484375 -0.921875q-0.171875 -0.5625 -0.171875 -1.359375l0 -4.1874924l1.203125 0l0 4.2031174q0 0.578125 0.09375 0.953125q0.09375 0.375 0.265625 0.609375q0.1875 0.21875 0.453125 0.3125q0.265625 0.078125 0.609375 0.078125q0.734375 0 1.1875 -0.296875q0.453125 -0.296875 0.671875 -0.796875l0 -5.0624924l1.203125 0l0 7.0468674l-1.09375 0l-0.0625 -0.96875zm3.623169 -6.0781174l3.59375 0l0 5.9999924l2.296875 0l0 1.046875l-5.890625 0l0 -1.046875l2.390625 0l0 -4.9531174l-2.390625 0l0 -1.046875zm2.234375 -1.84375q0 -0.296875 0.171875 -0.5q0.1875 -0.203125 0.546875 -0.203125q0.359375 0 0.53125 0.203125q0.1875 0.203125 0.1875 0.5q0 0.296875 -0.1875 0.5q-0.171875 0.1875 -0.53125 0.1875q-0.359375 0 -0.546875 -0.1875q-0.171875 -0.203125 -0.171875 -0.5zm5.763794 -1.109375l3.59375 0l0 8.953117l2.296875 0l0 1.046875l-5.890625 0l0 -1.046875l2.390625 0l0 -7.9062424l-2.390625 0l0 -1.046875zm7.576355 6.421875q0 -0.78125 0.1875 -1.4375q0.203125 -0.671875 0.5625 -1.140625q0.375 -0.484375 0.890625 -0.75q0.53125 -0.265625 1.171875 -0.265625q0.640625 0 1.109375 0.21875q0.46875 0.203125 0.8125 0.609375l0 -3.65625l1.203125 0l0 9.999992l-1.109375 0l-0.046875 -0.734375q-0.34375 0.421875 -0.84375 0.640625q-0.484375 0.21875 -1.140625 0.21875q-0.625 0 -1.15625 -0.265625q-0.515625 -0.28125 -0.875 -0.75q-0.359375 -0.484375 -0.5625 -1.140625q-0.203125 -0.65625 -0.203125 -1.4062424l0 -0.140625zm1.203125 0.140625q0 0.5156174 0.109375 0.9843674q0.109375 0.453125 0.34375 0.8125q0.234375 0.34375 0.578125 0.546875q0.359375 0.203125 0.875 0.203125q0.296875 0 0.546875 -0.0625q0.25 -0.078125 0.453125 -0.203125q0.203125 -0.140625 0.359375 -0.328125q0.15625 -0.1875 0.265625 -0.421875l0 -3.2656174q-0.234375 -0.421875 -0.640625 -0.703125q-0.390625 -0.28125 -0.984375 -0.28125q-0.5 0 -0.859375 0.21875q-0.359375 0.203125 -0.59375 0.5625q-0.234375 0.34375 -0.34375 0.8125q-0.109375 0.46875 -0.109375 0.984375l0 0.140625zm12.966919 0q0 0.7499924 -0.1875 1.4062424q-0.1875 0.65625 -0.546875 1.140625q-0.34375 0.46875 -0.859375 0.75q-0.515625 0.265625 -1.171875 0.265625q-0.65625 0 -1.140625 -0.203125q-0.484375 -0.203125 -0.84375 -0.59375l0 3.375l-1.203125 0l0 -9.749992l1.09375 0l0.0625 0.765625q0.359375 -0.421875 0.84375 -0.65625q0.5 -0.234375 1.15625 -0.234375q0.6875 0 1.203125 0.265625q0.515625 0.265625 0.859375 0.75q0.359375 0.46875 0.546875 1.140625q0.1875 0.65625 0.1875 1.4375l0 0.140625zm-1.203125 -0.140625q0 -0.515625 -0.125 -0.984375q-0.109375 -0.46875 -0.34375 -0.8125q-0.234375 -0.359375 -0.609375 -0.5625q-0.359375 -0.21875 -0.859375 -0.21875q-0.59375 0 -0.984375 0.28125q-0.390625 0.265625 -0.625 0.6875l0 3.3906174q0.234375 0.421875 0.625 0.6875q0.390625 0.25 0.984375 0.25q0.5 0 0.859375 -0.203125q0.375 -0.21875 0.609375 -0.5625q0.234375 -0.359375 0.34375 -0.828125q0.125 -0.46875 0.125 -0.9843674l0 -0.140625zm7.888794 3.5781174q-0.078125 -0.140625 -0.125 -0.34375q-0.03125 -0.203125 -0.0625 -0.421875q-0.171875 0.1875 -0.40625 0.34375q-0.21875 0.15625 -0.5 0.28125q-0.265625 0.125 -0.578125 0.1875q-0.296875 0.078125 -0.640625 0.078125q-0.5625 0 -1.015625 -0.15625q-0.453125 -0.15625 -0.765625 -0.4375q-0.3125 -0.28125 -0.484375 -0.65625q-0.171875 -0.390625 -0.171875 -0.828125q0 -0.578125 0.234375 -1.015625q0.234375 -0.43749237 0.65625 -0.7187424q0.421875 -0.296875 1.015625 -0.4375q0.59375 -0.140625 1.328125 -0.140625l1.3125 0l0 -0.5625q0 -0.3125 -0.125 -0.5625q-0.109375 -0.265625 -0.328125 -0.4375q-0.203125 -0.171875 -0.515625 -0.265625q-0.3125 -0.109375 -0.703125 -0.109375q-0.34375 0 -0.640625 0.09375q-0.28125 0.09375 -0.484375 0.25q-0.1875 0.140625 -0.296875 0.34375q-0.09375 0.203125 -0.09375 0.421875l-1.21875 0q0.015625 -0.375 0.203125 -0.75q0.1875 -0.375 0.546875 -0.671875q0.359375 -0.296875 0.875 -0.46875q0.53125 -0.1875 1.1875 -0.1875q0.59375 0 1.109375 0.15625q0.515625 0.140625 0.890625 0.4375q0.375 0.296875 0.578125 0.734375q0.21875 0.4375 0.21875 1.03125l0 3.2812424q0 0.34375 0.0625 0.75q0.0625 0.390625 0.1875 0.671875l0 0.109375l-1.25 0zm-2.140625 -0.921875q0.359375 0 0.65625 -0.078125q0.3125 -0.09375 0.5625 -0.25q0.25 -0.15625 0.421875 -0.34375q0.1875 -0.1875 0.296875 -0.390625l0 -1.4374924l-1.125 0q-1.046875 0 -1.640625 0.31249237q-0.578125 0.3125 -0.578125 0.984375q0 0.265625 0.078125 0.484375q0.09375 0.21875 0.265625 0.390625q0.1875 0.15625 0.453125 0.25q0.265625 0.078125 0.609375 0.078125zm8.498169 0.078125q0.328125 0 0.640625 -0.09375q0.3125 -0.109375 0.546875 -0.296875q0.25 -0.1875 0.390625 -0.4375q0.140625 -0.25 0.15625 -0.546875l1.140625 0q-0.015625 0.46875 -0.25 0.90625q-0.234375 0.421875 -0.640625 0.75q-0.390625 0.3125 -0.90625 0.5q-0.515625 0.1875 -1.078125 0.1875q-0.796875 0 -1.390625 -0.28125q-0.59375 -0.28125 -1.0 -0.765625q-0.40625 -0.484375 -0.609375 -1.125q-0.1875 -0.640625 -0.1875 -1.3437424l0 -0.265625q0 -0.703125 0.1875 -1.328125q0.203125 -0.640625 0.609375 -1.125q0.40625 -0.484375 1.0 -0.765625q0.59375 -0.296875 1.390625 -0.296875q0.625 0 1.15625 0.203125q0.53125 0.1875 0.90625 0.53125q0.375 0.34375 0.59375 0.8125q0.21875 0.46875 0.21875 1.0l-1.140625 0q-0.015625 -0.3125 -0.15625 -0.59375q-0.125 -0.28125 -0.359375 -0.5q-0.21875 -0.21875 -0.53125 -0.34375q-0.3125 -0.125 -0.6875 -0.125q-0.546875 0 -0.9375 0.234375q-0.375 0.21875 -0.609375 0.578125q-0.234375 0.359375 -0.34375 0.8125q-0.09375 0.453125 -0.09375 0.90625l0 0.265625q0 0.46874237 0.09375 0.9218674q0.109375 0.453125 0.34375 0.8125q0.234375 0.359375 0.609375 0.59375q0.375 0.21875 0.9375 0.21875zm7.107605 -2.4374924l-0.875 0.8437424l0 2.4375l-1.21875 0l0 -9.999992l1.21875 0l0 6.125l0.78125 -0.84375l2.3125 -2.328125l1.46875 0l-2.859375 2.9375l3.296875 4.1093674l-1.53125 0l-2.59375 -3.2812424zm17.793213 3.2812424l-1.203125 0l0 -7.9374924l-2.46875 0.9375l0 -1.09375l3.578125 -1.375l0.09375 0l0 9.468742z" fill-rule="nonzero"/><path fill="#d9ead3" d="m623.09186 137.09448l125.98425 0l0 21.385834l-125.98425 0z" fill-rule="evenodd"/><path stroke="#000000" stroke-width="1.0" stroke-linejoin="round" stroke-linecap="butt" d="m623.09186 137.09448l125.98425 0l0 21.385834l-125.98425 0z" fill-rule="evenodd"/><path fill="#000000" d="m649.18774 149.1499q0 0.75 -0.1875 1.40625q-0.171875 0.65625 -0.53125 1.140625q-0.34375 0.46875 -0.859375 0.75q-0.515625 0.265625 -1.1875 0.265625q-0.671875 0 -1.171875 -0.234375q-0.5 -0.234375 -0.859375 -0.6875l-0.046875 0.796875l-1.109375 0l0 -10.0l1.203125 0l0 3.71875q0.34375 -0.4375 0.828125 -0.65625q0.484375 -0.234375 1.140625 -0.234375q0.671875 0 1.1875 0.265625q0.53125 0.265625 0.875 0.75q0.359375 0.46875 0.53125 1.140625q0.1875 0.65625 0.1875 1.4375l0 0.140625zm-1.203125 -0.140625q0 -0.515625 -0.109375 -0.984375q-0.09375 -0.46875 -0.3125 -0.8125q-0.21875 -0.359375 -0.578125 -0.5625q-0.359375 -0.21875 -0.875 -0.21875q-0.3125 0 -0.578125 0.09375q-0.25 0.078125 -0.46875 0.234375q-0.203125 0.140625 -0.359375 0.34375q-0.15625 0.1875 -0.265625 0.421875l0 3.078125q0.109375 0.234375 0.265625 0.4375q0.171875 0.1875 0.375 0.34375q0.21875 0.15625 0.46875 0.234375q0.265625 0.078125 0.578125 0.078125q0.484375 0 0.84375 -0.203125q0.359375 -0.203125 0.578125 -0.546875q0.234375 -0.359375 0.328125 -0.8125q0.109375 -0.46875 0.109375 -0.984375l0 -0.140625zm7.810669 2.609375q-0.359375 0.515625 -0.890625 0.8125q-0.515625 0.28125 -1.203125 0.28125q-0.5625 0 -1.015625 -0.171875q-0.4375 -0.171875 -0.765625 -0.53125q-0.3125 -0.359375 -0.484375 -0.921875q-0.171875 -0.5625 -0.171875 -1.359375l0 -4.1875l1.203125 0l0 4.203125q0 0.578125 0.09375 0.953125q0.09375 0.375 0.265625 0.609375q0.1875 0.21875 0.453125 0.3125q0.265625 0.078125 0.609375 0.078125q0.734375 0 1.1875 -0.296875q0.453125 -0.296875 0.671875 -0.796875l0 -5.0625l1.203125 0l0 7.046875l-1.09375 0l-0.0625 -0.96875zm3.623169 -6.078125l3.59375 0l0 6.0l2.296875 0l0 1.046875l-5.890625 0l0 -1.046875l2.390625 0l0 -4.953125l-2.390625 0l0 -1.046875zm2.234375 -1.84375q0 -0.296875 0.171875 -0.5q0.1875 -0.203125 0.546875 -0.203125q0.359375 0 0.53125 0.203125q0.1875 0.203125 0.1875 0.5q0 0.296875 -0.1875 0.5q-0.171875 0.1875 -0.53125 0.1875q-0.359375 0 -0.546875 -0.1875q-0.171875 -0.203125 -0.171875 -0.5zm5.763794 -1.109375l3.59375 0l0 8.953125l2.296875 0l0 1.046875l-5.890625 0l0 -1.046875l2.390625 0l0 -7.90625l-2.390625 0l0 -1.046875zm7.576355 6.421875q0 -0.78125 0.1875 -1.4375q0.203125 -0.671875 0.5625 -1.140625q0.375 -0.484375 0.890625 -0.75q0.53125 -0.265625 1.171875 -0.265625q0.640625 0 1.109375 0.21875q0.46875 0.203125 0.8125 0.609375l0 -3.65625l1.203125 0l0 10.0l-1.109375 0l-0.046875 -0.734375q-0.34375 0.421875 -0.84375 0.640625q-0.484375 0.21875 -1.140625 0.21875q-0.625 0 -1.15625 -0.265625q-0.515625 -0.28125 -0.875 -0.75q-0.359375 -0.484375 -0.5625 -1.140625q-0.203125 -0.65625 -0.203125 -1.40625l0 -0.140625zm1.203125 0.140625q0 0.515625 0.109375 0.984375q0.109375 0.453125 0.34375 0.8125q0.234375 0.34375 0.578125 0.546875q0.359375 0.203125 0.875 0.203125q0.296875 0 0.546875 -0.0625q0.25 -0.078125 0.453125 -0.203125q0.203125 -0.140625 0.359375 -0.328125q0.15625 -0.1875 0.265625 -0.421875l0 -3.265625q-0.234375 -0.421875 -0.640625 -0.703125q-0.390625 -0.28125 -0.984375 -0.28125q-0.5 0 -0.859375 0.21875q-0.359375 0.203125 -0.59375 0.5625q-0.234375 0.34375 -0.34375 0.8125q-0.109375 0.46875 -0.109375 0.984375l0 0.140625zm12.966919 0q0 0.75 -0.1875 1.40625q-0.1875 0.65625 -0.546875 1.140625q-0.34375 0.46875 -0.859375 0.75q-0.515625 0.265625 -1.171875 0.265625q-0.65625 0 -1.140625 -0.203125q-0.484375 -0.203125 -0.84375 -0.59375l0 3.375l-1.203125 0l0 -9.75l1.09375 0l0.0625 0.765625q0.359375 -0.421875 0.84375 -0.65625q0.5 -0.234375 1.15625 -0.234375q0.6875 0 1.203125 0.265625q0.515625 0.265625 0.859375 0.75q0.359375 0.46875 0.546875 1.140625q0.1875 0.65625 0.1875 1.4375l0 0.140625zm-1.203125 -0.140625q0 -0.515625 -0.125 -0.984375q-0.109375 -0.46875 -0.34375 -0.8125q-0.234375 -0.359375 -0.609375 -0.5625q-0.359375 -0.21875 -0.859375 -0.21875q-0.59375 0 -0.984375 0.28125q-0.390625 0.265625 -0.625 0.6875l0 3.390625q0.234375 0.421875 0.625 0.6875q0.390625 0.25 0.984375 0.25q0.5 0 0.859375 -0.203125q0.375 -0.21875 0.609375 -0.5625q0.234375 -0.359375 0.34375 -0.828125q0.125 -0.46875 0.125 -0.984375l0 -0.140625zm7.888794 3.578125q-0.078125 -0.140625 -0.125 -0.34375q-0.03125 -0.203125 -0.0625 -0.421875q-0.171875 0.1875 -0.40625 0.34375q-0.21875 0.15625 -0.5 0.28125q-0.265625 0.125 -0.578125 0.1875q-0.296875 0.078125 -0.640625 0.078125q-0.5625 0 -1.015625 -0.15625q-0.453125 -0.15625 -0.765625 -0.4375q-0.3125 -0.28125 -0.484375 -0.65625q-0.171875 -0.390625 -0.171875 -0.828125q0 -0.578125 0.234375 -1.015625q0.234375 -0.4375 0.65625 -0.71875q0.421875 -0.296875 1.015625 -0.4375q0.59375 -0.140625 1.328125 -0.140625l1.3125 0l0 -0.5625q0 -0.3125 -0.125 -0.5625q-0.109375 -0.265625 -0.328125 -0.4375q-0.203125 -0.171875 -0.515625 -0.265625q-0.3125 -0.109375 -0.703125 -0.109375q-0.34375 0 -0.640625 0.09375q-0.28125 0.09375 -0.484375 0.25q-0.1875 0.140625 -0.296875 0.34375q-0.09375 0.203125 -0.09375 0.421875l-1.21875 0q0.015625 -0.375 0.203125 -0.75q0.1875 -0.375 0.546875 -0.671875q0.359375 -0.296875 0.875 -0.46875q0.53125 -0.1875 1.1875 -0.1875q0.59375 0 1.109375 0.15625q0.515625 0.140625 0.890625 0.4375q0.375 0.296875 0.578125 0.734375q0.21875 0.4375 0.21875 1.03125l0 3.28125q0 0.34375 0.0625 0.75q0.0625 0.390625 0.1875 0.671875l0 0.109375l-1.25 0zm-2.140625 -0.921875q0.359375 0 0.65625 -0.078125q0.3125 -0.09375 0.5625 -0.25q0.25 -0.15625 0.421875 -0.34375q0.1875 -0.1875 0.296875 -0.390625l0 -1.4375l-1.125 0q-1.046875 0 -1.640625 0.3125q-0.578125 0.3125 -0.578125 0.984375q0 0.265625 0.078125 0.484375q0.09375 0.21875 0.265625 0.390625q0.1875 0.15625 0.453125 0.25q0.265625 0.078125 0.609375 0.078125zm8.498169 0.078125q0.328125 0 0.640625 -0.09375q0.3125 -0.109375 0.546875 -0.296875q0.25 -0.1875 0.390625 -0.4375q0.140625 -0.25 0.15625 -0.546875l1.140625 0q-0.015625 0.46875 -0.25 0.90625q-0.234375 0.421875 -0.640625 0.75q-0.390625 0.3125 -0.90625 0.5q-0.515625 0.1875 -1.078125 0.1875q-0.796875 0 -1.390625 -0.28125q-0.59375 -0.28125 -1.0 -0.765625q-0.40625 -0.484375 -0.609375 -1.125q-0.1875 -0.640625 -0.1875 -1.34375l0 -0.265625q0 -0.703125 0.1875 -1.328125q0.203125 -0.640625 0.609375 -1.125q0.40625 -0.484375 1.0 -0.765625q0.59375 -0.296875 1.390625 -0.296875q0.625 0 1.15625 0.203125q0.53125 0.1875 0.90625 0.53125q0.375 0.34375 0.59375 0.8125q0.21875 0.46875 0.21875 1.0l-1.140625 0q-0.015625 -0.3125 -0.15625 -0.59375q-0.125 -0.28125 -0.359375 -0.5q-0.21875 -0.21875 -0.53125 -0.34375q-0.3125 -0.125 -0.6875 -0.125q-0.546875 0 -0.9375 0.234375q-0.375 0.21875 -0.609375 0.578125q-0.234375 0.359375 -0.34375 0.8125q-0.09375 0.453125 -0.09375 0.90625l0 0.265625q0 0.46875 0.09375 0.921875q0.109375 0.453125 0.34375 0.8125q0.234375 0.359375 0.609375 0.59375q0.375 0.21875 0.9375 0.21875zm7.107605 -2.4375l-0.875 0.84375l0 2.4375l-1.21875 0l0 -10.0l1.21875 0l0 6.125l0.78125 -0.84375l2.3125 -2.328125l1.46875 0l-2.859375 2.9375l3.296875 4.109375l-1.53125 0l-2.59375 -3.28125zm19.699463 3.28125l-6.203125 0l0 -0.859375l3.109375 -3.453125q0.40625 -0.46875 0.6875 -0.828125q0.28125 -0.359375 0.453125 -0.65625q0.171875 -0.296875 0.234375 -0.5625q0.078125 -0.28125 0.078125 -0.5625q0 -0.359375 -0.125 -0.65625q-0.109375 -0.3125 -0.328125 -0.53125q-0.203125 -0.234375 -0.515625 -0.359375q-0.3125 -0.140625 -0.703125 -0.140625q-0.46875 0 -0.828125 0.140625q-0.34375 0.125 -0.578125 0.375q-0.234375 0.25 -0.34375 0.609375q-0.109375 0.359375 -0.109375 0.796875l-1.21875 0q0 -0.59375 0.203125 -1.125q0.21875 -0.53125 0.609375 -0.921875q0.390625 -0.40625 0.953125 -0.640625q0.578125 -0.234375 1.3125 -0.234375q0.671875 0 1.203125 0.203125q0.546875 0.203125 0.90625 0.5625q0.375 0.34375 0.578125 0.828125q0.203125 0.46875 0.203125 1.046875q0 0.421875 -0.15625 0.828125q-0.140625 0.40625 -0.390625 0.8125q-0.234375 0.40625 -0.5625 0.8125q-0.3125 0.390625 -0.671875 0.78125l-2.546875 2.75l4.75 0l0 0.984375z" fill-rule="nonzero"/><path fill="#000000" fill-opacity="0.0" d="m529.23096 133.87665l74.236206 0" fill-rule="evenodd"/><path stroke="#000000" stroke-width="1.0" stroke-linejoin="round" stroke-linecap="butt" d="m529.23096 133.87665l68.236206 0" fill-rule="evenodd"/><path fill="#000000" stroke="#000000" stroke-width="1.0" stroke-linecap="butt" d="m597.46716 135.52837l4.538147 -1.6517181l-4.538147 -1.6517334z" fill-rule="evenodd"/><path fill="#000000" fill-opacity="0.0" d="m162.5853 86.19212l115.37009 0l0 47.716537l-115.37009 0z" fill-rule="evenodd"/><path fill="#000000" d="m179.37498 111.412895q0 0.75 -0.1875 1.40625q-0.171875 0.65625 -0.53125 1.140625q-0.34375 0.46875 -0.859375 0.75q-0.515625 0.265625 -1.1875 0.265625q-0.671875 0 -1.171875 -0.234375q-0.5 -0.234375 -0.859375 -0.6875l-0.046875 0.796875l-1.109375 0l0 -10.0l1.203125 0l0 3.71875q0.34375 -0.4375 0.828125 -0.65625q0.484375 -0.234375 1.140625 -0.234375q0.671875 0 1.1875 0.265625q0.53125 0.265625 0.875 0.75q0.359375 0.46875 0.53125 1.140625q0.1875 0.65625 0.1875 1.4375l0 0.140625zm-1.203125 -0.140625q0 -0.515625 -0.109375 -0.984375q-0.09375 -0.46875 -0.3125 -0.8125q-0.21875 -0.359375 -0.578125 -0.5625q-0.359375 -0.21875 -0.875 -0.21875q-0.3125 0 -0.578125 0.09375q-0.25 0.078125 -0.46875 0.234375q-0.203125 0.140625 -0.359375 0.34375q-0.15625 0.1875 -0.265625 0.421875l0 3.078125q0.109375 0.234375 0.265625 0.4375q0.171875 0.1875 0.375 0.34375q0.21875 0.15625 0.46875 0.234375q0.265625 0.078125 0.578125 0.078125q0.484375 0 0.84375 -0.203125q0.359375 -0.203125 0.578125 -0.546875q0.234375 -0.359375 0.328125 -0.8125q0.109375 -0.46875 0.109375 -0.984375l0 -0.140625zm7.810684 2.609375q-0.359375 0.515625 -0.890625 0.8125q-0.515625 0.28125 -1.203125 0.28125q-0.5625 0 -1.015625 -0.171875q-0.4375 -0.171875 -0.765625 -0.53125q-0.3125 -0.359375 -0.484375 -0.921875q-0.171875 -0.5625 -0.171875 -1.359375l0 -4.1875l1.203125 0l0 4.203125q0 0.578125 0.09375 0.953125q0.09375 0.375 0.265625 0.609375q0.1875 0.21875 0.453125 0.3125q0.265625 0.078125 0.609375 0.078125q0.734375 0 1.1875 -0.296875q0.453125 -0.296875 0.671875 -0.796875l0 -5.0625l1.203125 0l0 7.046875l-1.09375 0l-0.0625 -0.96875zm3.6231842 -6.078125l3.59375 0l0 6.0l2.296875 0l0 1.046875l-5.890625 0l0 -1.046875l2.390625 0l0 -4.953125l-2.390625 0l0 -1.046875zm2.234375 -1.84375q0 -0.296875 0.171875 -0.5q0.1875 -0.203125 0.546875 -0.203125q0.359375 0 0.53125 0.203125q0.1875 0.203125 0.1875 0.5q0 0.296875 -0.1875 0.5q-0.171875 0.1875 -0.53125 0.1875q-0.359375 0 -0.546875 -0.1875q-0.171875 -0.203125 -0.171875 -0.5zm5.763809 -1.109375l3.59375 0l0 8.953125l2.296875 0l0 1.046875l-5.890625 0l0 -1.046875l2.390625 0l0 -7.90625l-2.390625 0l0 -1.046875zm7.576309 6.421875q0 -0.78125 0.1875 -1.4375q0.203125 -0.671875 0.5625 -1.140625q0.375 -0.484375 0.890625 -0.75q0.53125 -0.265625 1.171875 -0.265625q0.640625 0 1.109375 0.21875q0.46875 0.203125 0.8125 0.609375l0 -3.65625l1.203125 0l0 10.0l-1.109375 0l-0.046875 -0.734375q-0.34375 0.421875 -0.84375 0.640625q-0.484375 0.21875 -1.140625 0.21875q-0.625 0 -1.15625 -0.265625q-0.515625 -0.28125 -0.875 -0.75q-0.359375 -0.484375 -0.5625 -1.140625q-0.203125 -0.65625 -0.203125 -1.40625l0 -0.140625zm1.203125 0.140625q0 0.515625 0.109375 0.984375q0.109375 0.453125 0.34375 0.8125q0.234375 0.34375 0.578125 0.546875q0.359375 0.203125 0.875 0.203125q0.296875 0 0.546875 -0.0625q0.25 -0.078125 0.453125 -0.203125q0.203125 -0.140625 0.359375 -0.328125q0.15625 -0.1875 0.265625 -0.421875l0 -3.265625q-0.234375 -0.421875 -0.640625 -0.703125q-0.390625 -0.28125 -0.984375 -0.28125q-0.5 0 -0.859375 0.21875q-0.359375 0.203125 -0.59375 0.5625q-0.234375 0.34375 -0.34375 0.8125q-0.109375 0.46875 -0.109375 0.984375l0 0.140625zm10.138809 3.5625q-0.75 0 -1.375 -0.25q-0.609375 -0.25 -1.0625 -0.703125q-0.4375 -0.453125 -0.6875 -1.078125q-0.25 -0.625 -0.25 -1.375l0 -0.265625q0 -0.859375 0.265625 -1.53125q0.28125 -0.671875 0.734375 -1.125q0.453125 -0.46875 1.03125 -0.71875q0.578125 -0.25 1.1875 -0.25q0.75 0 1.3125 0.265625q0.578125 0.265625 0.953125 0.734375q0.375 0.453125 0.5625 1.09375q0.1875 0.625 0.1875 1.359375l0 0.546875l-5.03125 0q0.03125 0.484375 0.1875 0.90625q0.171875 0.421875 0.453125 0.734375q0.296875 0.3125 0.6875 0.5q0.40625 0.171875 0.90625 0.171875q0.640625 0 1.140625 -0.25q0.5 -0.265625 0.828125 -0.6875l0.734375 0.5625q-0.171875 0.265625 -0.4375 0.515625q-0.265625 0.25 -0.609375 0.4375q-0.34375 0.1875 -0.78125 0.296875q-0.4375 0.109375 -0.9375 0.109375zm-0.15625 -6.3125q-0.375 0 -0.703125 0.140625q-0.3125 0.125 -0.578125 0.390625q-0.265625 0.25 -0.453125 0.625q-0.171875 0.375 -0.234375 0.859375l3.78125 0l0 -0.078125q-0.015625 -0.359375 -0.140625 -0.703125q-0.109375 -0.34375 -0.328125 -0.609375q-0.21875 -0.28125 -0.5625 -0.453125q-0.328125 -0.171875 -0.78125 -0.171875zm9.654434 -0.984375q0.171875 0 0.34375 0.015625q0.1875 0 0.34375 0.03125q0.171875 0.015625 0.3125 0.046875q0.140625 0.03125 0.234375 0.078125l-0.171875 1.171875q-0.34375 -0.078125 -0.65625 -0.109375q-0.3125 -0.03125 -0.65625 -0.03125q-0.859375 0 -1.390625 0.390625q-0.515625 0.375 -0.765625 1.0625l0 4.515625l-1.203125 0l0 -7.046875l1.140625 0l0.0625 1.125q0.4375 -0.578125 1.03125 -0.90625q0.609375 -0.34375 1.375 -0.34375zm5.482559 6.390625q0 -0.1875 0.046875 -0.359375q0.0625 -0.171875 0.171875 -0.296875q0.125 -0.125 0.296875 -0.203125q0.1875 -0.078125 0.421875 -0.078125q0.234375 0 0.40625 0.078125q0.1875 0.078125 0.296875 0.203125q0.125 0.125 0.1875 0.296875q0.0625 0.171875 0.0625 0.359375q0 0.1875 -0.0625 0.359375q-0.0625 0.15625 -0.1875 0.28125q-0.109375 0.125 -0.296875 0.1875q-0.171875 0.078125 -0.40625 0.078125q-0.234375 0 -0.421875 -0.078125q-0.171875 -0.0625 -0.296875 -0.1875q-0.109375 -0.125 -0.171875 -0.28125q-0.046875 -0.171875 -0.046875 -0.359375zm8.748184 -7.96875l0 1.703125l2.6875 0l0 0.9375l-2.6875 0l0 3.828125q0 0.40625 0.09375 0.671875q0.109375 0.265625 0.296875 0.4375q0.1875 0.15625 0.421875 0.21875q0.234375 0.0625 0.5 0.0625q0.203125 0 0.40625 -0.015625q0.203125 -0.03125 0.40625 -0.0625q0.203125 -0.03125 0.375 -0.0625q0.171875 -0.046875 0.28125 -0.0625l0.171875 0.84375q-0.15625 0.09375 -0.375 0.171875q-0.203125 0.0625 -0.46875 0.109375q-0.25 0.046875 -0.53125 0.0625q-0.28125 0.03125 -0.5625 0.03125q-0.46875 0 -0.875 -0.125q-0.40625 -0.140625 -0.703125 -0.421875q-0.296875 -0.296875 -0.484375 -0.75q-0.171875 -0.46875 -0.171875 -1.109375l0 -3.828125l-1.84375 0l0 -0.9375l1.84375 0l0 -1.703125l1.21875 0zm4.810684 5.171875q0 -0.765625 0.21875 -1.421875q0.21875 -0.65625 0.625 -1.140625q0.421875 -0.484375 1.015625 -0.75q0.59375 -0.28125 1.328125 -0.28125q0.75 0 1.34375 0.28125q0.59375 0.265625 1.0 0.75q0.421875 0.484375 0.640625 1.140625q0.234375 0.65625 0.234375 1.421875l0 0.140625q0 0.75 -0.234375 1.40625q-0.21875 0.65625 -0.640625 1.140625q-0.40625 0.46875 -1.0 0.75q-0.578125 0.265625 -1.328125 0.265625q-0.75 0 -1.34375 -0.265625q-0.59375 -0.28125 -1.015625 -0.75q-0.40625 -0.484375 -0.625 -1.140625q-0.21875 -0.65625 -0.21875 -1.40625l0 -0.140625zm1.203125 0.140625q0 0.515625 0.125 0.984375q0.125 0.46875 0.375 0.828125q0.25 0.359375 0.625 0.578125q0.375 0.203125 0.875 0.203125q0.5 0 0.875 -0.203125q0.375 -0.21875 0.625 -0.578125q0.25 -0.359375 0.375 -0.828125q0.125 -0.46875 0.125 -0.984375l0 -0.140625q0 -0.515625 -0.140625 -0.984375q-0.125 -0.484375 -0.375 -0.84375q-0.25 -0.359375 -0.625 -0.5625q-0.375 -0.21875 -0.875 -0.21875q-0.5 0 -0.875 0.21875q-0.359375 0.203125 -0.609375 0.5625q-0.25 0.359375 -0.375 0.84375q-0.125 0.46875 -0.125 0.984375l0 0.140625zm7.685684 -3.609375l0.03125 0.671875q0.21875 -0.375 0.5625 -0.578125q0.34375 -0.21875 0.84375 -0.21875q0.96876526 0 1.2968903 0.75q0.203125 -0.328125 0.546875 -0.53125q0.34375 -0.21875 0.828125 -0.21875q0.78125 0 1.1875 0.484375q0.421875 0.46875 0.421875 1.421875l0 5.265625l-1.140625 0l0 -5.265625q0 -0.890625 -0.8125 -0.890625q-0.21875 0 -0.375 0.0625q-0.15625 0.0625 -0.265625 0.171875q-0.09375 0.09375 -0.15625 0.234375q-0.0625 0.125 -0.078125 0.265625l0 5.421875l-1.1562653 0l0 -5.28125q0 -0.421875 -0.1875 -0.640625q-0.1875 -0.234375 -0.59375 -0.234375q-0.375 0 -0.59375 0.15625q-0.203125 0.15625 -0.296875 0.390625l0 5.609375l-1.140625 0l0 -7.046875l1.078125 0zm7.638809 -2.953125l3.59375 0l0 8.953125l2.296875 0l0 1.046875l-5.890625 0l0 -1.046875l2.390625 0l0 -7.90625l-2.390625 0l0 -1.046875z" fill-rule="nonzero"/><path fill="#ffffff" d="m245.8924 90.333336l-49.858276 0l0 -53.8486l11.1592865 -11.159279l38.69899 0z" fill-rule="evenodd"/><path fill="#cbcbcb" d="m207.1934 25.325459l-2.2318573 8.927422l-8.927429 2.2318573z" fill-rule="evenodd"/><path fill="#000000" fill-opacity="0.0" d="m207.1934 25.325459l-2.2318573 8.927422l-8.927429 2.2318573l11.1592865 -11.159279l38.69899 0l0 65.00787l-49.858276 0l0 -53.8486" fill-rule="evenodd"/><path stroke="#000000" stroke-width="1.0" stroke-linejoin="round" stroke-linecap="butt" d="m207.1934 25.325459l-2.2318573 8.927422l-8.927429 2.2318573l11.1592865 -11.159279l38.69899 0l0 65.00787l-49.858276 0l0 -53.8486" fill-rule="evenodd"/><path fill="#fff2cc" d="m28.939632 32.003937l125.98425 0l0 21.385826l-125.98425 0z" fill-rule="evenodd"/><path stroke="#000000" stroke-width="1.0" stroke-linejoin="round" stroke-linecap="butt" d="m28.939632 32.003937l125.98425 0l0 21.385826l-125.98425 0z" fill-rule="evenodd"/><path fill="#000000" d="m55.035496 44.05935q0 0.75 -0.1875 1.40625q-0.171875 0.65625 -0.53125 1.140625q-0.34375 0.46875 -0.859375 0.75q-0.515625 0.265625 -1.1875 0.265625q-0.671875 0 -1.171875 -0.234375q-0.5 -0.234375 -0.859375 -0.6875l-0.046875 0.796875l-1.109375 0l0 -10.0l1.203125 0l0 3.71875q0.34375 -0.4375 0.828125 -0.65625q0.484375 -0.234375 1.140625 -0.234375q0.671875 0 1.1875 0.265625q0.53125 0.265625 0.875 0.75q0.359375 0.46875 0.53125 1.140625q0.1875 0.65625 0.1875 1.4375l0 0.140625zm-1.203125 -0.140625q0 -0.515625 -0.109375 -0.984375q-0.09375 -0.46875 -0.3125 -0.8125q-0.21875 -0.359375 -0.578125 -0.5625q-0.359375 -0.21875 -0.875 -0.21875q-0.3125 0 -0.578125 0.09375q-0.25 0.078125 -0.46875 0.234375q-0.203125 0.140625 -0.359375 0.34375q-0.15625 0.1875 -0.265625 0.421875l0 3.078125q0.109375 0.234375 0.265625 0.4375q0.171875 0.1875 0.375 0.34375q0.21875 0.15625 0.46875 0.234375q0.265625 0.078125 0.578125 0.078125q0.484375 0 0.84375 -0.203125q0.359375 -0.203125 0.578125 -0.546875q0.234375 -0.359375 0.328125 -0.8125q0.109375 -0.46875 0.109375 -0.984375l0 -0.140625zm7.810684 2.609375q-0.359375 0.515625 -0.890625 0.8125q-0.515625 0.28125 -1.203125 0.28125q-0.5625 0 -1.015625 -0.171875q-0.4375 -0.171875 -0.765625 -0.53125q-0.3125 -0.359375 -0.484375 -0.921875q-0.171875 -0.5625 -0.171875 -1.359375l0 -4.1875l1.203125 0l0 4.203125q0 0.578125 0.09375 0.953125q0.09375 0.375 0.265625 0.609375q0.1875 0.21875 0.453125 0.3125q0.265625 0.078125 0.609375 0.078125q0.734375 0 1.1875 -0.296875q0.453125 -0.296875 0.671875 -0.796875l0 -5.0625l1.203125 0l0 7.046875l-1.09375 0l-0.0625 -0.96875zm3.623188 -6.078125l3.59375 0l0 6.0l2.296875 0l0 1.046875l-5.890625 0l0 -1.046875l2.390625 0l0 -4.953125l-2.390625 0l0 -1.046875zm2.234375 -1.84375q0 -0.296875 0.171875 -0.5q0.1875 -0.203125 0.546875 -0.203125q0.359375 0 0.53125 0.203125q0.1875 0.203125 0.1875 0.5q0 0.296875 -0.1875 0.5q-0.171875 0.1875 -0.53125 0.1875q-0.359375 0 -0.546875 -0.1875q-0.171875 -0.203125 -0.171875 -0.5zm5.763809 -1.109375l3.59375 0l0 8.953125l2.296875 0l0 1.046875l-5.890625 0l0 -1.046875l2.390625 0l0 -7.90625l-2.390625 0l0 -1.046875zm7.576309 6.421875q0 -0.78125 0.1875 -1.4375q0.203125 -0.671875 0.5625 -1.140625q0.375 -0.484375 0.890625 -0.75q0.53125 -0.265625 1.171875 -0.265625q0.640625 0 1.109375 0.21875q0.46875 0.203125 0.8125 0.609375l0 -3.65625l1.203125 0l0 10.0l-1.109375 0l-0.046875 -0.734375q-0.34375 0.421875 -0.84375 0.640625q-0.484375 0.21875 -1.140625 0.21875q-0.625 0 -1.15625 -0.265625q-0.515625 -0.28125 -0.875 -0.75q-0.359375 -0.484375 -0.5625 -1.140625q-0.203125 -0.65625 -0.203125 -1.40625l0 -0.140625zm1.203125 0.140625q0 0.515625 0.109375 0.984375q0.109375 0.453125 0.34375 0.8125q0.234375 0.34375 0.578125 0.546875q0.359375 0.203125 0.875 0.203125q0.296875 0 0.546875 -0.0625q0.25 -0.078125 0.453125 -0.203125q0.203125 -0.140625 0.359375 -0.328125q0.15625 -0.1875 0.265625 -0.421875l0 -3.265625q-0.234375 -0.421875 -0.640625 -0.703125q-0.390625 -0.28125 -0.984375 -0.28125q-0.5 0 -0.859375 0.21875q-0.359375 0.203125 -0.59375 0.5625q-0.234375 0.34375 -0.34375 0.8125q-0.109375 0.46875 -0.109375 0.984375l0 0.140625zm12.966934 0q0 0.75 -0.1875 1.40625q-0.1875 0.65625 -0.546875 1.140625q-0.34375 0.46875 -0.859375 0.75q-0.515625 0.265625 -1.171875 0.265625q-0.65625 0 -1.140625 -0.203125q-0.484375 -0.203125 -0.84375 -0.59375l0 3.375l-1.203125 0l0 -9.75l1.09375 0l0.0625 0.765625q0.359375 -0.421875 0.84375 -0.65625q0.5 -0.234375 1.15625 -0.234375q0.6875 0 1.203125 0.265625q0.515625 0.265625 0.859375 0.75q0.359375 0.46875 0.546875 1.140625q0.1875 0.65625 0.1875 1.4375l0 0.140625zm-1.203125 -0.140625q0 -0.515625 -0.125 -0.984375q-0.109375 -0.46875 -0.34375 -0.8125q-0.234375 -0.359375 -0.609375 -0.5625q-0.359375 -0.21875 -0.859375 -0.21875q-0.59375 0 -0.984375 0.28125q-0.390625 0.265625 -0.625 0.6875l0 3.390625q0.234375 0.421875 0.625 0.6875q0.390625 0.25 0.984375 0.25q0.5 0 0.859375 -0.203125q0.375 -0.21875 0.609375 -0.5625q0.234375 -0.359375 0.34375 -0.828125q0.125 -0.46875 0.125 -0.984375l0 -0.140625zm7.888809 3.578125q-0.078125 -0.140625 -0.125 -0.34375q-0.03125 -0.203125 -0.0625 -0.421875q-0.171875 0.1875 -0.40625 0.34375q-0.21875 0.15625 -0.5 0.28125q-0.265625 0.125 -0.578125 0.1875q-0.296875 0.078125 -0.640625 0.078125q-0.5625 0 -1.015625 -0.15625q-0.453125 -0.15625 -0.765625 -0.4375q-0.3125 -0.28125 -0.484375 -0.65625q-0.171875 -0.390625 -0.171875 -0.828125q0 -0.578125 0.234375 -1.015625q0.234375 -0.4375 0.65625 -0.71875q0.421875 -0.296875 1.015625 -0.4375q0.59375 -0.140625 1.328125 -0.140625l1.3125 0l0 -0.5625q0 -0.3125 -0.125 -0.5625q-0.109375 -0.265625 -0.328125 -0.4375q-0.203125 -0.171875 -0.515625 -0.265625q-0.3125 -0.109375 -0.703125 -0.109375q-0.34375 0 -0.640625 0.09375q-0.28125 0.09375 -0.484375 0.25q-0.1875 0.140625 -0.296875 0.34375q-0.09375 0.203125 -0.09375 0.421875l-1.21875 0q0.015625 -0.375 0.203125 -0.75q0.1875 -0.375 0.546875 -0.671875q0.359375 -0.296875 0.875 -0.46875q0.53125 -0.1875 1.1875 -0.1875q0.59375 0 1.109375 0.15625q0.515625 0.140625 0.890625 0.4375q0.375 0.296875 0.578125 0.734375q0.21875 0.4375 0.21875 1.03125l0 3.28125q0 0.34375 0.0625 0.75q0.0625 0.390625 0.1875 0.671875l0 0.109375l-1.25 0zm-2.140625 -0.921875q0.359375 0 0.65625 -0.078125q0.3125 -0.09375 0.5625 -0.25q0.25 -0.15625 0.421875 -0.34375q0.1875 -0.1875 0.296875 -0.390625l0 -1.4375l-1.125 0q-1.046875 0 -1.640625 0.3125q-0.578125 0.3125 -0.578125 0.984375q0 0.265625 0.078125 0.484375q0.09375 0.21875 0.265625 0.390625q0.1875 0.15625 0.453125 0.25q0.265625 0.078125 0.609375 0.078125zm8.498184 0.078125q0.328125 0 0.640625 -0.09375q0.3125 -0.109375 0.546875 -0.296875q0.25 -0.1875 0.390625 -0.4375q0.140625 -0.25 0.15625 -0.546875l1.140625 0q-0.015625 0.46875 -0.25 0.90625q-0.234375 0.421875 -0.640625 0.75q-0.390625 0.3125 -0.90625 0.5q-0.515625 0.1875 -1.078125 0.1875q-0.796875 0 -1.390625 -0.28125q-0.59375 -0.28125 -1.0 -0.765625q-0.40625 -0.484375 -0.609375 -1.125q-0.1875 -0.640625 -0.1875 -1.34375l0 -0.265625q0 -0.703125 0.1875 -1.328125q0.203125 -0.640625 0.609375 -1.125q0.40625 -0.484375 1.0 -0.765625q0.59375 -0.296875 1.390625 -0.296875q0.625 0 1.15625 0.203125q0.53125 0.1875 0.90625 0.53125q0.375 0.34375 0.59375 0.8125q0.21875 0.46875 0.21875 1.0l-1.140625 0q-0.015625 -0.3125 -0.15625 -0.59375q-0.125 -0.28125 -0.359375 -0.5q-0.21875 -0.21875 -0.53125 -0.34375q-0.3125 -0.125 -0.6875 -0.125q-0.546875 0 -0.9375 0.234375q-0.375 0.21875 -0.609375 0.578125q-0.234375 0.359375 -0.34375 0.8125q-0.09375 0.453125 -0.09375 0.90625l0 0.265625q0 0.46875 0.09375 0.921875q0.109375 0.453125 0.34375 0.8125q0.234375 0.359375 0.609375 0.59375q0.375 0.21875 0.9375 0.21875zm7.107559 -2.4375l-0.875 0.84375l0 2.4375l-1.21875 0l0 -10.0l1.21875 0l0 6.125l0.78125 -0.84375l2.3125 -2.328125l1.46875 0l-2.859375 2.9375l3.296875 4.109375l-1.53125 0l-2.59375 -3.28125zm17.793236 3.28125l-1.203125 0l0 -7.9375l-2.46875 0.9375l0 -1.09375l3.578125 -1.375l0.09375 0l0 9.46875z" fill-rule="nonzero"/><path fill="#d9ead3" d="m28.939632 64.55118l125.98425 0l0 21.385826l-125.98425 0z" fill-rule="evenodd"/><path stroke="#000000" stroke-width="1.0" stroke-linejoin="round" stroke-linecap="butt" d="m28.939632 64.55118l125.98425 0l0 21.385826l-125.98425 0z" fill-rule="evenodd"/><path fill="#000000" d="m49.066746 80.04409l0 -9.46875l2.8125 0q0.578125 0 1.140625 0.15625q0.5625 0.140625 1.0 0.453125q0.4375 0.296875 0.6875 0.78125q0.265625 0.46875 0.265625 1.125q-0.015625 0.375 -0.125 0.6875q-0.109375 0.296875 -0.3125 0.546875q-0.203125 0.234375 -0.46875 0.421875q-0.265625 0.1875 -0.5625 0.3125q0.375 0.109375 0.6875 0.3125q0.328125 0.203125 0.546875 0.5q0.234375 0.28125 0.359375 0.65625q0.125 0.359375 0.125 0.78125q0 0.671875 -0.265625 1.1875q-0.25 0.5 -0.6875 0.84375q-0.4375 0.328125 -1.015625 0.515625q-0.5625 0.1875 -1.15625 0.1875l-3.03125 0zm1.203125 -4.4375l0 3.421875l1.859375 0q0.375 -0.015625 0.703125 -0.125q0.34375 -0.125 0.609375 -0.34375q0.265625 -0.21875 0.40625 -0.53125q0.15625 -0.3125 0.15625 -0.703125q0.015625 -0.40625 -0.125 -0.71875q-0.140625 -0.3125 -0.390625 -0.53125q-0.25 -0.21875 -0.578125 -0.328125q-0.328125 -0.125 -0.71875 -0.140625l-1.921875 0zm0 -1.0l1.6875 0q0.328125 0 0.65625 -0.09375q0.328125 -0.109375 0.578125 -0.296875q0.25 -0.203125 0.40625 -0.484375q0.15625 -0.28125 0.15625 -0.640625q0 -0.40625 -0.15625 -0.671875q-0.140625 -0.28125 -0.40625 -0.453125q-0.25 -0.1875 -0.59375 -0.265625q-0.328125 -0.09375 -0.6875 -0.109375l-1.640625 0l0 3.015625zm11.373184 4.46875q-0.359375 0.515625 -0.890625 0.8125q-0.515625 0.28125 -1.203125 0.28125q-0.5625 0 -1.015625 -0.171875q-0.4375 -0.171875 -0.765625 -0.53125q-0.3125 -0.359375 -0.484375 -0.921875q-0.171875 -0.5625 -0.171875 -1.359375l0 -4.1875l1.203125 0l0 4.203125q0 0.578125 0.09375 0.953125q0.09375 0.375 0.265625 0.609375q0.1875 0.21875 0.453125 0.3125q0.265625 0.078125 0.609375 0.078125q0.734375 0 1.1875 -0.296875q0.453125 -0.296875 0.671875 -0.796875l0 -5.0625l1.203125 0l0 7.046875l-1.09375 0l-0.0625 -0.96875zm3.623188 -6.078125l3.59375 0l0 6.0l2.296875 0l0 1.046875l-5.890625 0l0 -1.046875l2.390625 0l0 -4.953125l-2.390625 0l0 -1.046875zm2.234375 -1.84375q0 -0.296875 0.171875 -0.5q0.1875 -0.203125 0.546875 -0.203125q0.359375 0 0.53125 0.203125q0.1875 0.203125 0.1875 0.5q0 0.296875 -0.1875 0.5q-0.171875 0.1875 -0.53125 0.1875q-0.359375 0 -0.546875 -0.1875q-0.171875 -0.203125 -0.171875 -0.5zm5.763809 -1.109375l3.59375 0l0 8.953125l2.296875 0l0 1.046875l-5.890625 0l0 -1.046875l2.390625 0l0 -7.90625l-2.390625 0l0 -1.046875zm7.576309 6.421875q0 -0.78125 0.1875 -1.4375q0.203125 -0.671875 0.5625 -1.140625q0.375 -0.484375 0.890625 -0.75q0.53125 -0.265625 1.171875 -0.265625q0.640625 0 1.109375 0.21875q0.46875 0.203125 0.8125 0.609375l0 -3.65625l1.203125 0l0 10.0l-1.109375 0l-0.046875 -0.734375q-0.34375 0.421875 -0.84375 0.640625q-0.484375 0.21875 -1.140625 0.21875q-0.625 0 -1.15625 -0.265625q-0.515625 -0.28125 -0.875 -0.75q-0.359375 -0.484375 -0.5625 -1.140625q-0.203125 -0.65625 -0.203125 -1.40625l0 -0.140625zm1.203125 0.140625q0 0.515625 0.109375 0.984375q0.109375 0.453125 0.34375 0.8125q0.234375 0.34375 0.578125 0.546875q0.359375 0.203125 0.875 0.203125q0.296875 0 0.546875 -0.0625q0.25 -0.078125 0.453125 -0.203125q0.203125 -0.140625 0.359375 -0.328125q0.15625 -0.1875 0.265625 -0.421875l0 -3.265625q-0.234375 -0.421875 -0.640625 -0.703125q-0.390625 -0.28125 -0.984375 -0.28125q-0.5 0 -0.859375 0.21875q-0.359375 0.203125 -0.59375 0.5625q-0.234375 0.34375 -0.34375 0.8125q-0.109375 0.46875 -0.109375 0.984375l0 0.140625zm12.966934 0q0 0.75 -0.1875 1.40625q-0.1875 0.65625 -0.546875 1.140625q-0.34375 0.46875 -0.859375 0.75q-0.515625 0.265625 -1.171875 0.265625q-0.65625 0 -1.140625 -0.203125q-0.484375 -0.203125 -0.84375 -0.59375l0 3.375l-1.203125 0l0 -9.75l1.09375 0l0.0625 0.765625q0.359375 -0.421875 0.84375 -0.65625q0.5 -0.234375 1.15625 -0.234375q0.6875 0 1.203125 0.265625q0.515625 0.265625 0.859375 0.75q0.359375 0.46875 0.546875 1.140625q0.1875 0.65625 0.1875 1.4375l0 0.140625zm-1.203125 -0.140625q0 -0.515625 -0.125 -0.984375q-0.109375 -0.46875 -0.34375 -0.8125q-0.234375 -0.359375 -0.609375 -0.5625q-0.359375 -0.21875 -0.859375 -0.21875q-0.59375 0 -0.984375 0.28125q-0.390625 0.265625 -0.625 0.6875l0 3.390625q0.234375 0.421875 0.625 0.6875q0.390625 0.25 0.984375 0.25q0.5 0 0.859375 -0.203125q0.375 -0.21875 0.609375 -0.5625q0.234375 -0.359375 0.34375 -0.828125q0.125 -0.46875 0.125 -0.984375l0 -0.140625zm7.888809 3.578125q-0.078125 -0.140625 -0.125 -0.34375q-0.03125 -0.203125 -0.0625 -0.421875q-0.171875 0.1875 -0.40625 0.34375q-0.21875 0.15625 -0.5 0.28125q-0.265625 0.125 -0.578125 0.1875q-0.296875 0.078125 -0.640625 0.078125q-0.5625 0 -1.015625 -0.15625q-0.453125 -0.15625 -0.765625 -0.4375q-0.3125 -0.28125 -0.484375 -0.65625q-0.171875 -0.390625 -0.171875 -0.828125q0 -0.578125 0.234375 -1.015625q0.234375 -0.4375 0.65625 -0.71875q0.421875 -0.296875 1.015625 -0.4375q0.59375 -0.140625 1.328125 -0.140625l1.3125 0l0 -0.5625q0 -0.3125 -0.125 -0.5625q-0.109375 -0.265625 -0.328125 -0.4375q-0.203125 -0.171875 -0.515625 -0.265625q-0.3125 -0.109375 -0.703125 -0.109375q-0.34375 0 -0.640625 0.09375q-0.28125 0.09375 -0.484375 0.25q-0.1875 0.140625 -0.296875 0.34375q-0.09375 0.203125 -0.09375 0.421875l-1.21875 0q0.015625 -0.375 0.203125 -0.75q0.1875 -0.375 0.546875 -0.671875q0.359375 -0.296875 0.875 -0.46875q0.53125 -0.1875 1.1875 -0.1875q0.59375 0 1.109375 0.15625q0.515625 0.140625 0.890625 0.4375q0.375 0.296875 0.578125 0.734375q0.21875 0.4375 0.21875 1.03125l0 3.28125q0 0.34375 0.0625 0.75q0.0625 0.390625 0.1875 0.671875l0 0.109375l-1.25 0zm-2.140625 -0.921875q0.359375 0 0.65625 -0.078125q0.3125 -0.09375 0.5625 -0.25q0.25 -0.15625 0.421875 -0.34375q0.1875 -0.1875 0.296875 -0.390625l0 -1.4375l-1.125 0q-1.046875 0 -1.640625 0.3125q-0.578125 0.3125 -0.578125 0.984375q0 0.265625 0.078125 0.484375q0.09375 0.21875 0.265625 0.390625q0.1875 0.15625 0.453125 0.25q0.265625 0.078125 0.609375 0.078125zm8.498184 0.078125q0.328125 0 0.640625 -0.09375q0.3125 -0.109375 0.546875 -0.296875q0.25 -0.1875 0.390625 -0.4375q0.140625 -0.25 0.15625 -0.546875l1.140625 0q-0.015625 0.46875 -0.25 0.90625q-0.234375 0.421875 -0.640625 0.75q-0.390625 0.3125 -0.90625 0.5q-0.515625 0.1875 -1.078125 0.1875q-0.796875 0 -1.390625 -0.28125q-0.59375 -0.28125 -1.0 -0.765625q-0.40625 -0.484375 -0.609375 -1.125q-0.1875 -0.640625 -0.1875 -1.34375l0 -0.265625q0 -0.703125 0.1875 -1.328125q0.203125 -0.640625 0.609375 -1.125q0.40625 -0.484375 1.0 -0.765625q0.59375 -0.296875 1.390625 -0.296875q0.625 0 1.15625 0.203125q0.53125 0.1875 0.90625 0.53125q0.375 0.34375 0.59375 0.8125q0.21875 0.46875 0.21875 1.0l-1.140625 0q-0.015625 -0.3125 -0.15625 -0.59375q-0.125 -0.28125 -0.359375 -0.5q-0.21875 -0.21875 -0.53125 -0.34375q-0.3125 -0.125 -0.6875 -0.125q-0.546875 0 -0.9375 0.234375q-0.375 0.21875 -0.609375 0.578125q-0.234375 0.359375 -0.34375 0.8125q-0.09375 0.453125 -0.09375 0.90625l0 0.265625q0 0.46875 0.09375 0.921875q0.109375 0.453125 0.34375 0.8125q0.234375 0.359375 0.609375 0.59375q0.375 0.21875 0.9375 0.21875zm7.107559 -2.4375l-0.875 0.84375l0 2.4375l-1.21875 0l0 -10.0l1.21875 0l0 6.125l0.78125 -0.84375l2.3125 -2.328125l1.46875 0l-2.859375 2.9375l3.296875 4.109375l-1.53125 0l-2.59375 -3.28125zm19.699486 3.28125l-6.203125 0l0 -0.859375l3.109375 -3.453125q0.40625 -0.46875 0.6875 -0.828125q0.28125 -0.359375 0.453125 -0.65625q0.171875 -0.296875 0.234375 -0.5625q0.078125 -0.28125 0.078125 -0.5625q0 -0.359375 -0.125 -0.65625q-0.109375 -0.3125 -0.328125 -0.53125q-0.203125 -0.234375 -0.515625 -0.359375q-0.3125 -0.140625 -0.703125 -0.140625q-0.46875 0 -0.828125 0.140625q-0.34375 0.125 -0.578125 0.375q-0.234375 0.25 -0.34375 0.609375q-0.109375 0.359375 -0.109375 0.796875l-1.21875 0q0 -0.59375 0.203125 -1.125q0.21875 -0.53125 0.609375 -0.921875q0.390625 -0.40625 0.953125 -0.640625q0.578125 -0.234375 1.3125 -0.234375q0.671875 0 1.203125 0.203125q0.546875 0.203125 0.90625 0.5625q0.375 0.34375 0.578125 0.828125q0.203125 0.46875 0.203125 1.046875q0 0.421875 -0.15625 0.828125q-0.140625 0.40625 -0.390625 0.8125q-0.234375 0.40625 -0.5625 0.8125q-0.3125 0.390625 -0.671875 0.78125l-2.546875 2.75l4.75 0l0 0.984375z" fill-rule="nonzero"/><path fill="#000000" fill-opacity="0.0" d="m140.93964 42.698162l83.37007 0" fill-rule="evenodd"/><path stroke="#000000" stroke-width="1.0" stroke-linejoin="round" stroke-linecap="butt" d="m144.72963 42.698162l75.79007 0" fill-rule="evenodd"/><path fill="#000000" stroke="#000000" stroke-width="1.0" stroke-linecap="butt" d="m141.43964 42.698162c0 -0.9085083 0.7364807 -1.6450005 1.644989 -1.6450005c0.9085083 0 1.6450043 0.73649216 1.6450043 1.6450005c0 0.9085083 -0.736496 1.6450005 -1.6450043 1.6450005c-0.9085083 0 -1.644989 -0.73649216 -1.644989 -1.6450005z" fill-rule="nonzero"/><path fill="#000000" stroke="#000000" stroke-width="1.0" stroke-linecap="butt" d="m223.80971 42.698162c0 0.9085083 -0.7364807 1.6450005 -1.644989 1.6450005c-0.9085083 0 -1.6450043 -0.73649216 -1.6450043 -1.6450005c0 -0.9085083 0.736496 -1.6450005 1.6450043 -1.6450005c0.9085083 0 1.644989 0.73649216 1.644989 1.6450005z" fill-rule="nonzero"/><path fill="#000000" fill-opacity="0.0" d="m140.93964 75.244095l83.37007 0" fill-rule="evenodd"/><path stroke="#000000" stroke-width="1.0" stroke-linejoin="round" stroke-linecap="butt" d="m144.72963 75.244095l75.79007 0" fill-rule="evenodd"/><path fill="#000000" stroke="#000000" stroke-width="1.0" stroke-linecap="butt" d="m141.43964 75.244095c0 -0.9085083 0.7364807 -1.6449966 1.644989 -1.6449966c0.9085083 0 1.6450043 0.73648834 1.6450043 1.6449966c0 0.9085083 -0.736496 1.6449966 -1.6450043 1.6449966c-0.9085083 0 -1.644989 -0.73648834 -1.644989 -1.6449966z" fill-rule="nonzero"/><path fill="#000000" stroke="#000000" stroke-width="1.0" stroke-linecap="butt" d="m223.80971 75.244095c0 0.9085083 -0.7364807 1.6449966 -1.644989 1.6449966c-0.9085083 0 -1.6450043 -0.73648834 -1.6450043 -1.6449966c0 -0.9085083 0.736496 -1.6449966 1.6450043 -1.6449966c0.9085083 0 1.644989 0.73648834 1.644989 1.6449966z" fill-rule="nonzero"/></g></svg>